<svg xmlns="http://www.w3.org/2000/svg" xmlns:xlink="http://www.w3.org/1999/xlink" viewBox="0 0 703.75 456.5"><defs><style>.cls-1{fill:none;}.cls-2{isolation:isolate;}.cls-3{opacity:0.55;}.cls-4{opacity:0.5;}.cls-5{fill:#002b38;}.cls-6{opacity:0.1;}.cls-7{opacity:0.6;}.cls-8{opacity:0.8;}.cls-9{opacity:0.4;}.cls-10{opacity:0.7;}.cls-11{opacity:0.02;}.cls-12{clip-path:url(#clip-path);}.cls-13{mix-blend-mode:screen;}</style><clipPath id="clip-path" transform="translate(-77.91 -55.63)"><rect class="cls-1" width="802.24" height="534.83"/></clipPath></defs><title>body-bg</title><g class="cls-2"><g id="Layer_2" data-name="Layer 2"><g id="Capa_2" data-name="Capa 2"><g class="cls-3"><g class="cls-4"><path class="cls-5" d="M266.86,161.1a.67.67,0,0,1-.52-.25L249.67,140.3a.68.68,0,0,1,0-.85l27.63-33.57a.66.66,0,0,1,.8-.18.67.67,0,0,1,.37.74l-11,54.12a.67.67,0,0,1-.49.52Zm-15.81-21.22,15.43,19,10.14-50.11Z" transform="translate(-77.91 -55.63)"/></g><g class="cls-4"><path class="cls-5" d="M255,352.8h0a.66.66,0,0,1-.59-.42l-19.91-48.57a.67.67,0,0,1,.2-.77.66.66,0,0,1,.79-.05L269,324.68a.65.65,0,0,1,.23.86l-13.64,26.89A.68.68,0,0,1,255,352.8Zm-18.48-47.53L255,350.52l12.71-25Z" transform="translate(-77.91 -55.63)"/></g><g class="cls-4"><path class="cls-5" d="M322.25,389.85a.73.73,0,0,1-.46-.17L303.54,372.8a.67.67,0,0,1-.18-.72.68.68,0,0,1,.59-.44l41.95-2.49a.65.65,0,0,1,.67.42.68.68,0,0,1-.2.76l-23.7,19.37A.66.66,0,0,1,322.25,389.85Zm-16.65-17,16.68,15.42,21.64-17.7Z" transform="translate(-77.91 -55.63)"/></g><g class="cls-4"><path class="cls-5" d="M472.86,401.38a.72.72,0,0,1-.32-.08.68.68,0,0,1-.35-.56l-1.76-50.86a.66.66,0,0,1,.34-.61.68.68,0,0,1,.7,0l41.17,27.89a.67.67,0,0,1,.29.58.65.65,0,0,1-.33.55l-39.4,23A.69.69,0,0,1,472.86,401.38Zm-1.05-50.23,1.68,48.42L511,377.7Z" transform="translate(-77.91 -55.63)"/></g><g class="cls-4"><path class="cls-5" d="M534,357.22a.58.58,0,0,1-.26-.05.67.67,0,0,1-.4-.71l6.8-50.79a.67.67,0,0,1,.62-.58.66.66,0,0,1,.69.5l8.39,31.28a.66.66,0,0,1-.11.58L534.54,357A.67.67,0,0,1,534,357.22Zm7-48.06-6,45,13.48-17.3Z" transform="translate(-77.91 -55.63)"/></g><g class="cls-4"><path class="cls-5" d="M573.85,285.59a.67.67,0,0,1-.52-.25l-25.42-31.18a.67.67,0,0,1-.14-.55.69.69,0,0,1,.34-.46l31.68-17.33a.68.68,0,0,1,1,.68L574.51,285a.66.66,0,0,1-.47.56Zm-24.39-31.65,23.93,29.35,5.89-45.66Z" transform="translate(-77.91 -55.63)"/></g><g class="cls-4"><path class="cls-5" d="M485.76,111.06a.65.65,0,0,1-.53-.27L449.71,64a.67.67,0,0,1,.76-1l21.3,7.61a.7.7,0,0,1,.41.4l14.21,39.14a.68.68,0,0,1-.31.82A.72.72,0,0,1,485.76,111.06ZM452.13,65l31.5,41.46L471,71.78Z" transform="translate(-77.91 -55.63)"/></g><g class="cls-4"><path class="cls-5" d="M380.34,83.85a.63.63,0,0,1-.27-.06L342.83,67.43a.68.68,0,0,1-.4-.69.69.69,0,0,1,.55-.58l56.15-10.52a.66.66,0,0,1,.68.3.65.65,0,0,1,0,.74L380.88,83.56A.65.65,0,0,1,380.34,83.85Zm-35-16.77L380.1,82.35l17.66-25.09Z" transform="translate(-77.91 -55.63)"/></g><g class="cls-4"><path class="cls-5" d="M221.37,233.56a.59.59,0,0,1-.34-.1.66.66,0,0,1-.32-.65l4.15-36a.65.65,0,0,1,.33-.5.68.68,0,0,1,.59-.05l30.72,12.59a.68.68,0,0,1,.41.55.69.69,0,0,1-.29.62l-34.87,23.46A.68.68,0,0,1,221.37,233.56Zm4.72-35.76-3.89,33.73,32.63-22Z" transform="translate(-77.91 -55.63)"/></g><g class="cls-4"><path class="cls-5" d="M232.21,296.27h0a.66.66,0,0,1-.63-.53l-9.15-41.4a.66.66,0,0,1,.38-.75l24-10.59a.66.66,0,0,1,.71.1.68.68,0,0,1,.2.69l-14.87,52A.66.66,0,0,1,232.21,296.27Zm-8.38-41.68,8.46,38.29L246,244.79Z" transform="translate(-77.91 -55.63)"/></g><g class="cls-4"><path class="cls-5" d="M316.2,242.88a.52.52,0,0,1-.21,0l-32.82-10.75a.67.67,0,0,1-.45-.77l7.92-36.69a.67.67,0,0,1,.56-.52.66.66,0,0,1,.68.35l24.91,47.44a.65.65,0,0,1-.08.74A.69.69,0,0,1,316.2,242.88Zm-32-11.87,30.68,10.05-23.28-44.35Z" transform="translate(-77.91 -55.63)"/></g><g class="cls-4"><path class="cls-5" d="M503.86,144a.68.68,0,0,1-.51-.23.7.7,0,0,1-.11-.68l16.13-41.45a.68.68,0,0,1,.49-.41.66.66,0,0,1,.61.19l31,31.56a.67.67,0,0,1-.34,1.12L504,144Zm16.38-40.91-15.3,39.33L549.65,133Z" transform="translate(-77.91 -55.63)"/></g><g class="cls-4"><path class="cls-5" d="M563.91,198a.66.66,0,0,1-.43-.15.65.65,0,0,1-.24-.53l.89-35.17a.67.67,0,0,1,.57-.65.67.67,0,0,1,.73.44l11.64,32.57a.68.68,0,0,1,0,.56.64.64,0,0,1-.45.32L564,198Zm1.47-32.24-.78,30.75,11-2.27Z" transform="translate(-77.91 -55.63)"/></g><g class="cls-4"><path class="cls-5" d="M247.08,244.28a.58.58,0,0,1-.26-.06l-25.7-10.71a.68.68,0,0,1-.41-.7l4.15-36a.67.67,0,0,1,1.27-.21l21.55,46.77a.66.66,0,0,1-.12.74A.7.7,0,0,1,247.08,244.28Zm-25-11.81,23.66,9.86-19.83-43Z" transform="translate(-77.91 -55.63)"/></g><g class="cls-4"><path class="cls-5" d="M534,357.22l-.18,0-55.31-14.8a.68.68,0,0,1-.49-.71.66.66,0,0,1,.62-.6l70.51-4.72a.69.69,0,0,1,.64.36.67.67,0,0,1-.06.72L534.54,357A.67.67,0,0,1,534,357.22Zm-51.24-15.07,51,13.64,14-18Z" transform="translate(-77.91 -55.63)"/></g><g class="cls-4"><path class="cls-5" d="M471.1,350.53a.72.72,0,0,1-.48-.2L455,334.4a.65.65,0,0,1-.09-.82.67.67,0,0,1,.78-.28l23.23,7.82a.67.67,0,0,1,.44.47.7.7,0,0,1-.16.62l-7.61,8.11a.69.69,0,0,1-.48.21Zm-13.2-15.07,13.19,13.43,6.41-6.84Z" transform="translate(-77.91 -55.63)"/></g><g class="cls-4"><path class="cls-5" d="M225.7,277.8a.74.74,0,0,1-.25-.05l-8.38-3.5a.66.66,0,0,1-.16-1.14L232.07,261a.69.69,0,0,1,.83,0,.67.67,0,0,1,.2.8l-6.78,15.6A.68.68,0,0,1,225.7,277.8Zm-7.08-4.35,6.73,2.81,5.45-12.53Z" transform="translate(-77.91 -55.63)"/></g><g class="cls-4"><path class="cls-5" d="M182.77,254.88a.66.66,0,0,1-.64-.83l4.38-17.19a.64.64,0,0,1,.52-.49.66.66,0,0,1,.67.26l5.83,8.16a.68.68,0,0,1-.1.89l-10.21,9A.7.7,0,0,1,182.77,254.88Zm4.68-16.3L184,252.27l8.13-7.19Z" transform="translate(-77.91 -55.63)"/></g><g class="cls-4"><path class="cls-5" d="M173.7,230.41a.64.64,0,0,1-.38-.12.66.66,0,0,1-.28-.65l1.54-9.83a.68.68,0,0,1,.6-.56l18.18-1.62a.67.67,0,0,1,.4,1.25L174,230.32A.66.66,0,0,1,173.7,230.41Zm2.12-9.87-1.24,7.92,15.9-9.23Z" transform="translate(-77.91 -55.63)"/></g><g class="cls-4"><path class="cls-5" d="M187.15,237.69a.63.63,0,0,1-.32-.08l-13.45-7.28a.66.66,0,0,1-.34-.69l1.54-9.83a.7.7,0,0,1,.51-.55.67.67,0,0,1,.7.27l11.91,17.11a.66.66,0,0,1,0,.83A.68.68,0,0,1,187.15,237.69Zm-12.72-8.31L185,235.1l-9.35-13.44Z" transform="translate(-77.91 -55.63)"/></g><g class="cls-4"><path class="cls-5" d="M231.92,178.3a.67.67,0,0,1-.4-1.2l5.51-4.19a.62.62,0,0,1,.49-.13l14.59,1.93a.66.66,0,0,1,0,1.32L232,178.3Zm5.7-4.16-3.36,2.56,12.26-1.38Z" transform="translate(-77.91 -55.63)"/></g><g class="cls-4"><path class="cls-5" d="M256.24,210.1a.68.68,0,0,1-.59-.36l-18.81-36a.66.66,0,0,1,0-.69.65.65,0,0,1,.64-.28l14.59,1.93a.66.66,0,0,1,.57.58l4.23,34.05a.68.68,0,0,1-.47.73A.64.64,0,0,1,256.24,210.1Zm-17.62-35.83,16.51,31.58L251.42,176Z" transform="translate(-77.91 -55.63)"/></g><g class="cls-4"><path class="cls-5" d="M316.2,242.88a.52.52,0,0,1-.21,0l-32.82-10.75A.53.53,0,0,1,283,232l-27.13-22a.68.68,0,0,1-.13-.9.66.66,0,0,1,.87-.21l60,32.78a.67.67,0,0,1-.32,1.26Zm-32.5-12,25.81,8.45-47.15-25.77Z" transform="translate(-77.91 -55.63)"/></g><g class="cls-4"><path class="cls-5" d="M141,219.59h-.07l-8.76-.88a.67.67,0,0,1-.6-.72l1.07-13.2a.66.66,0,0,1,1.25-.26l7.69,14.07a.66.66,0,0,1,0,.69A.65.65,0,0,1,141,219.59Zm-8.05-2.15,6.85.69-6-11Z" transform="translate(-77.91 -55.63)"/></g><g class="cls-4"><path class="cls-5" d="M132.23,218.71a.72.72,0,0,1-.32-.08.67.67,0,0,1-.35-.64l1.07-13.2a.67.67,0,0,1,.67-.61h0l15.46.15a.66.66,0,0,1,.63.45.67.67,0,0,1-.22.74l-16.53,13A.7.7,0,0,1,132.23,218.71Zm1.68-13.19-.89,11,13.83-10.92Z" transform="translate(-77.91 -55.63)"/></g><g class="cls-4"><path class="cls-5" d="M91.09,249.85a.54.54,0,0,1-.22,0l-12.51-4.34a.66.66,0,0,1-.45-.66.68.68,0,0,1,.5-.62L94,240.27a.66.66,0,0,1,.66.21.66.66,0,0,1,.13.67l-3.05,8.26A.66.66,0,0,1,91.09,249.85Zm-10.18-4.91,9.77,3.4,2.39-6.46Z" transform="translate(-77.91 -55.63)"/></g><g class="cls-4"><path class="cls-5" d="M91.09,249.85a.54.54,0,0,1-.22,0l-12.51-4.34a.65.65,0,0,1-.42-.42.7.7,0,0,1,.08-.58l3.42-5.1a.66.66,0,0,1,1-.09l9.09,9.44a.68.68,0,0,1,.08.82A.67.67,0,0,1,91.09,249.85Zm-11.48-5.36,9.06,3.15-6.58-6.84Z" transform="translate(-77.91 -55.63)"/></g><g class="cls-4"><path class="cls-5" d="M119.34,218.12a.68.68,0,0,1-.45-.17.66.66,0,0,1-.22-.56l1.56-17.47a.66.66,0,0,1,.33-.51.67.67,0,0,1,.6,0l26.17,11.36a.67.67,0,0,1-.12,1.27l-27.73,6.1ZM121.48,201l-1.4,15.63,24.83-5.46Z" transform="translate(-77.91 -55.63)"/></g><g class="cls-4"><path class="cls-5" d="M186.45,195.17h-.07l-16-1.59a.66.66,0,0,1-.59-.57.65.65,0,0,1,.4-.71l13.2-5.59a.59.59,0,0,1,.52,0,.67.67,0,0,1,.37.37l2.78,7.18a.66.66,0,0,1-.09.65A.65.65,0,0,1,186.45,195.17Zm-13.32-2.67,12.3,1.22-2.14-5.52Z" transform="translate(-77.91 -55.63)"/></g><g class="cls-4"><path class="cls-5" d="M580,226.22a.62.62,0,0,1-.23,0,.66.66,0,0,1-.44-.55l-1.65-14.38a.67.67,0,0,1,.51-.73l20.88-4.66a.67.67,0,0,1,.74.33.68.68,0,0,1-.12.8L580.5,226A.7.7,0,0,1,580,226.22Zm-.93-14.52,1.43,12.41,16.6-16.44Z" transform="translate(-77.91 -55.63)"/></g><g class="cls-4"><path class="cls-5" d="M591.47,186.82a.68.68,0,0,1-.62-.4l-8.22-18.78a.62.62,0,0,1,0-.55.65.65,0,0,1,.43-.36l12-3.25a.69.69,0,0,1,.63.15.68.68,0,0,1,.21.61l-3.81,22a.66.66,0,0,1-.57.55Zm-7.31-19,7,16,3.24-18.79Z" transform="translate(-77.91 -55.63)"/></g><g class="cls-4"><path class="cls-5" d="M563.91,198a.69.69,0,0,1-.2,0,.65.65,0,0,1-.47-.65l.89-35.17a.73.73,0,0,1,.27-.53.67.67,0,0,1,.58-.1l18.44,5.18a.68.68,0,0,1,.45.41.67.67,0,0,1-.07.6l-19.33,30A.68.68,0,0,1,563.91,198Zm1.54-35L564.64,195l17.55-27.23Z" transform="translate(-77.91 -55.63)"/></g><g class="cls-4"><path class="cls-5" d="M623.69,176.87a.67.67,0,0,1-.41-.13l-8.43-6.46a.67.67,0,0,1-.26-.62.69.69,0,0,1,.43-.53l12.27-4.72a.67.67,0,0,1,.87.84l-3.84,11.17a.66.66,0,0,1-.44.42A.63.63,0,0,1,623.69,176.87ZM616.61,170l6.75,5.16,3.07-8.94Z" transform="translate(-77.91 -55.63)"/></g><g class="cls-4"><path class="cls-5" d="M611.35,228.39a.66.66,0,0,1-.3-.07l-33-16.55a.67.67,0,0,1,.15-1.25l20.88-4.66a.69.69,0,0,1,.73.32l12.1,21.21a.67.67,0,0,1-.58,1Zm-31-17,29.33,14.71-10.77-18.86Z" transform="translate(-77.91 -55.63)"/></g><g class="cls-4"><path class="cls-5" d="M675.7,217.87a.65.65,0,0,1-.36-.1.66.66,0,0,1-.31-.56l0-5.89a.65.65,0,0,1,.23-.51.66.66,0,0,1,.55-.15l9.43,1.61a.68.68,0,0,1,.55.58.67.67,0,0,1-.39.69L676,217.81A.71.71,0,0,1,675.7,217.87Zm.63-5.76,0,4.06,6.47-2.95Z" transform="translate(-77.91 -55.63)"/></g><g class="cls-4"><path class="cls-5" d="M718.61,214.18a.73.73,0,0,1-.4-.13.69.69,0,0,1-.26-.66l1.94-10.94a.63.63,0,0,1,.31-.45.64.64,0,0,1,.54-.07l12,3.75a.65.65,0,0,1,.46.58.64.64,0,0,1-.36.65l-14,7.19A.71.71,0,0,1,718.61,214.18Zm2.46-10.75-1.57,8.87,11.33-5.83Z" transform="translate(-77.91 -55.63)"/></g><g class="cls-4"><path class="cls-5" d="M741.89,152.08a.65.65,0,0,1-.44-.16.66.66,0,0,1-.15-.82l7.35-13.57a.67.67,0,0,1,.73-.33.65.65,0,0,1,.52.6l.66,7.83a.68.68,0,0,1-.28.6l-8,5.73A.71.71,0,0,1,741.89,152.08Zm6.87-11.94-4.9,9,5.33-3.82Z" transform="translate(-77.91 -55.63)"/></g><g class="cls-4"><path class="cls-5" d="M685.08,213.6H685a.66.66,0,0,1-.5-.41l-10.23-26.06a.68.68,0,0,1,.14-.71.67.67,0,0,1,.71-.17l25.82,9.16a.68.68,0,0,1,.43.47.69.69,0,0,1-.16.61l-15.6,16.9A.64.64,0,0,1,685.08,213.6ZM676,188l9.3,23.7,14.19-15.37Z" transform="translate(-77.91 -55.63)"/></g><g class="cls-4"><path class="cls-5" d="M740.45,236.19a.65.65,0,0,1-.27-.05l-19.88-8.56a.67.67,0,0,1-.4-.72.68.68,0,0,1,.6-.56l16.66-1.49a.66.66,0,0,1,.7.46l3.22,10a.68.68,0,0,1-.18.7A.7.7,0,0,1,740.45,236.19Zm-17.2-8.79,16.11,6.93-2.61-8.14Z" transform="translate(-77.91 -55.63)"/></g><g class="cls-4"><path class="cls-5" d="M619.28,154.38a.67.67,0,0,1-.55-.28l-15-21a.67.67,0,0,1,.72-1l19.13,5.19a.68.68,0,0,1,.47.82l-4.14,15.79a.67.67,0,0,1-.52.49Zm-13.37-20.52L619,152.16l3.61-13.77Z" transform="translate(-77.91 -55.63)"/></g><g class="cls-4"><path class="cls-5" d="M741.89,152.08h-.16l-12.49-3a.66.66,0,0,1-.51-.69.65.65,0,0,1,.58-.62L749.8,145a.66.66,0,0,1,.71.42.67.67,0,0,1-.23.79l-8,5.73A.69.69,0,0,1,741.89,152.08Zm-8.86-3.5,8.72,2.11,5.58-4Z" transform="translate(-77.91 -55.63)"/></g><g class="cls-4"><path class="cls-5" d="M771.63,190.45a.7.7,0,0,1-.53-.26.68.68,0,0,1,0-.83L779.57,179a.67.67,0,0,1,.69-.22.66.66,0,0,1,.49.55l.9,6.12a.65.65,0,0,1-.38.7l-9.36,4.25A.71.71,0,0,1,771.63,190.45Zm8-9.44-5.7,7,6.31-2.86Z" transform="translate(-77.91 -55.63)"/></g><g class="cls-4"><path class="cls-5" d="M720.55,203.24a.72.72,0,0,1-.32-.08L714,199.8a.67.67,0,0,1,.24-1.25l9.45-1a.64.64,0,0,1,.65.33.65.65,0,0,1,0,.72l-3.2,4.39A.68.68,0,0,1,720.55,203.24Zm-4-3.6,3.84,2.06,2-2.69Z" transform="translate(-77.91 -55.63)"/></g><g class="cls-4"><path class="cls-5" d="M520.06,221.56h0l-42.37-2.44a.68.68,0,0,1-.44-1.15l30.38-30.28a.71.71,0,0,1,.62-.18.65.65,0,0,1,.48.43l12,32.72a.67.67,0,0,1-.62.9Zm-40.85-3.69,39.87,2.3L507.8,189.38Z" transform="translate(-77.91 -55.63)"/></g><g class="cls-4"><path class="cls-5" d="M540.81,306.43a.65.65,0,0,1-.46-.19.67.67,0,0,1-.12-.81l39.3-69.35a.67.67,0,0,1,1.25.42L574.51,285a.63.63,0,0,1-.3.48l-33,20.85A.65.65,0,0,1,540.81,306.43ZM579,239.71l-36.3,64.07,30.52-19.26Z" transform="translate(-77.91 -55.63)"/></g><g class="cls-4"><path class="cls-5" d="M512.26,378.41a.62.62,0,0,1-.37-.11.66.66,0,0,1-.25-.8l28.55-72a.67.67,0,0,1,1.29.34l-6.81,50.79a.64.64,0,0,1-.2.39l-21.74,21.19A.66.66,0,0,1,512.26,378.41Zm27.17-67.34-25.39,64,19.34-18.84ZM534,356.55h0Z" transform="translate(-77.91 -55.63)"/></g><g class="cls-4"><path class="cls-5" d="M409.67,303a.63.63,0,0,1-.33-.09l-48.53-27.32a.67.67,0,0,1,.19-1.24l32.85-6.89a.67.67,0,0,1,.75.37L410.27,302a.65.65,0,0,1-.15.77A.66.66,0,0,1,409.67,303ZM363,275.26,408.2,300.7l-14.59-31.86Z" transform="translate(-77.91 -55.63)"/></g><g class="cls-4"><path class="cls-5" d="M409.67,303a.67.67,0,0,1-.61-.39l-15.68-34.22a.66.66,0,0,1,.12-.72l28-31a.66.66,0,0,1,.79-.16.68.68,0,0,1,.36.73l-12.29,65.26a.65.65,0,0,1-.57.54Zm-14.89-34.77L409.4,300.1l11.45-60.86Z" transform="translate(-77.91 -55.63)"/></g><g class="cls-4"><path class="cls-5" d="M278.7,282.53a.66.66,0,0,1-.52-.24L246.56,244a.67.67,0,0,1-.13-.61.69.69,0,0,1,.43-.45l36.3-12.15a.68.68,0,0,1,.63.11.67.67,0,0,1,.25.59l-4.68,50.41a.65.65,0,0,1-.47.57A.63.63,0,0,1,278.7,282.53Zm-30.49-38.6,30,36.26,4.43-47.77Z" transform="translate(-77.91 -55.63)"/></g><g class="cls-4"><path class="cls-5" d="M255,352.8a.69.69,0,0,1-.62-.42l-19.91-48.57a.68.68,0,0,1,.33-.86l43.64-21.68a.66.66,0,0,1,.93.81L255.6,352.34a.68.68,0,0,1-.62.46Zm-19.05-48.92,19,46.34,22.65-67Z" transform="translate(-77.91 -55.63)"/></g><g class="cls-4"><path class="cls-5" d="M319.18,328.41h0l-50.58-2.51a.65.65,0,0,1-.61-.81l10.09-43.38a.65.65,0,0,1,.48-.49.68.68,0,0,1,.67.2l40.48,45.88a.65.65,0,0,1,.1.73A.65.65,0,0,1,319.18,328.41Zm-49.74-3.8L317.63,327l-38.58-43.72Z" transform="translate(-77.91 -55.63)"/></g><g class="cls-4"><path class="cls-5" d="M503.76,286.67a.76.76,0,0,1-.21,0l-64.09-21.57a.67.67,0,0,1,.3-1.3l51.61,6.65a.67.67,0,0,1,.43.24l12.47,14.92a.66.66,0,0,1-.51,1.09ZM446.32,266l55.41,18.65-10.79-12.9Z" transform="translate(-77.91 -55.63)"/></g><g class="cls-4"><path class="cls-5" d="M478.7,342.42a.69.69,0,0,1-.2,0,.66.66,0,0,1-.46-.75L490.63,271a.65.65,0,0,1,.48-.53.67.67,0,0,1,.69.22l12.47,14.92a.64.64,0,0,1,.1.7L479.31,342A.68.68,0,0,1,478.7,342.42Zm13-69.81L480.3,336.55,503,286.11Z" transform="translate(-77.91 -55.63)"/></g><g class="cls-4"><path class="cls-5" d="M491.28,271.75a.67.67,0,0,1-.52-.25.68.68,0,0,1-.06-.75l28.78-50.19a.66.66,0,0,1,1.08-.1l28.37,32.84a.68.68,0,0,1,.14.63.68.68,0,0,1-.45.45l-57.14,17.35ZM520.17,222,492.7,270l54.55-16.56Z" transform="translate(-77.91 -55.63)"/></g><g class="cls-4"><path class="cls-5" d="M347.85,341.51a.67.67,0,0,1-.55-.28.68.68,0,0,1,0-.7l10-18.74a.66.66,0,0,1,.8-.32.67.67,0,0,1,.46.72L356,339.74a.67.67,0,0,1-.56.56l-7.5,1.2Zm8.77-15.75L349.07,340l5.68-.91Zm-1.28,13.88h0Z" transform="translate(-77.91 -55.63)"/></g><path class="cls-5" d="M379.42,428.18h-.13l-19.57-3.67a.68.68,0,0,1-.55-.65.67.67,0,0,1,.52-.66l22.13-5.06a.68.68,0,0,1,.64.2.66.66,0,0,1,.15.64l-2.55,8.73A.67.67,0,0,1,379.42,428.18Zm-16.3-4.41,15.82,3,2.07-7.05Z" transform="translate(-77.91 -55.63)"/><g class="cls-4"><path class="cls-5" d="M336.75,358.44a.68.68,0,0,1-.57-.31l-5.47-8.57a.68.68,0,0,1,0-.79.69.69,0,0,1,.76-.2l12.24,4.78a.66.66,0,0,1,.08,1.2l-6.76,3.8A.62.62,0,0,1,336.75,358.44Zm-3.81-7.88,4,6.31" transform="translate(-77.91 -55.63)"/></g><g class="cls-4"><path class="cls-5" d="M430.56,363.4a.67.67,0,0,1-.46-.18l-7.41-6.84a.65.65,0,0,1-.2-.63L425.55,341a.68.68,0,0,1,.66-.54h0a.66.66,0,0,1,.65.54l4.35,21.59a.65.65,0,0,1-.33.71A.62.62,0,0,1,430.56,363.4Zm-6.69-7.75,5.62,5.19-3.29-16.37Z" transform="translate(-77.91 -55.63)"/></g><g class="cls-4"><path class="cls-5" d="M438.16,369.86a.62.62,0,0,1-.43-.16l-7.61-6.46a.68.68,0,0,1-.07-.95L455,333.5a.65.65,0,0,1,.87-.12.66.66,0,0,1,.23.85l-17.3,35.26a.67.67,0,0,1-.46.36Zm-6.66-7.2,6.44,5.47,14.64-29.84Z" transform="translate(-77.91 -55.63)"/></g><g class="cls-4"><path class="cls-5" d="M316.2,242.88a.67.67,0,0,1-.34-1.25l51.81-30.41a.68.68,0,0,1,.62,0l53.95,25.23a.67.67,0,0,1-.25,1.27l-105.76,5.19ZM368,212.55l-49.16,28.86,100.35-4.92Z" transform="translate(-77.91 -55.63)"/></g><g class="cls-4"><path class="cls-5" d="M235.05,304.22a.71.71,0,0,1-.28-.06.7.7,0,0,1-.37-.45l-12-49.35a.67.67,0,0,1,.23-.68.66.66,0,0,1,.72-.08L279,281.27a.66.66,0,0,1,0,1.19l-43.65,21.69A.63.63,0,0,1,235.05,304.22Zm-11-48.78,11.45,47.14,41.7-20.72Z" transform="translate(-77.91 -55.63)"/></g><g class="cls-4"><path class="cls-5" d="M549.21,337.71l-.15,0a.65.65,0,0,1-.52-.64l-.78-83.3a.67.67,0,0,1,.44-.64.69.69,0,0,1,.75.21l25.42,31.18a.66.66,0,0,1,.09.7l-24.65,52.13A.67.67,0,0,1,549.21,337.71Zm-.1-82.07.74,78.48L573.07,285Z" transform="translate(-77.91 -55.63)"/></g><g class="cls-4"><path class="cls-5" d="M447.76,259.09a.7.7,0,0,1-.37-.11l-13-8.68a.66.66,0,0,1-.29-.61.68.68,0,0,1,.39-.56l15.08-6.77a.67.67,0,0,1,.67.08.63.63,0,0,1,.26.62l-2,15.45a.65.65,0,0,1-.38.52A.71.71,0,0,1,447.76,259.09Zm-11.66-9.23,11.14,7.41L449,244.08Z" transform="translate(-77.91 -55.63)"/></g><g class="cls-4"><path class="cls-5" d="M475.15,189.16a.61.61,0,0,1-.44-.17l-21.27-19.08a.67.67,0,0,1,.35-1.16l16.92-2.5a.65.65,0,0,1,.75.53l4.35,21.58a.67.67,0,0,1-.32.72A.81.81,0,0,1,475.15,189.16Zm-19.76-19.29,18.71,16.78-3.82-19Z" transform="translate(-77.91 -55.63)"/></g><g class="cls-4"><path class="cls-5" d="M449.11,140.74a.7.7,0,0,1-.57-.3l-5.47-8.58a.65.65,0,0,1,.05-.78.67.67,0,0,1,.75-.2l12.24,4.78a.66.66,0,0,1,.08,1.2l-6.76,3.8A.61.61,0,0,1,449.11,140.74Zm-3.81-7.87,4,6.31,5-2.79Z" transform="translate(-77.91 -55.63)"/></g><g class="cls-4"><path class="cls-5" d="M455.87,137a.64.64,0,0,1-.35-.1.66.66,0,0,1-.3-.73l15.68-65a.68.68,0,0,1,.61-.51.69.69,0,0,1,.67.44l14.21,39.14a.69.69,0,0,1-.19.74l-29.9,25.89A.69.69,0,0,1,455.87,137Zm15.81-63.38L457,134.41l28-24.22Z" transform="translate(-77.91 -55.63)"/></g><g class="cls-4"><path class="cls-5" d="M301.9,161.49l-.21,0a.63.63,0,0,1-.4-.35l-14.37-31.17a.67.67,0,0,1,.9-.88l37.19,18a.68.68,0,0,1,.38.58.7.7,0,0,1-.34.61L302.23,161.4A.66.66,0,0,1,301.9,161.49Zm-13-30.41,13.28,28.8,21.09-12.14Z" transform="translate(-77.91 -55.63)"/></g><g class="cls-4"><path class="cls-5" d="M312.79,94.18h0l-20.51-.29a.67.67,0,0,1-.35-1.23l15-9.51a.66.66,0,0,1,.94.23l5.54,9.8a.67.67,0,0,1,0,.67A.65.65,0,0,1,312.79,94.18Zm-18.26-1.59,17.1.24L307,84.65Z" transform="translate(-77.91 -55.63)"/></g><g class="cls-4"><path class="cls-5" d="M375,149.19a.68.68,0,0,1-.62-.4l-13.53-31.74a.67.67,0,0,1,.1-.69.69.69,0,0,1,.66-.23l22.1,5a.7.7,0,0,1,.43.32.64.64,0,0,1,.06.54l-8.57,26.71a.64.64,0,0,1-.6.46Zm-12.41-31.46,12.32,28.88,7.79-24.3Z" transform="translate(-77.91 -55.63)"/></g><g class="cls-4"><path class="cls-5" d="M429.67,63.75a.68.68,0,0,1-.31-.08l-10.11-5.22a.66.66,0,0,1-.33-.79.68.68,0,0,1,.73-.46l16.81,2.28a.67.67,0,0,1,.57.57.68.68,0,0,1-.39.71l-6.71,2.93A.58.58,0,0,1,429.67,63.75ZM423.31,59l6.38,3.3,4.23-1.85Z" transform="translate(-77.91 -55.63)"/></g><g class="cls-4"><path class="cls-5" d="M421.48,195a.66.66,0,0,1-.36-.11l-16.94-11.1a.67.67,0,0,1,.41-1.23L427.21,184a.67.67,0,0,1,.54.36.66.66,0,0,1,0,.65l-5.68,9.66a.69.69,0,0,1-.43.31ZM407,184l14.23,9.32,4.78-8.11Z" transform="translate(-77.91 -55.63)"/></g><g class="cls-4"><path class="cls-5" d="M330,190.38a.63.63,0,0,1-.37-.12l-15-10.19a.67.67,0,0,1,.26-1.21l29.72-5.59a.66.66,0,0,1,.61,1.11l-14.71,15.79A.67.67,0,0,1,330,190.38Zm-13.29-10.5,13.19,9L342.85,175Z" transform="translate(-77.91 -55.63)"/></g><g class="cls-4"><path class="cls-5" d="M283.38,232.12a.58.58,0,0,1-.26-.05.66.66,0,0,1-.4-.75l7.92-36.69a.67.67,0,0,1,.56-.52L309,191.73a.67.67,0,0,1,.65,1l-25.76,39.06A.64.64,0,0,1,283.38,232.12Zm8.47-36.75-7.07,32.74,23-34.86Z" transform="translate(-77.91 -55.63)"/></g><g class="cls-4"><path class="cls-5" d="M439.68,265.1a.7.7,0,0,1-.43-.15.68.68,0,0,1-.18-.8l10.13-21.46a.66.66,0,0,1,1.26.37l-2,15.45a.67.67,0,0,1-.26.45l-8.08,6A.66.66,0,0,1,439.68,265.1Zm8.9-18-7.16,15.16,5.71-4.24Z" transform="translate(-77.91 -55.63)"/></g><g class="cls-4"><path class="cls-5" d="M397.61,158.07a.69.69,0,0,1-.24,0l-22.62-8.87a.69.69,0,0,1-.37-.36l-13.53-31.74a.67.67,0,0,1,1.11-.71L398.11,157a.66.66,0,0,1,.05.83A.69.69,0,0,1,397.61,158.07ZM375.5,148l19.75,7.74-31.57-35.47Z" transform="translate(-77.91 -55.63)"/></g><g class="cls-4"><path class="cls-5" d="M309.13,193.06a.65.65,0,0,1-.46-.18.66.66,0,0,1-.15-.76l5.88-12.88a.66.66,0,0,1,.49-.38l29.72-5.59a.66.66,0,0,1,.75.44.67.67,0,0,1-.32.81L309.44,193A.7.7,0,0,1,309.13,193.06Zm6.34-12.95-4.93,10.8,29.85-15.49Z" transform="translate(-77.91 -55.63)"/></g><g class="cls-4"><path class="cls-5" d="M330,190.38a.69.69,0,0,1-.2,0,.67.67,0,0,1-.46-.56l-5.31-42a.67.67,0,0,1,1.2-.49l20,26.24a.67.67,0,0,1,0,.86l-14.71,15.79A.69.69,0,0,1,330,190.38Zm-4.33-40.31,4.82,38.14,13.35-14.33Z" transform="translate(-77.91 -55.63)"/></g><g class="cls-4"><path class="cls-5" d="M324.72,148.35a.66.66,0,0,1-.57-.31.67.67,0,0,1,.14-.87L361,116.27a.71.71,0,0,1,.58-.14l22.1,5a.68.68,0,0,1,.52.59.67.67,0,0,1-.4.68L325,148.3A.65.65,0,0,1,324.72,148.35Zm36.92-30.84L328.71,145.2,381.44,122Z" transform="translate(-77.91 -55.63)"/></g><g class="cls-4"><path class="cls-5" d="M414.36,112.18h0l-18.68-1a.68.68,0,0,1-.51-.28.65.65,0,0,1-.1-.57L400.42,91a.66.66,0,0,1,.54-.49.68.68,0,0,1,.66.3l13.3,20.34a.66.66,0,0,1,0,.7A.67.67,0,0,1,414.36,112.18Zm-17.81-2.25,16.53.84-11.77-18Z" transform="translate(-77.91 -55.63)"/></g><g class="cls-4"><path class="cls-5" d="M342.81,403.82a.72.72,0,0,1-.43-.16l-4.64-3.84a.67.67,0,0,1-.19-.78l4-9.34a.67.67,0,0,1,1.28.23l.69,13.18a.68.68,0,0,1-.37.64A.78.78,0,0,1,342.81,403.82ZM339,399.11l3.09,2.55-.45-8.77Z" transform="translate(-77.91 -55.63)"/></g><g class="cls-4"><path class="cls-5" d="M274,363a.65.65,0,0,1-.55-.3L234.5,303.92a.65.65,0,0,1,.08-.84.68.68,0,0,1,.84-.09L269,324.68a.67.67,0,0,1,.3.46l5.38,37.07a.66.66,0,0,1-.42.72A.69.69,0,0,1,274,363Zm-36.61-57.13,35.52,53.6L268,325.63Z" transform="translate(-77.91 -55.63)"/></g><g class="cls-4"><path class="cls-5" d="M529.8,307.93a.7.7,0,0,1-.43-.15l-26-21.26a.38.38,0,0,1-.09-.09l-12.48-14.92a.66.66,0,0,1,.06-.91.67.67,0,0,1,.91,0l38.51,36.17a.66.66,0,0,1,0,.93A.67.67,0,0,1,529.8,307.93Zm-25.57-22.4,11.07,9-16.37-15.39Z" transform="translate(-77.91 -55.63)"/></g><g class="cls-4"><path class="cls-5" d="M549.21,337.71a.67.67,0,0,1-.56-.3l-19.41-29.78a.66.66,0,0,1,0-.65.65.65,0,0,1,.52-.38l11-1.5a.67.67,0,0,1,.74.49l8.39,31.28a.67.67,0,0,1-.64.84Zm-18.28-29.93,16.54,25.38-7.15-26.66Z" transform="translate(-77.91 -55.63)"/></g><g class="cls-4"><path class="cls-5" d="M250.19,140.54a.68.68,0,0,1-.57-.3.68.68,0,0,1,0-.79l27.63-33.57a.64.64,0,0,1,.61-.24.68.68,0,0,1,.52.41l9.72,23.35a.68.68,0,0,1,0,.56.67.67,0,0,1-.42.35l-37.35,10.21A.52.52,0,0,1,250.19,140.54Zm27.43-32.95L252,138.67l34.58-9.45Z" transform="translate(-77.91 -55.63)"/></g><g class="cls-4"><path class="cls-5" d="M423.14,356.55a.65.65,0,0,1-.49-.21.64.64,0,0,1-.16-.59L425.55,341a.67.67,0,0,1,.79-.52l44.88,8.71a.67.67,0,0,1,0,1.32l-48,6Zm3.59-14.63L424,355.1l42.87-5.38Z" transform="translate(-77.91 -55.63)"/></g><g class="cls-4"><path class="cls-5" d="M394,268.74h-.1a.63.63,0,0,1-.5-.38l-26-56.27a.69.69,0,0,1,.13-.76.67.67,0,0,1,.76-.13l53.95,25.23a.66.66,0,0,1,.37.47.68.68,0,0,1-.16.58l-28,31A.68.68,0,0,1,394,268.74Zm-24.61-55.56,24.79,53.69,26.68-29.62Z" transform="translate(-77.91 -55.63)"/></g><g class="cls-4"><path class="cls-5" d="M394,268.74a.68.68,0,0,1-.54-.27.66.66,0,0,1,.05-.84l28-31a.62.62,0,0,1,.47-.22.63.63,0,0,1,.49.19l12.78,12.72a.67.67,0,0,1,.18.59.66.66,0,0,1-.38.49l-40.73,18.33A.71.71,0,0,1,394,268.74ZM422,238l-25.36,28.17,36.95-16.63Z" transform="translate(-77.91 -55.63)"/></g><g class="cls-4"><path class="cls-5" d="M548.43,254.41a.67.67,0,0,1-.45-1.17l31.6-28.19a.68.68,0,0,1,.72-.11.66.66,0,0,1,.39.61l.09,10.86a.67.67,0,0,1-.35.59l-31.68,17.33A.72.72,0,0,1,548.43,254.41ZM579.37,227l-26.14,23.32L579.44,236Z" transform="translate(-77.91 -55.63)"/></g><g class="cls-4"><path class="cls-5" d="M573.85,285.59h-.08a.66.66,0,0,1-.58-.73l6.17-59.37a.69.69,0,0,1,.7-.6.67.67,0,0,1,.63.67l.09,10.86v.09L574.51,285A.67.67,0,0,1,573.85,285.59Z" transform="translate(-77.91 -55.63)"/></g><g class="cls-4"><path class="cls-5" d="M268.61,325.91a.72.72,0,0,1-.37-.11l-33.55-21.69a.67.67,0,0,1-.27-.33l-2.84-7.95a.69.69,0,0,1,.24-.78.68.68,0,0,1,.81,0L269,324.72a.67.67,0,0,1,.12.91A.68.68,0,0,1,268.61,325.91Zm-33-22.8,23.13,14.95-25.09-20.43Z" transform="translate(-77.91 -55.63)"/></g><g class="cls-4"><path class="cls-5" d="M225.53,197.51a.58.58,0,0,1-.26,0,.67.67,0,0,1-.38-.83l6.4-19.21a.62.62,0,0,1,.23-.32l5.51-4.19a.65.65,0,0,1,.83,0,.66.66,0,0,1,.17.81l-11.91,23.41A.66.66,0,0,1,225.53,197.51Zm7-19.47L229,188.56l6.52-12.82Z" transform="translate(-77.91 -55.63)"/></g><g class="cls-4"><path class="cls-5" d="M252,176h-.1a.67.67,0,0,1-.57-.63l-1.83-35.49a.64.64,0,0,1,.15-.46l27.63-33.57a.66.66,0,0,1,.85-.15.67.67,0,0,1,.29.81l-25.8,69.06A.65.65,0,0,1,252,176Zm-1.15-35.94,1.65,32,23.27-62.3Z" transform="translate(-77.91 -55.63)"/></g><g class="cls-4"><path class="cls-5" d="M564.8,162.86a.68.68,0,0,1-.54-.27l-44.8-60.32a.67.67,0,0,1,1-.87l31,31.56a.57.57,0,0,1,.12.18L565.4,161.9a.68.68,0,0,1-.25.87A.73.73,0,0,1,564.8,162.86Zm-38.47-53.59,34.85,46.92-10.75-22.37Z" transform="translate(-77.91 -55.63)"/></g><g class="cls-4"><path class="cls-5" d="M322.25,389.85a.67.67,0,0,1-.39-.12l-37.29-27.06a.67.67,0,0,1,.71-1.13l19,10.18.14.1,18.25,16.87a.68.68,0,0,1,.07.92A.69.69,0,0,1,322.25,389.85Zm-29-22.52L313.51,382l-9.91-9.16Z" transform="translate(-77.91 -55.63)"/></g><g class="cls-4"><path class="cls-5" d="M502.86,411.38a.67.67,0,0,1-.39-1.21L563.62,366a.67.67,0,0,1,.9.11.66.66,0,0,1,0,.91l-21.74,21.19-.13.1-39.4,23A.69.69,0,0,1,502.86,411.38Zm54.18-39-42.7,30.84,27.51-16Z" transform="translate(-77.91 -55.63)"/></g><g class="cls-4"><path class="cls-5" d="M278.7,282.53a.66.66,0,0,1-.49-1.12l37.5-39.66a.79.79,0,0,1,.15-.12l51.81-30.41a.67.67,0,0,1,.75,1.1l-89.31,70.07A.64.64,0,0,1,278.7,282.53Zm37.92-39.79-31.24,33,74.4-58.37Z" transform="translate(-77.91 -55.63)"/></g><g class="cls-4"><path class="cls-5" d="M368,212.46a.73.73,0,0,1-.35-.09l-53-32.28a.67.67,0,0,1,.23-1.23l29.72-5.59a.66.66,0,0,1,.69.3l23.28,37.88a.67.67,0,0,1-.1.82A.66.66,0,0,1,368,212.46Zm-51.17-32.61L366,209.78,344.4,174.67Z" transform="translate(-77.91 -55.63)"/></g><g class="cls-4"><path class="cls-5" d="M344.73,174.59a.68.68,0,0,1-.55-.28.69.69,0,0,1,0-.79L383,121.42a.65.65,0,0,1,.62-.27.67.67,0,0,1,.54.42l14,35.58a.68.68,0,0,1,0,.54.65.65,0,0,1-.4.34l-52.88,16.53A.69.69,0,0,1,344.73,174.59Zm38.65-51.41L346.5,172.67,396.72,157Z" transform="translate(-77.91 -55.63)"/></g><g class="cls-4"><path class="cls-5" d="M375,149.19a.65.65,0,0,1-.49-.21.67.67,0,0,1-.15-.66l8.57-26.71a.66.66,0,0,1,.74-.45l60.07,9.69a.66.66,0,0,1,.05,1.3l-68.63,17A.47.47,0,0,1,375,149.19Zm9-26.62-8,25,64.29-16Z" transform="translate(-77.91 -55.63)"/></g><g class="cls-4"><path class="cls-5" d="M368,212.46a.66.66,0,0,1-.57-.31l-23.28-37.88a.67.67,0,0,1,.14-.86L374.57,148a.67.67,0,0,1,.74-.07.66.66,0,0,1,.35.66l-7,63.27a.67.67,0,0,1-.52.58Zm-22.41-38.4,22,35.73,6.59-59.68Z" transform="translate(-77.91 -55.63)"/></g><g class="cls-4"><path class="cls-5" d="M344.73,174.59a.64.64,0,0,1-.41-.14l-57.2-44.26a.67.67,0,0,1,.7-1.13l37.19,18a.78.78,0,0,1,.24.2l20,26.24a.66.66,0,0,1-.53,1.07ZM293,133.07l48.08,37.2-16.82-22.05Z" transform="translate(-77.91 -55.63)"/></g><g class="cls-4"><path class="cls-5" d="M287.53,130.33l-.18,0a.67.67,0,0,1-.48-.73l4.75-36.44a.71.71,0,0,1,.3-.48l15-9.51a.66.66,0,0,1,.79,0,.68.68,0,0,1,.18.78l-19.71,46A.68.68,0,0,1,287.53,130.33Zm5.38-36.71L288.82,125l17-39.53Z" transform="translate(-77.91 -55.63)"/></g><g class="cls-4"><path class="cls-5" d="M343.1,67.49a.67.67,0,0,1-.12-1.33l56.15-10.52h.17l20.31,1.56a.68.68,0,0,1,.62.65.67.67,0,0,1-.59.68l-76.46,9ZM399.29,57l-36.9,6.91L412.63,58Z" transform="translate(-77.91 -55.63)"/></g><g class="cls-4"><path class="cls-5" d="M256.24,210.1h0a.67.67,0,0,1-.62-.61l-6.06-69.55a.66.66,0,0,1,.42-.67.68.68,0,0,1,.77.19L267.38,160a.7.7,0,0,1,.13.56l-10.61,49A.67.67,0,0,1,256.24,210.1ZM251,142l5.49,63,9.6-44.36Z" transform="translate(-77.91 -55.63)"/></g><g class="cls-4"><path class="cls-5" d="M551,134.1a.85.85,0,0,1-.22,0l-65.22-23a.67.67,0,0,1,.06-1.28l34.23-8.52a.65.65,0,0,1,.64.18l31,31.56a.68.68,0,0,1,.09.83A.69.69,0,0,1,551,134.1Zm-62.9-23.6,60.4,21.34-28.69-29.23Z" transform="translate(-77.91 -55.63)"/></g><g class="cls-4"><path class="cls-5" d="M470.14,197a.68.68,0,0,1-.2,0,.67.67,0,0,1-.47-.66l.67-29.41a.67.67,0,0,1,.61-.65.68.68,0,0,1,.71.54l4.35,21.58a.73.73,0,0,1-.09.5l-5,7.82A.68.68,0,0,1,470.14,197Zm1.2-24-.48,21,3.59-5.59Z" transform="translate(-77.91 -55.63)"/></g><g class="cls-4"><path class="cls-5" d="M470.14,197a.63.63,0,0,1-.67-.68l.67-29.41a.67.67,0,0,1,.28-.53l33.06-23.59a.67.67,0,0,1,.95.9l-33.73,53A.67.67,0,0,1,470.14,197Zm1.33-29.72-.61,26.67,30.6-48.08Z" transform="translate(-77.91 -55.63)"/></g><g class="cls-4"><path class="cls-5" d="M520.06,221.56a.72.72,0,0,1-.4-.12l-45-32.52a.67.67,0,0,1-.24-.75.67.67,0,0,1,.63-.46l33-.21a.66.66,0,0,1,.63.44l12,32.72a.68.68,0,0,1-.22.77A.66.66,0,0,1,520.06,221.56Zm-43-32.53,41.61,30L507.6,188.84Z" transform="translate(-77.91 -55.63)"/></g><g class="cls-4"><path class="cls-5" d="M412,368.55a.25.25,0,0,1-.17-.08.21.21,0,0,1,0-.27l2-2.88a.22.22,0,0,1,.18-.1h3.13a.23.23,0,0,1,.22.17.22.22,0,0,1-.11.25l-5.16,2.88A.23.23,0,0,1,412,368.55Zm2.15-2.88-1.41,2,3.57-2Z" transform="translate(-77.91 -55.63)"/></g><g class="cls-4"><path class="cls-5" d="M419.38,370.13a.22.22,0,0,1-.2-.13L417,365.55a.22.22,0,0,1,0-.21.24.24,0,0,1,.17-.12l2.81-.29a.21.21,0,0,1,.18.06.22.22,0,0,1,.06.19l-.59,4.75a.21.21,0,0,1-.18.19Zm-1.87-4.5,1.74,3.51.47-3.74Z" transform="translate(-77.91 -55.63)"/></g><g class="cls-4"><path class="cls-5" d="M422,368.22a.21.21,0,0,1-.18-.09l-2.07-2.85a.22.22,0,0,1,0-.28.22.22,0,0,1,.28,0l3.81,2.49a.21.21,0,0,1,.1.23.24.24,0,0,1-.17.18l-1.75.36ZM420.86,366l1.27,1.75,1.08-.22Z" transform="translate(-77.91 -55.63)"/></g><path class="cls-5" d="M411.65,372.87a.2.2,0,0,1-.15-.06.22.22,0,0,1-.07-.18l.35-4.32a.22.22,0,0,1,.14-.2.26.26,0,0,1,.24.06l3.55,3.76a.27.27,0,0,1,.05.23.25.25,0,0,1-.18.15l-3.9.55Zm.53-4-.28,3.54,3.19-.45Z" transform="translate(-77.91 -55.63)"/><g class="cls-4"><path class="cls-5" d="M415.55,372.31a.24.24,0,0,1-.14-.05.22.22,0,0,1-.08-.23l1.62-6.64a.21.21,0,0,1,.19-.16.2.2,0,0,1,.22.12l2.22,4.45a.24.24,0,0,1-.09.3l-3.83,2.18Zm1.69-6.22-1.36,5.55,3.2-1.83Z" transform="translate(-77.91 -55.63)"/></g><path class="cls-5" d="M424.48,373.9h0l-3.52-.63a.21.21,0,0,1-.17-.17.23.23,0,0,1,.09-.24l4.19-2.81a.22.22,0,0,1,.34.23l-.67,3.44A.22.22,0,0,1,424.48,373.9Zm-2.93-1,2.76.49.52-2.7Z" transform="translate(-77.91 -55.63)"/><path class="cls-5" d="M424.48,373.9a.22.22,0,0,1-.2-.13l-2.45-5.68a.23.23,0,0,1,.07-.27.23.23,0,0,1,.27,0l3.11,2.24a.21.21,0,0,1,.09.22l-.67,3.44a.22.22,0,0,1-.19.18Zm-1.92-5.25,1.84,4.28.51-2.6Z" transform="translate(-77.91 -55.63)"/><path class="cls-5" d="M412.47,379.66a.24.24,0,0,1-.22-.16l-1.11-3.81a.19.19,0,0,1,0-.18.21.21,0,0,1,.15-.11l2.23-.37a.25.25,0,0,1,.2.07.23.23,0,0,1,.05.21l-1.12,4.18A.2.2,0,0,1,412.47,379.66Zm-.83-3.86.82,2.8.82-3.07Z" transform="translate(-77.91 -55.63)"/><path class="cls-5" d="M421,378H416.7a.23.23,0,0,1-.2-.13.22.22,0,0,1,0-.24l4.26-4.75a.22.22,0,0,1,.24-.06.24.24,0,0,1,.15.21v4.75A.22.22,0,0,1,421,378Zm-3.76-.44h3.54v-3.95Z" transform="translate(-77.91 -55.63)"/><path class="cls-5" d="M423.62,383.18a.16.16,0,0,1-.1,0l-3.63-1.67a.22.22,0,0,1-.12-.26l1-3.49a.22.22,0,0,1,.41,0l2.65,5.16a.22.22,0,0,1-.19.32Zm-3.37-2,2.87,1.32-2.1-4.08Z" transform="translate(-77.91 -55.63)"/><path class="cls-5" d="M412,385.45a.26.26,0,0,1-.16-.07.22.22,0,0,1-.06-.21l.32-1.35a.22.22,0,0,1,.2-.17l5.54-.38a.22.22,0,0,1,.08.43L412,385.44Zm.49-1.37-.19.82,3.55-1Z" transform="translate(-77.91 -55.63)"/><path class="cls-5" d="M415.31,390.1h-.05l-7-1.59a.23.23,0,0,1-.16-.13.2.2,0,0,1,0-.2l1.38-2.28a.21.21,0,0,1,.14-.1.25.25,0,0,1,.17,0l5.66,3.87a.22.22,0,0,1,.08.27A.23.23,0,0,1,415.31,390.1Zm-6.68-2,5.59,1.27-4.49-3.08Z" transform="translate(-77.91 -55.63)"/><path class="cls-5" d="M415.31,390.1a.33.33,0,0,1-.13,0l-5.65-3.87a.2.2,0,0,1-.09-.21.19.19,0,0,1,.14-.18l2.31-.79a.22.22,0,0,1,.25.08l3.35,4.65a.23.23,0,0,1,0,.29A.2.2,0,0,1,415.31,390.1Zm-5.16-4,4.24,2.9-2.52-3.48Z" transform="translate(-77.91 -55.63)"/><path class="cls-5" d="M415.31,390.1a.23.23,0,0,1-.14-.4l8.3-6.91a.23.23,0,0,1,.28,0,.23.23,0,0,1,.07.27l-2.74,6.32a.23.23,0,0,1-.18.14l-5.57.59Zm7.73-6.37-7,5.85,4.7-.5Zm-2.17,5.55h0Z" transform="translate(-77.91 -55.63)"/><path class="cls-5" d="M415.31,390.1a.23.23,0,0,1-.18-.09.28.28,0,0,1,0-.22l2.51-6.38a.22.22,0,0,1,.2-.14.22.22,0,0,1,.2.12l3.06,5.79a.26.26,0,0,1,0,.21.26.26,0,0,1-.17.12l-5.57.59Zm2.54-6.08-2.2,5.59,4.87-.51Z" transform="translate(-77.91 -55.63)"/><path class="cls-5" d="M417.82,383.71a.22.22,0,0,1-.2-.12.23.23,0,0,1,0-.26l2.16-2.2a.24.24,0,0,1,.25-.05l3.64,1.68a.23.23,0,0,1,.13.24.22.22,0,0,1-.2.18l-5.8.53Zm2.21-2.15-1.63,1.65,4.36-.4Z" transform="translate(-77.91 -55.63)"/><path class="cls-5" d="M403.25,399.76a.21.21,0,0,1-.17-.08l-2.95-3.59a.23.23,0,0,1,0-.29l4.3-5.14a.22.22,0,0,1,.26-.06.23.23,0,0,1,.13.24l-1.35,8.73a.21.21,0,0,1-.16.18ZM400.59,396,403.1,399l1.15-7.45Z" transform="translate(-77.91 -55.63)"/><path class="cls-5" d="M434.28,391.07a.19.19,0,0,1-.14-.05l-6.28-5.13a.22.22,0,0,1,0-.31.21.21,0,0,1,.3-.05l2.4,1.69h0l3.88,3.45a.22.22,0,0,1,0,.31A.19.19,0,0,1,434.28,391.07Z" transform="translate(-77.91 -55.63)"/><path class="cls-5" d="M426.36,387.59h0a.21.21,0,0,1-.17-.1l-2.74-4.4a.22.22,0,0,1,.3-.31l4.39,2.75a.21.21,0,0,1,.1.17.2.2,0,0,1-.06.18l-1.64,1.65A.24.24,0,0,1,426.36,387.59Zm-2-3.93L426.4,387l1.25-1.26Z" transform="translate(-77.91 -55.63)"/><path class="cls-5" d="M435.13,395.75a.23.23,0,0,1-.15-.07l-5.35-5.35a.21.21,0,0,1,0-.26.23.23,0,0,1,.23-.12l4.5.68a.21.21,0,0,1,.18.18l.85,4.67a.22.22,0,0,1-.11.24A.23.23,0,0,1,435.13,395.75Zm-4.71-5.25,4.37,4.36-.7-3.81Z" transform="translate(-77.91 -55.63)"/><path class="cls-5" d="M436,411.79H436a.23.23,0,0,1-.17-.23l.67-10.13a.24.24,0,0,1,.19-.21.23.23,0,0,1,.24.14l1.83,4.6a.23.23,0,0,1,0,.18l-2.49,5.53A.23.23,0,0,1,436,411.79Zm.82-9.36-.52,7.92,1.95-4.32Z" transform="translate(-77.91 -55.63)"/><path class="cls-5" d="M436,411.79a.25.25,0,0,1-.18-.08l-4.45-5.35a.2.2,0,0,1,0-.23.21.21,0,0,1,.19-.13l6.95-.19a.26.26,0,0,1,.2.1.22.22,0,0,1,0,.22l-2.49,5.53a.23.23,0,0,1-.17.13Zm-4-5.36,3.94,4.72,2.2-4.88Z" transform="translate(-77.91 -55.63)"/><path class="cls-5" d="M436.69,401.66a.2.2,0,0,1-.14-.06l-3.55-3a.22.22,0,0,1,0-.29l2-2.9a.23.23,0,0,1,.22-.1.23.23,0,0,1,.18.17l1.56,5.91a.21.21,0,0,1-.1.24A.16.16,0,0,1,436.69,401.66Zm-3.24-3.28,2.85,2.43L435,396.05Z" transform="translate(-77.91 -55.63)"/><path class="cls-5" d="M443.74,445.46a.23.23,0,0,1-.11,0,.24.24,0,0,1-.11-.24l1.24-6.38a.21.21,0,0,1,.18-.17.21.21,0,0,1,.23.1l2,3.43a.23.23,0,0,1-.05.28l-3.25,2.95A.22.22,0,0,1,443.74,445.46Zm1.35-6-1,5.14,2.62-2.38Z" transform="translate(-77.91 -55.63)"/><path class="cls-5" d="M447,442.51a.23.23,0,0,1-.2-.13.23.23,0,0,1,.06-.27l4.19-3.53a.22.22,0,0,1,.36.22l-.53,2.74a.23.23,0,0,1-.17.18l-3.66.78Zm3.85-3.18-3,2.55,2.64-.57Zm-.19,2.17h0Z" transform="translate(-77.91 -55.63)"/><path class="cls-5" d="M451.18,439l-.1,0-3.41-1.59a.24.24,0,0,1-.12-.14.22.22,0,0,1,0-.18l1.83-3a.2.2,0,0,1,.21-.11.23.23,0,0,1,.19.15l1.59,4.56a.23.23,0,0,1-.06.24A.22.22,0,0,1,451.18,439Zm-3.1-1.91,2.71,1.26-1.26-3.62Z" transform="translate(-77.91 -55.63)"/><path class="cls-5" d="M443.74,445.46a.21.21,0,0,1-.13,0,.24.24,0,0,1-.09-.22l1.24-6.38a.26.26,0,0,1,.12-.15.2.2,0,0,1,.2,0l5.67,2.65a.24.24,0,0,1,.13.19.23.23,0,0,1-.12.2l-6.91,3.74A.23.23,0,0,1,443.74,445.46Zm1.41-6.28-1.1,5.63,6.11-3.3Z" transform="translate(-77.91 -55.63)"/><path class="cls-5" d="M444.7,435.64a.2.2,0,0,1-.14-.06l-5-4.53a.22.22,0,0,1-.06-.25.23.23,0,0,1,.22-.14l5.27.3a.22.22,0,0,1,.21.23l-.23,4.24a.23.23,0,0,1-.14.19Zm-4.41-4.5,4.22,3.8.19-3.55Z" transform="translate(-77.91 -55.63)"/><path class="cls-5" d="M444.7,435.64a.21.21,0,0,1-.19-.12.23.23,0,0,1,.05-.28l3.51-2.92a.24.24,0,0,1,.16-.05.26.26,0,0,1,.16.09l1.37,1.69a.22.22,0,0,1,0,.22.21.21,0,0,1-.16.14l-4.88,1.22Zm3.48-2.83L445.6,435l3.6-.9Z" transform="translate(-77.91 -55.63)"/><path class="cls-5" d="M444.94,431.4a.22.22,0,0,1-.21-.15L442.92,426a.24.24,0,0,1,.06-.23.22.22,0,0,1,.23-.05l2.25.81a.22.22,0,0,1,.15.23l-.45,4.46a.22.22,0,0,1-.2.2Zm-1.44-5.12,1.32,3.86.33-3.27Z" transform="translate(-77.91 -55.63)"/><path class="cls-5" d="M448.21,432.72l-.08,0-3.27-1.32a.2.2,0,0,1-.14-.22l.44-4.46a.23.23,0,0,1,.19-.2.21.21,0,0,1,.23.12l2.83,5.78a.23.23,0,0,1,0,.25A.28.28,0,0,1,448.21,432.72Zm-3-1.69,2.58,1-2.23-4.55Z" transform="translate(-77.91 -55.63)"/><path class="cls-5" d="M447,442.51a.23.23,0,0,1-.19-.11l-2-3.43a.23.23,0,0,1,.08-.31l2.78-1.69a.21.21,0,0,1,.23,0,.22.22,0,0,1,.1.22l-.77,5.12a.21.21,0,0,1-.17.18Zm-1.71-3.58,1.59,2.7.6-4Z" transform="translate(-77.91 -55.63)"/><path class="cls-5" d="M443.14,426.14a.24.24,0,0,1-.2-.12l-3.47-6.33a.23.23,0,0,1,0-.27l2.15-2.21a.24.24,0,0,1,.23-.06.22.22,0,0,1,.15.18l1.32,8.55a.22.22,0,0,1-.15.24Zm-3.2-6.52,2.78,5.07-1.05-6.85Z" transform="translate(-77.91 -55.63)"/><path class="cls-5" d="M441.82,417.58h0l-8.36-1.06a.21.21,0,0,1-.17-.12.23.23,0,0,1,0-.2l2.57-4.74a.21.21,0,0,1,.16-.11.22.22,0,0,1,.19.06l5.8,5.79a.25.25,0,0,1,0,.26A.22.22,0,0,1,441.82,417.58Zm-8-1.46,7.39.94-5.12-5.12Z" transform="translate(-77.91 -55.63)"/><path class="cls-5" d="M437.06,426.94a.25.25,0,0,1-.16-.06l-2-1.83a.22.22,0,0,1,0-.31l4.6-5.31a.22.22,0,0,1,.28,0,.23.23,0,0,1,.1.27l-2.62,7.14a.21.21,0,0,1-.15.14Zm-1.68-2.07,1.58,1.46,2.08-5.69Z" transform="translate(-77.91 -55.63)"/><path class="cls-5" d="M437.06,426.94a.25.25,0,0,1-.16-.06l-2-1.83a.24.24,0,0,1-.07-.13l-1.61-8.58a.22.22,0,0,1,.16-.25.23.23,0,0,1,.27.14l3.6,10.42a.24.24,0,0,1-.09.26Zm-1.79-2.17,1.29,1.19-2.33-6.73Z" transform="translate(-77.91 -55.63)"/><path class="cls-5" d="M439.67,419.8h-.08a.23.23,0,0,1-.15-.19l-1.14-13.55a.22.22,0,0,1,.18-.23.21.21,0,0,1,.25.15L442,417.3a.2.2,0,0,1,0,.22l-2.15,2.21A.21.21,0,0,1,439.67,419.8Zm-.74-11.56.92,10.83,1.72-1.77Z" transform="translate(-77.91 -55.63)"/><path class="cls-5" d="M397.22,445.91h0l-3.79-.66a.21.21,0,0,1-.15-.11.23.23,0,0,1,0-.18l1.21-4a.23.23,0,0,1,.19-.16.24.24,0,0,1,.22.12l2.58,4.67a.21.21,0,0,1,0,.23A.22.22,0,0,1,397.22,445.91Zm-3.51-1.07,3.09.54-2.11-3.79Z" transform="translate(-77.91 -55.63)"/><path class="cls-5" d="M397.84,439.28a.24.24,0,0,1-.15-.06l-4.23-3.87a.2.2,0,0,1-.07-.16.24.24,0,0,1,.07-.17l3.64-3.12a.24.24,0,0,1,.23,0,.23.23,0,0,1,.14.19l.6,7a.25.25,0,0,1-.13.22ZM394,435.19l3.62,3.32-.51-6Z" transform="translate(-77.91 -55.63)"/><path class="cls-5" d="M392.79,440.31h0l-2.9-.38a.22.22,0,0,1-.16-.12.2.2,0,0,1,0-.2l2-4.07a.25.25,0,0,1,.23-.13.24.24,0,0,1,.19.18l.89,4.46a.22.22,0,0,1-.05.19A.23.23,0,0,1,392.79,440.31Zm-2.56-.78,2.28.3-.7-3.51Z" transform="translate(-77.91 -55.63)"/><path class="cls-5" d="M394.63,441.24a.24.24,0,0,1-.14-.05.21.21,0,0,1-.07-.24L397,432a.22.22,0,0,1,.23-.16.22.22,0,0,1,.2.2l.6,7a.25.25,0,0,1-.11.21l-3.21,2A.27.27,0,0,1,394.63,441.24Zm2.5-8L395,440.53l2.6-1.59Z" transform="translate(-77.91 -55.63)"/><path class="cls-5" d="M397.25,432.29a.23.23,0,0,1-.11,0,.21.21,0,0,1-.1-.27l2.76-7.19a.23.23,0,0,1,.19-.14.23.23,0,0,1,.21.11l1.13,2a.21.21,0,0,1,0,.24l-3.89,5.24A.21.21,0,0,1,397.25,432.29Zm2.8-6.89-2,5.23,2.83-3.82Z" transform="translate(-77.91 -55.63)"/><path class="cls-5" d="M395.26,417.88a.25.25,0,0,1-.16-.06.22.22,0,0,1-.05-.22l2.88-10.55a.22.22,0,0,1,.21-.16h0a.21.21,0,0,1,.21.16l2.74,9a.28.28,0,0,1,0,.18.21.21,0,0,1-.14.1l-5.61,1.56Zm2.89-10-2.57,9.42,5-1.38Z" transform="translate(-77.91 -55.63)"/><path class="cls-5" d="M395.26,417.88a.2.2,0,0,1-.11,0,.21.21,0,0,1-.1-.25L398,407.21a.2.2,0,0,1,.23-.16l6.41.57a.19.19,0,0,1,.18.14.2.2,0,0,1,0,.23l-9.34,9.82A.2.2,0,0,1,395.26,417.88Zm3.09-10.37-2.63,9.35,8.4-8.84Z" transform="translate(-77.91 -55.63)"/><path class="cls-5" d="M399.09,402.15l-.07,0a.21.21,0,0,1-.15-.25l1.21-6,.05-.1,4.3-5.14a.21.21,0,0,1,.29,0,.22.22,0,0,1,.08.28L399.29,402A.23.23,0,0,1,399.09,402.15Zm1.42-6.1-.86,4.24,3.91-7.9Z" transform="translate(-77.91 -55.63)"/><path class="cls-5" d="M404.6,408.06a.23.23,0,0,1-.17-.07l-5.5-5.91a.22.22,0,0,1-.06-.19.21.21,0,0,1,.11-.16l4.16-2.39a.26.26,0,0,1,.21,0,.22.22,0,0,1,.12.16l1.35,8.3a.24.24,0,0,1-.12.24ZM399.44,402l4.82,5.17-1.18-7.26Z" transform="translate(-77.91 -55.63)"/><path class="cls-5" d="M415.75,402.15a.24.24,0,0,1-.2-.12L411.82,395a.22.22,0,0,1,.28-.31l3.95,1.56a.2.2,0,0,1,.14.21l-.22,5.51a.21.21,0,0,1-.17.21Zm-3.25-6.86,3.06,5.8.18-4.53Z" transform="translate(-77.91 -55.63)"/><path class="cls-5" d="M403.25,399.76a.24.24,0,0,1-.21-.14.23.23,0,0,1,.1-.28l8.77-4.68a.25.25,0,0,1,.19,0l3.95,1.56a.21.21,0,0,1,.14.22.21.21,0,0,1-.17.2l-12.72,3.12ZM412,395.1l-7.11,3.8,10.32-2.54Z" transform="translate(-77.91 -55.63)"/><path class="cls-5" d="M412,395.08a.2.2,0,0,1-.11,0L404.49,391a.25.25,0,0,1-.12-.19.24.24,0,0,1,.1-.19l3.68-2.52a.19.19,0,0,1,.18,0,.21.21,0,0,1,.14.1l3.74,6.58a.22.22,0,0,1-.19.33Zm-7-4.3,6.42,3.51-3.24-5.69Z" transform="translate(-77.91 -55.63)"/><path class="cls-5" d="M424.49,409.35a.15.15,0,0,1-.09,0l-8.45-3.7a.23.23,0,0,1-.13-.21.2.2,0,0,1,.14-.2l6.61-2.81a.21.21,0,0,1,.19,0,.24.24,0,0,1,.12.14l1.83,6.52a.23.23,0,0,1-.07.23A.25.25,0,0,1,424.49,409.35Zm-7.89-3.92,7.55,3.31-1.63-5.82Z" transform="translate(-77.91 -55.63)"/><path class="cls-5" d="M421.76,394h0a.24.24,0,0,1-.18-.18l-.89-4.45a.23.23,0,0,1,.15-.26l5.49-1.92a.22.22,0,0,1,.25.08.21.21,0,0,1,0,.26l-4.6,6.38A.21.21,0,0,1,421.76,394Zm-.63-4.53.75,3.77,3.89-5.39Z" transform="translate(-77.91 -55.63)"/><path class="cls-5" d="M428.89,397.53l-.1,0-7.13-3.57a.24.24,0,0,1-.12-.24.23.23,0,0,1,.2-.18l7.58-.94a.25.25,0,0,1,.18.06.26.26,0,0,1,.07.19l-.45,4.5a.21.21,0,0,1-.12.17A.2.2,0,0,1,428.89,397.53Zm-6.37-3.66L428.7,397l.4-3.9Z" transform="translate(-77.91 -55.63)"/><path class="cls-5" d="M407.66,412.77h0a.23.23,0,0,1-.17-.1L404.41,408a.21.21,0,0,1,0-.23.25.25,0,0,1,.21-.11l7,.29a.21.21,0,0,1,.2.13.24.24,0,0,1,0,.24l-4,4.42A.24.24,0,0,1,407.66,412.77ZM405,408.08l2.67,4.1,3.45-3.85Z" transform="translate(-77.91 -55.63)"/><path class="cls-5" d="M407.26,432.46h-.08a.23.23,0,0,1-.14-.21l.13-7.52a.22.22,0,0,1,.31-.2l5,2.09a.21.21,0,0,1,.13.16.21.21,0,0,1-.05.2l-5.15,5.42A.2.2,0,0,1,407.26,432.46Zm.35-7.4-.12,6.61L412,426.9Z" transform="translate(-77.91 -55.63)"/><path class="cls-5" d="M407.26,432.46a.24.24,0,0,1-.14,0,.23.23,0,0,1-.08-.17l.13-7.52a.22.22,0,0,1,.13-.2.23.23,0,0,1,.23,0l7.39,6.16a.22.22,0,0,1,.07.23.21.21,0,0,1-.17.16l-7.52,1.36Zm.35-7.27-.12,6.78,6.78-1.22Z" transform="translate(-77.91 -55.63)"/><path class="cls-5" d="M422.94,429.88a.2.2,0,0,1-.17-.09l-3.18-4.26a.23.23,0,0,1,.23-.35L433.06,428a.22.22,0,0,1,.17.23.22.22,0,0,1-.19.21L423,429.88Zm-2.64-4.14,2.74,3.68,8.7-1.22Z" transform="translate(-77.91 -55.63)"/><path class="cls-5" d="M422.94,429.88a.2.2,0,0,1-.14-.06.23.23,0,0,1-.08-.17l.26-7.94a.21.21,0,0,1,.12-.19.22.22,0,0,1,.22,0l9.81,6.53a.23.23,0,0,1,.1.24.22.22,0,0,1-.19.17L423,429.88Zm.47-7.75-.23,7.27,9.22-1.29Z" transform="translate(-77.91 -55.63)"/><path class="cls-5" d="M428.45,421.6h0a.25.25,0,0,1-.17-.11l-4.86-7.43a.21.21,0,0,1,0-.25.23.23,0,0,1,.23-.09l9.87,2.36a.22.22,0,0,1,.16.16.25.25,0,0,1-.05.22l-5,5.07A.24.24,0,0,1,428.45,421.6Zm-4.37-7.31,4.4,6.73,4.54-4.59Z" transform="translate(-77.91 -55.63)"/><path class="cls-5" d="M433.43,446.51a.23.23,0,0,1-.2-.13L430,439.2a.23.23,0,0,1,0-.25l3.87-3.92a.23.23,0,0,1,.25,0,.21.21,0,0,1,.13.21l-.63,11.1a.23.23,0,0,1-.19.21Zm-3-7.36,2.79,6.21.55-9.59Z" transform="translate(-77.91 -55.63)"/><path class="cls-5" d="M411,442.33h-.08l-5.2-2a.23.23,0,0,1-.14-.25L407,432.2a.22.22,0,0,1,.2-.18.21.21,0,0,1,.23.14L411.2,442a.24.24,0,0,1-.05.24A.23.23,0,0,1,411,442.33Zm-4.94-2.39,4.56,1.78-3.28-8.66Z" transform="translate(-77.91 -55.63)"/><path class="cls-5" d="M409.08,462.38h0a.24.24,0,0,1-.19-.16l-2.49-9.81a.23.23,0,0,1,.24-.28l7.56.83a.26.26,0,0,1,.18.12.22.22,0,0,1,0,.21l-5.07,9A.21.21,0,0,1,409.08,462.38Zm-2.2-9.77,2.28,9,4.63-8.2Z" transform="translate(-77.91 -55.63)"/><path class="cls-5" d="M413.69,463.61h-.05L409,462.38a.25.25,0,0,1-.16-.16l-2.49-9.81a.22.22,0,0,1,.4-.18l7.11,11a.23.23,0,0,1,0,.26A.24.24,0,0,1,413.69,463.61ZM409.26,462l3.94,1-6.06-9.4Z" transform="translate(-77.91 -55.63)"/><path class="cls-5" d="M406.59,452.58h0a.22.22,0,0,1-.19-.2l-.79-12.27a.25.25,0,0,1,.09-.2.26.26,0,0,1,.21,0l5.2,2a.22.22,0,0,1,.13.12.28.28,0,0,1,0,.18l-4.41,10.24A.24.24,0,0,1,406.59,452.58ZM406,440.42l.71,11,3.95-9.18Z" transform="translate(-77.91 -55.63)"/><path class="cls-5" d="M428.89,512.13h0l-5.22,0a.21.21,0,0,1-.19-.11.22.22,0,0,1,0-.21l3.24-6.22a.22.22,0,0,1,.22-.12.24.24,0,0,1,.19.15l2,6.25a.21.21,0,0,1,0,.2A.24.24,0,0,1,428.89,512.13Zm-4.85-.47,4.55,0-1.73-5.44Z" transform="translate(-77.91 -55.63)"/><path class="cls-5" d="M427.11,500.93a.24.24,0,0,1-.21-.15l-2.61-7a.22.22,0,0,1,0-.23l3.27-3.33a.23.23,0,0,1,.25,0,.2.2,0,0,1,.13.21l-.66,10.38a.21.21,0,0,1-.19.21Zm-2.35-7.22,2.2,5.93.55-8.73Z" transform="translate(-77.91 -55.63)"/><path class="cls-5" d="M428,484h0a.22.22,0,0,1-.2-.18l-1.33-8a.21.21,0,0,1,.31-.23l3.73,1.84a.23.23,0,0,1,.11.28l-2.39,6.18A.22.22,0,0,1,428,484Zm-1-7.85,1.13,6.79,2-5.23Z" transform="translate(-77.91 -55.63)"/><path class="cls-5" d="M431,464.22a.23.23,0,0,1-.16-.06l-2.92-2.84a.2.2,0,0,1-.06-.21A.2.2,0,0,1,428,461l4.71-1.76a.23.23,0,0,1,.24.05.23.23,0,0,1,.05.24l-1.8,4.6a.21.21,0,0,1-.16.14Zm-2.52-3,2.43,2.37,1.49-3.83Z" transform="translate(-77.91 -55.63)"/><path class="cls-5" d="M428,484h-.06a.22.22,0,0,1-.16-.25l2.67-14.43a.2.2,0,0,1,.24-.18.23.23,0,0,1,.2.23l-.28,8.25s0,0,0,.07l-2.39,6.18A.22.22,0,0,1,428,484Zm2.34-11.67-1.68,9.14,1.51-3.91Z" transform="translate(-77.91 -55.63)"/><path class="cls-5" d="M408,479.21H408a.21.21,0,0,1-.17-.17l-1.6-7.58a.24.24,0,0,1,.11-.25.23.23,0,0,1,.27.05l4.28,4.46a.22.22,0,0,1,0,.3l-2.67,3.12A.21.21,0,0,1,408,479.21Zm-1.22-7.09,1.35,6.38,2.24-2.62Z" transform="translate(-77.91 -55.63)"/><path class="cls-5" d="M413.74,506.72a.2.2,0,0,1-.11,0,.22.22,0,0,1-.1-.27l2.06-5.63a.2.2,0,0,1,.15-.13l3.73-1.06a.21.21,0,0,1,.25.1.2.2,0,0,1,0,.26l-5.79,6.69A.22.22,0,0,1,413.74,506.72Zm2.23-5.67-1.6,4.39,4.51-5.21Z" transform="translate(-77.91 -55.63)"/><path class="cls-5" d="M429.34,449.23a.24.24,0,0,1-.14-.05.23.23,0,0,1-.07-.25l4.73-13.81a.21.21,0,0,1,.25-.15.22.22,0,0,1,.18.23l-.63,11.1a.23.23,0,0,1-.1.17l-4.1,2.72A.17.17,0,0,1,429.34,449.23Zm4.41-12.43-4,11.66,3.46-2.3Z" transform="translate(-77.91 -55.63)"/><path class="cls-5" d="M424.21,440.07a.23.23,0,0,1-.16-.06.22.22,0,0,1-.06-.19l.67-4.66a.24.24,0,0,1,.14-.18.22.22,0,0,1,.22,0l5.16,3.92a.23.23,0,0,1,.08.23.22.22,0,0,1-.19.17l-5.83.74Zm.84-4.47-.58,4,5-.64Z" transform="translate(-77.91 -55.63)"/><path class="cls-5" d="M424.88,435.41h-.08a.24.24,0,0,1-.14-.18L423,421.75a.23.23,0,0,1,.1-.22.23.23,0,0,1,.24,0l9.81,6.53a.22.22,0,0,1,.1.18.22.22,0,0,1-.07.18L425,435.36A.25.25,0,0,1,424.88,435.41Zm-1.4-13.23,1.57,12.57,7.59-6.48Z" transform="translate(-77.91 -55.63)"/><path class="cls-5" d="M434.07,435.41l-.1,0-11.12-5.53a.24.24,0,0,1-.13-.24.22.22,0,0,1,.19-.18L433,428a.22.22,0,0,1,.25.18l1.06,7a.22.22,0,0,1-.22.25Zm-10.38-5.63,10.09,5-1-6.3Z" transform="translate(-77.91 -55.63)"/><path class="cls-5" d="M425.85,462.2a.24.24,0,0,1-.14-.05l-4.09-3.23a.24.24,0,0,1-.08-.21l1.18-7.24a.22.22,0,0,1,.21-.18.23.23,0,0,1,.23.16l2.9,10.47a.21.21,0,0,1-.09.24A.17.17,0,0,1,425.85,462.2ZM422,458.65l3.45,2.73L423,452.55Z" transform="translate(-77.91 -55.63)"/><path class="cls-5" d="M421.76,459l-.09,0a.23.23,0,0,1-.13-.24l1.18-7.24a.26.26,0,0,1,.14-.17l6.4-2.5a.22.22,0,0,1,.26.07.22.22,0,0,1,0,.27l-7.58,9.74A.21.21,0,0,1,421.76,459Zm1.38-7.3-1,6.25,6.55-8.41Z" transform="translate(-77.91 -55.63)"/><path class="cls-5" d="M432.78,459.62a.22.22,0,0,1-.2-.12l-3.42-6.32a.19.19,0,0,1,0-.19.23.23,0,0,1,.14-.13l4.33-1.18a.25.25,0,0,1,.21,0,.22.22,0,0,1,.07.2l-.9,7.5a.22.22,0,0,1-.18.2Zm-3.1-6.4,3,5.46.78-6.48Z" transform="translate(-77.91 -55.63)"/><path class="cls-5" d="M432.78,459.62a.23.23,0,0,1-.21-.15l-3.44-10.39a.23.23,0,0,1,.07-.25.23.23,0,0,1,.26,0l4.35,2.89a.2.2,0,0,1,.09.21l-.9,7.5a.22.22,0,0,1-.2.2Zm-3-10.07,2.93,8.83.77-6.38Z" transform="translate(-77.91 -55.63)"/><path class="cls-5" d="M417.72,477.81a.19.19,0,0,1-.14-.05.22.22,0,0,1-.06-.26l3.79-8.69a.22.22,0,0,1,.39,0l2.9,4.17a.23.23,0,0,1,0,.16.25.25,0,0,1-.1.15l-6.69,4.52A.28.28,0,0,1,417.72,477.81Zm3.84-8.45L418.23,477l5.88-4Z" transform="translate(-77.91 -55.63)"/><path class="cls-5" d="M425.6,479.72h-.05l-7.88-1.91a.23.23,0,0,1-.17-.22.23.23,0,0,1,.18-.22l8.94-1.84a.23.23,0,0,1,.21.07.22.22,0,0,1,.05.21l-1.06,3.75A.22.22,0,0,1,425.6,479.72Zm-6.86-2.11,6.71,1.62.9-3.19Z" transform="translate(-77.91 -55.63)"/><path class="cls-5" d="M424.42,473.3a.25.25,0,0,1-.17-.08.22.22,0,0,1,0-.28l6.57-9.07a.22.22,0,0,1,.25-.08.23.23,0,0,1,.15.22l-.32,5.34a.25.25,0,0,1-.11.18l-6.25,3.73A.15.15,0,0,1,424.42,473.3Zm6.3-8.55-5.49,7.58,5.22-3.12Z" transform="translate(-77.91 -55.63)"/><path class="cls-5" d="M430.66,469.56a.2.2,0,0,1-.18-.1l-4.82-7.36a.23.23,0,0,1,0-.27.21.21,0,0,1,.25-.06l5.14,2a.24.24,0,0,1,.14.22l-.32,5.34a.22.22,0,0,1-.17.2Zm-4.24-7.12,4.06,6.21.27-4.5Z" transform="translate(-77.91 -55.63)"/><path class="cls-5" d="M415.8,491.32h-.05a.21.21,0,0,1-.17-.21l-.28-5.55a.22.22,0,0,1,.07-.17.21.21,0,0,1,.18-.06l3.12.45a.2.2,0,0,1,.17.12.22.22,0,0,1,0,.21l-2.85,5.1A.21.21,0,0,1,415.8,491.32Zm0-5.51.22,4.5,2.31-4.14Z" transform="translate(-77.91 -55.63)"/><path class="cls-5" d="M428.89,512.13h0l-5.22,0a.21.21,0,0,1-.22-.21l-.13-4.05a.24.24,0,0,1,.12-.2.23.23,0,0,1,.24,0l5.35,4.07a.2.2,0,0,1,.07.25A.22.22,0,0,1,428.89,512.13Zm-5-.47,4.34,0-4.45-3.38Z" transform="translate(-77.91 -55.63)"/><path class="cls-5" d="M427.77,490.55a.22.22,0,0,1-.22-.18l-2.17-10.83a.22.22,0,0,1,.14-.25.23.23,0,0,1,.28.1l2.4,4.27a.27.27,0,0,1,0,.12l-.24,6.56a.22.22,0,0,1-.2.21Zm-1.67-9.72,1.52,7.59.16-4.6Z" transform="translate(-77.91 -55.63)"/><path class="cls-5" d="M422.46,485.78a.22.22,0,0,1-.2-.33l3.14-6.05a.22.22,0,0,1,.2-.12h0a.23.23,0,0,1,.2.11l2.4,4.27a.25.25,0,0,1,0,.19.2.2,0,0,1-.14.13l-5.55,1.78Zm3.15-5.81-2.71,5.2,4.77-1.53Z" transform="translate(-77.91 -55.63)"/><path class="cls-5" d="M421,378H416.7a.21.21,0,0,1-.21-.17l-1.16-5.72a.21.21,0,0,1,.11-.24.23.23,0,0,1,.27,0l5.42,5.72a.22.22,0,0,1-.17.37Zm-4.07-.44h3.56l-4.53-4.78Z" transform="translate(-77.91 -55.63)"/><path class="cls-5" d="M421,373.27a.22.22,0,0,1-.2-.12L419.18,370a.22.22,0,0,1,.07-.28l2.66-1.9a.21.21,0,0,1,.34.22l-1.07,5.06a.21.21,0,0,1-.19.17Zm-1.3-3.3,1.22,2.41.82-3.87Z" transform="translate(-77.91 -55.63)"/><path class="cls-5" d="M421,378h-.07a.23.23,0,0,1-.15-.21v-4.75a.21.21,0,0,1,.08-.17.24.24,0,0,1,.18-.05l3.52.63a.21.21,0,0,1,.17.14.22.22,0,0,1,0,.22L421.13,378A.21.21,0,0,1,421,378Zm.23-4.7v3.88l2.87-3.37Z" transform="translate(-77.91 -55.63)"/><path class="cls-5" d="M409.28,421.6l-.09,0a.21.21,0,0,1-.13-.2l0-2.65a.22.22,0,0,1,.13-.2l7-3.06a.23.23,0,0,1,.28.09.22.22,0,0,1-.05.29l-7,5.71A.24.24,0,0,1,409.28,421.6Zm.26-2.73,0,2,5.38-4.37Z" transform="translate(-77.91 -55.63)"/><path class="cls-5" d="M419.77,425.62a.19.19,0,0,1-.12,0l-10.45-6.67a.2.2,0,0,1-.1-.2.24.24,0,0,1,.13-.19l7-3.06a.23.23,0,0,1,.18,0,.22.22,0,0,1,.12.13l3.46,9.73a.22.22,0,0,1-.07.25A.24.24,0,0,1,419.77,425.62Zm-10-6.86,9.54,6.1-3.16-8.9Z" transform="translate(-77.91 -55.63)"/><path class="cls-5" d="M422.66,402.84a.24.24,0,0,1-.15-.06.22.22,0,0,1,0-.29l6.68-9.81a.22.22,0,0,1,.26-.09.23.23,0,0,1,.15.24l-.45,4.5a.31.31,0,0,1-.08.15l-6.23,5.3A.24.24,0,0,1,422.66,402.84Zm6.38-9.19-5.26,7.72,4.9-4.18Z" transform="translate(-77.91 -55.63)"/><path class="cls-5" d="M433.15,398.64h-.06l-4.25-1.12a.22.22,0,0,1-.16-.15.23.23,0,0,1,0-.21l5.39-6.45a.23.23,0,0,1,.27-.06.2.2,0,0,1,.12.23l-1.13,7.57a.25.25,0,0,1-.1.16A.24.24,0,0,1,433.15,398.64Zm-3.86-1.46,3.68,1,1-6.54Z" transform="translate(-77.91 -55.63)"/><path class="cls-5" d="M431.57,406.44h-.09l-8.9-3.61a.22.22,0,0,1-.14-.21.2.2,0,0,1,.14-.2l10.49-4.2a.22.22,0,0,1,.22,0,.25.25,0,0,1,.08.22l-1.58,7.79a.28.28,0,0,1-.12.16Zm-8.31-3.83,8.14,3.3,1.45-7.13Z" transform="translate(-77.91 -55.63)"/><path class="cls-5" d="M433,428.47a.22.22,0,0,1-.18-.1l-4.57-6.87a.26.26,0,0,1,0-.28.23.23,0,0,1,.27,0l6.62,3.51a.16.16,0,0,1,.11.13.22.22,0,0,1,0,.18l-2.06,3.36a.21.21,0,0,1-.19.11ZM429.12,422l3.88,5.85,1.75-2.86Z" transform="translate(-77.91 -55.63)"/><g class="cls-4"><polygon class="cls-5" points="334.09 312.69 336.12 309.82 339.25 309.82 334.09 312.69"/></g><g class="cls-4"><polygon class="cls-5" points="342.06 309.52 341.47 314.27 339.25 309.82 342.06 309.52"/></g><g class="cls-4"><polygon class="cls-5" points="345.87 312.01 344.13 312.37 342.06 309.52 345.87 312.01"/></g><g class="cls-6"><polygon class="cls-5" points="333.74 317.01 334.09 312.69 337.64 316.45 333.74 317.01"/></g><g class="cls-4"><polygon class="cls-5" points="341.47 314.27 337.64 316.45 339.25 309.82 341.47 314.27"/></g><g class="cls-6"><polygon class="cls-5" points="347.25 314.61 346.57 318.05 343.06 317.42 347.25 314.61"/></g><g class="cls-7"><polygon class="cls-5" points="344.13 312.37 346.57 318.05 347.25 314.61 344.13 312.37"/></g><g class="cls-6"><polygon class="cls-5" points="333.45 319.99 334.56 323.8 335.68 319.62 333.45 319.99"/></g><g class="cls-6"><polygon class="cls-5" points="338.8 322.17 343.06 322.17 343.06 317.42 338.8 322.17"/></g><g class="cls-8"><polygon class="cls-5" points="342.07 325.66 343.06 322.17 345.71 327.33 342.07 325.66"/></g><g class="cls-9"><polygon class="cls-5" points="334.05 329.59 334.37 328.24 339.91 327.86 334.05 329.59"/></g><g class="cls-6"><polygon class="cls-5" points="331.75 330.38 337.4 334.24 330.37 332.65 331.75 330.38"/></g><g class="cls-6"><polygon class="cls-5" points="342.96 333.65 345.71 327.33 337.4 334.24 342.96 333.65"/></g><g class="cls-6"><polygon class="cls-5" points="339.91 327.86 342.96 333.65 337.4 334.24 339.91 327.86"/></g><g class="cls-6"><polygon class="cls-5" points="345.71 327.33 339.91 327.86 342.07 325.66 345.71 327.33"/></g><g class="cls-6"><polygon class="cls-5" points="322.39 340.31 326.69 335.17 325.34 343.91 322.39 340.31"/></g><g class="cls-6"><polygon class="cls-5" points="352.49 331.77 350.09 330.08 356.38 335.22 352.49 331.77"/></g><g class="cls-7"><polygon class="cls-5" points="348.45 331.73 345.71 327.33 350.09 330.08 348.45 331.73"/></g><g class="cls-4"><polygon class="cls-5" points="357.23 339.89 356.38 335.22 351.88 334.54 357.23 339.89"/></g><g class="cls-6"><polygon class="cls-5" points="358.79 345.8 358.12 355.94 360.61 350.4 358.79 345.8"/></g><g class="cls-6"><polygon class="cls-5" points="353.66 350.59 358.12 355.94 360.61 350.4 353.66 350.59"/></g><g class="cls-6"><polygon class="cls-5" points="355.24 342.79 357.23 339.89 358.79 345.8 355.24 342.79"/></g><g class="cls-6"><polygon class="cls-5" points="369.09 386.65 367.07 383.22 365.83 389.6 369.09 386.65"/></g><g class="cls-6"><polygon class="cls-5" points="372.74 385.87 373.27 383.12 369.09 386.65 372.74 385.87"/></g><g class="cls-7"><polygon class="cls-5" points="371.68 378.56 369.85 381.53 373.27 383.12 371.68 378.56"/></g><g class="cls-6"><polygon class="cls-5" points="372.74 385.87 365.83 389.6 367.07 383.22 372.74 385.87"/></g><g class="cls-6"><polygon class="cls-5" points="366.8 379.78 361.76 375.25 367.03 375.55 366.8 379.78"/></g><g class="cls-6"><polygon class="cls-5" points="370.3 376.86 371.68 378.56 366.8 379.78 370.3 376.86"/></g><g class="cls-6"><polygon class="cls-5" points="367.48 371.09 367.03 375.55 365.23 370.28 367.48 371.09"/></g><g class="cls-6"><polygon class="cls-5" points="370.3 376.86 367.48 371.09 367.03 375.55 370.3 376.86"/></g><g class="cls-6"><polygon class="cls-5" points="369.85 381.53 369.09 386.65 367.07 383.22 369.85 381.53"/></g><g class="cls-6"><polygon class="cls-5" points="363.91 361.73 361.76 363.95 365.23 370.28 363.91 361.73"/></g><g class="cls-6"><polygon class="cls-5" points="358.12 355.94 363.91 361.73 355.55 360.67 358.12 355.94"/></g><g class="cls-6"><polygon class="cls-5" points="357.16 369.25 361.76 363.95 359.15 371.09 357.16 369.25"/></g><g class="cls-6"><polygon class="cls-5" points="355.55 360.67 359.15 371.09 357.16 369.25 355.55 360.67"/></g><g class="cls-6"><polygon class="cls-5" points="360.61 350.4 363.91 361.73 361.76 363.95 360.61 350.4"/></g><g class="cls-10"><polygon class="cls-5" points="315.52 389.39 316.72 385.38 319.31 390.05 315.52 389.39"/></g><g class="cls-6"><polygon class="cls-5" points="319.94 383.43 319.34 376.44 315.7 379.56 319.94 383.43"/></g><g class="cls-6"><polygon class="cls-5" points="311.98 384.07 313.99 380 314.88 384.46 311.98 384.07"/></g><g class="cls-6"><polygon class="cls-5" points="316.72 385.38 319.34 376.44 319.94 383.43 316.72 385.38"/></g><g class="cls-6"><polygon class="cls-5" points="322.1 369.25 319.34 376.44 323.23 371.2 322.1 369.25"/></g><g class="cls-6"><polygon class="cls-5" points="317.35 362.03 320.23 351.48 322.96 360.48 317.35 362.03"/></g><g class="cls-6"><polygon class="cls-5" points="326.69 352.21 317.35 362.03 320.28 351.64 326.69 352.21"/></g><g class="cls-7"><polygon class="cls-5" points="321.18 346.29 322.39 340.31 326.69 335.17 321.18 346.29"/></g><g class="cls-6"><polygon class="cls-5" points="325.34 343.91 321.18 346.29 326.69 352.21 325.34 343.91"/></g><g class="cls-6"><polygon class="cls-5" points="334.11 339.23 338.06 340.78 337.84 346.29 334.11 339.23"/></g><g class="cls-11"><polygon class="cls-5" points="350.99 341.67 351.44 337.17 343.85 338.11 350.99 341.67"/></g><g class="cls-6"><polygon class="cls-5" points="326.69 352.21 329.75 356.92 333.71 352.5 326.69 352.21"/></g><g class="cls-9"><polygon class="cls-5" points="329.48 369.09 329.35 376.61 334.49 371.19 329.48 369.09"/></g><g class="cls-6"><polygon class="cls-5" points="336.87 375.25 329.48 369.09 329.35 376.61 336.87 375.25"/></g><g class="cls-11"><polygon class="cls-5" points="341.86 369.76 345.04 374.02 355.1 372.62 341.86 369.76"/></g><g class="cls-11"><polygon class="cls-5" points="345.29 366.09 345.04 374.02 355.1 372.62 345.29 366.09"/></g><g class="cls-6"><polygon class="cls-5" points="355.55 360.67 350.54 365.74 345.68 358.31 355.55 360.67"/></g><g class="cls-6"><polygon class="cls-5" points="356.16 379.56 355.52 390.65 352.29 383.48 356.16 379.56"/></g><g class="cls-6"><polygon class="cls-5" points="327.88 384.45 329.35 376.61 333.08 386.48 327.88 384.45"/></g><g class="cls-11"><polygon class="cls-5" points="328.68 396.72 331.17 406.53 336.24 397.55 328.68 396.72"/></g><g class="cls-11"><polygon class="cls-5" points="335.79 407.75 328.68 396.72 331.17 406.53 335.79 407.75"/></g><g class="cls-6"><polygon class="cls-5" points="350.99 456.27 345.76 456.25 349 450.03 350.99 456.27"/></g><g class="cls-6"><polygon class="cls-5" points="349.86 434.7 346.59 438.02 349.2 445.07 349.86 434.7"/></g><g class="cls-6"><polygon class="cls-5" points="348.76 420.12 352.48 421.96 350.09 428.14 348.76 420.12"/></g><g class="cls-6"><polygon class="cls-5" points="352.76 413.71 352.48 421.96 350.09 428.14 352.76 413.71"/></g><g class="cls-6"><polygon class="cls-5" points="328.53 415.77 330.13 423.36 332.81 420.24 328.53 415.77"/></g><g class="cls-6"><polygon class="cls-5" points="335.83 450.87 337.89 445.24 341.63 444.18 335.83 450.87"/></g><g class="cls-6"><polygon class="cls-5" points="351.43 393.38 356.16 379.56 355.52 390.65 351.43 393.38"/></g><g class="cls-11"><polygon class="cls-5" points="346.97 379.56 346.3 384.22 352.14 383.48 346.97 379.56"/></g><g class="cls-11"><polygon class="cls-5" points="355.1 372.62 346.97 379.56 345.29 366.09 355.1 372.62"/></g><g class="cls-11"><polygon class="cls-5" points="356.16 379.56 345.04 374.02 355.1 372.62 356.16 379.56"/></g><g class="cls-6"><polygon class="cls-5" points="345.04 395.88 343.85 403.11 347.94 406.34 345.04 395.88"/></g><g class="cls-6"><polygon class="cls-5" points="351.43 393.38 343.85 403.11 345.04 395.88 351.43 393.38"/></g><g class="cls-6"><polygon class="cls-5" points="355.77 396.26 354.87 403.77 351.44 397.45 355.77 396.26"/></g><g class="cls-10"><polygon class="cls-5" points="351.43 393.38 354.87 403.77 355.77 396.26 351.43 393.38"/></g><g class="cls-6"><polygon class="cls-5" points="347.69 423.87 348.76 420.12 339.81 421.96 347.69 423.87"/></g><g class="cls-6"><polygon class="cls-5" points="353.08 408.37 352.76 413.71 346.51 417.44 353.08 408.37"/></g><g class="cls-6"><polygon class="cls-5" points="347.94 406.34 352.76 413.71 353.08 408.37 347.94 406.34"/></g><g class="cls-7"><polygon class="cls-5" points="345.64 452.21 345.76 456.25 350.99 456.27 345.64 452.21"/></g><g class="cls-6"><polygon class="cls-5" points="347.69 423.87 350.09 428.14 349.86 434.7 347.69 423.87"/></g><g class="cls-6"><polygon class="cls-5" points="337.64 316.45 338.8 322.17 343.06 322.17 337.64 316.45"/></g><g class="cls-6"><polygon class="cls-5" points="343.06 317.42 341.47 314.27 344.13 312.37 343.06 317.42"/></g><g class="cls-6"><polyline class="cls-5" points="346.57 318.05 343.06 322.17 343.06 317.42 346.57 318.05"/></g><g class="cls-6"><polygon class="cls-5" points="331.42 363.09 331.38 365.74 338.4 360.03 331.42 363.09"/></g><g class="cls-6"><polygon class="cls-5" points="341.86 369.76 331.42 363.09 338.4 360.03 341.86 369.76"/></g><g class="cls-11"><polygon class="cls-5" points="344.75 346.98 350.99 341.67 351.44 337.17 344.75 346.98"/></g><g class="cls-11"><polygon class="cls-5" points="355.24 342.79 350.99 341.67 356.38 335.22 355.24 342.79"/></g><g class="cls-11"><polygon class="cls-5" points="353.66 350.59 344.75 346.98 355.24 342.79 353.66 350.59"/></g><g class="cls-6"><polygon class="cls-5" points="357.16 369.25 355.1 372.62 350.54 365.74 357.16 369.25"/></g></g></g></g></g></svg>