<svg xmlns="http://www.w3.org/2000/svg" viewBox="0 0 158.4 130.59"><defs><style>.cls-1{opacity:0.46;}.cls-2,.cls-3,.cls-4,.cls-5,.cls-6,.cls-7,.cls-8,.cls-9{fill:#002b38;}.cls-2{opacity:0.57;}.cls-3{opacity:0.6;}.cls-4{opacity:0.49;}.cls-6{opacity:0.41;}.cls-7{opacity:0.72;}.cls-8{opacity:0.31;}.cls-9{opacity:0.37;}</style></defs><title>brain</title><g id="Layer_2" data-name="Layer 2"><g id="Capa_2" data-name="Capa 2"><g class="cls-1"><path class="cls-2" d="M35.57,27.21c-7.39,0-13.41,4.92-13.41,11A9,9,0,0,0,22.35,40s0,.1,0,.15,0,.07,0,.11a9.71,9.71,0,0,0,2.82,6.45,1.33,1.33,0,0,1-1,2.23,1.36,1.36,0,0,1-1-.44,14.62,14.62,0,0,1-2.72-4.29,1.78,1.78,0,0,0-2.65-.78c-4.47,3-7.21,7.49-7.21,12.3v.15a1.8,1.8,0,0,0,2.24,1.67A19.9,19.9,0,0,1,17.44,57a21,21,0,0,1,7,1.23A7.9,7.9,0,0,1,35,57.7a1.33,1.33,0,0,1-1.66,2.09,5.16,5.16,0,0,0-1.82-1A5.29,5.29,0,0,0,26.71,68c.05,0,.08.11.13.16s.1.06.14.1a7.78,7.78,0,0,1,2,5.31,8,8,0,0,1-3.49,6.59,1.38,1.38,0,0,1-.75.23,1.32,1.32,0,0,1-1.1-.59,1.34,1.34,0,0,1,.31-1.83,5.18,5.18,0,0,0,2.23-3A5.46,5.46,0,0,0,25,70L22.55,65.8a3.18,3.18,0,0,1-.44-1.31,7.92,7.92,0,0,1,.74-4,18.19,18.19,0,0,0-5.41-.82A17.75,17.75,0,0,0,6.65,63.38,19.05,19.05,0,0,0,0,78.17,18.86,18.86,0,0,0,9.51,95a13.11,13.11,0,0,0,5.8,1.35,1.34,1.34,0,0,1,0,2.67,16,16,0,0,1-3.46-.38A1.75,1.75,0,0,0,9.72,100a13.14,13.14,0,0,0-.17,2.07c0,5.59,3.54,10.65,9.22,13.48a3.16,3.16,0,0,0,3.47-.46l1.1-.93a1.33,1.33,0,0,1,1.73,2l-2.84,2.42a8.68,8.68,0,0,0-.07,1c0,6,6,11,13.41,11s13.4-4.92,13.4-11v-5.9a4.93,4.93,0,0,0-.68-2.51l-.38-.67a7.23,7.23,0,0,1-.55-1.16,1.43,1.43,0,0,0-2-.8c-.19.08-.38.17-.57.24a1.23,1.23,0,0,1-.49.1,1.33,1.33,0,0,1-1-.45,1.4,1.4,0,0,1,.57-2.16,8.28,8.28,0,0,0,3.69-2.93,1,1,0,0,1,.15-.14,7.3,7.3,0,0,1,.37-.66A5,5,0,0,0,49,99.81v-24a5.16,5.16,0,0,0-1.51-3.66l-.23-.24,0,0a6.49,6.49,0,0,0-4.62-1.92,6.88,6.88,0,0,0-1.29.13,1.32,1.32,0,0,1-1.57-1,1.33,1.33,0,0,1,1-1.57,9.21,9.21,0,0,1,1.82-.18H43a2.48,2.48,0,0,0,2.49-1.86,6.28,6.28,0,0,1,.9-1.93l1.3-1.92A7.48,7.48,0,0,0,49,57.32V38.18C49,32.13,43,27.21,35.57,27.21Zm-19,57.1a1.32,1.32,0,0,1-1.27.94,1.39,1.39,0,0,1-.4-.06,6.34,6.34,0,0,1-4.44-5.73,6.26,6.26,0,0,1,1.62-4.56,1.33,1.33,0,1,1,2,1.79,3.66,3.66,0,0,0,1.63,6A1.34,1.34,0,0,1,16.54,84.31Zm25,35.75a6.33,6.33,0,0,1-8.79,1.63,1.33,1.33,0,0,1,1.51-2.2,3.66,3.66,0,0,0,5.08-.94,1.33,1.33,0,1,1,2.2,1.51Zm1-31.91a1.34,1.34,0,1,1-1.26,2.36,5.6,5.6,0,0,0-7.62,7.41,1.7,1.7,0,0,1,.24.58,6.53,6.53,0,0,1-4.3,8.66,1.12,1.12,0,0,1-.36,0,1.34,1.34,0,0,1-.37-2.62,3.83,3.83,0,0,0,2.36-1.9,3.87,3.87,0,0,0-1.59-5.24,3.82,3.82,0,0,0-3.75.06,1.33,1.33,0,1,1-1.32-2.32,6.48,6.48,0,0,1,5.93-.28,8.36,8.36,0,0,1,.94-3.39A8.21,8.21,0,0,1,42.52,88.15Zm.21-42.94a1.34,1.34,0,0,1-1.31,1.09,1.07,1.07,0,0,1-.25,0,1.34,1.34,0,0,1-1.06-1.56A3.67,3.67,0,0,0,39.54,42a3.66,3.66,0,0,0-5.07-1,1.32,1.32,0,0,1-1.85-.35A1.34,1.34,0,0,1,33,38.78a6.32,6.32,0,0,1,9.76,6.43Z"/><path class="cls-3" d="M69.38,114.27H53.05v4.32c0,6.63,6.26,12,14,12a16.56,16.56,0,0,0,2.35-.18Z"/><path class="cls-4" d="M69.38,114.27v16.14c6.6-1,11.63-5.88,11.63-11.82a10.71,10.71,0,0,0-.14-1.61,20.28,20.28,0,0,0,4.83-2.44v-.27Z"/><path class="cls-5" d="M85.7,114.54l.36-.27H85.7Z"/><path class="cls-4" d="M55.75,64.6a4.74,4.74,0,0,1,.38.7H69.38V49H53.05v8.9a8.8,8.8,0,0,0,1.46,4.86Z"/><rect class="cls-6" x="69.38" y="48.97" width="16.32" height="16.32"/><path class="cls-5" d="M85.7,65.3h12a20.6,20.6,0,0,0-6.28-5.23A14.39,14.39,0,0,0,90,49H85.7Z"/><path class="cls-6" d="M67,27.21a14.61,14.61,0,0,0-11.69,5.44h14V27.39A16.56,16.56,0,0,0,67,27.21Z"/><path class="cls-5" d="M69.38,27.39v5.26h9.35A14.29,14.29,0,0,0,69.38,27.39Z"/><rect class="cls-6" x="53.05" y="81.62" width="16.32" height="16.32"/><rect class="cls-5" x="69.38" y="81.62" width="16.32" height="16.32"/><rect class="cls-6" x="142.07" y="15.51" width="16.32" height="16.32"/><path class="cls-4" d="M92.49,98a14.89,14.89,0,0,0-.61-1.89,19.59,19.59,0,0,0,9.88-14.44H85.7V98Z"/><path class="cls-5" d="M69.38,98H53.05v1.34a6.24,6.24,0,0,0,1,3.41,6.19,6.19,0,0,1,.18,6.39l-.37.65a6.33,6.33,0,0,0-.82,3.1v1.43H69.38Z"/><rect class="cls-6" x="69.38" y="97.95" width="16.32" height="16.32"/><path class="cls-5" d="M85.7,114.27h.36A15.82,15.82,0,0,0,93,101.53,14.12,14.12,0,0,0,92.49,98H85.7Z"/><path class="cls-4" d="M69.38,65.3H56.13a5.16,5.16,0,0,1-1,5.74l-.31.33a6.42,6.42,0,0,0-1.81,4.49v5.76H69.38Z"/><rect class="cls-6" x="69.38" y="65.3" width="16.32" height="16.32"/><path class="cls-7" d="M85.7,65.3V81.62h16.06a22.79,22.79,0,0,0,.27-3.43A20.42,20.42,0,0,0,97.7,65.3Z"/><path class="cls-8" d="M69.38,32.65h-14a10.78,10.78,0,0,0-2.29,6.56V49H69.38Z"/><path class="cls-9" d="M81,39.21a10.77,10.77,0,0,0-2.28-6.56H69.38V49H85.7V44.05a20.13,20.13,0,0,0-4.9-2.86A9.92,9.92,0,0,0,81,39.21Z"/><path class="cls-5" d="M90,49a17.06,17.06,0,0,0-4.27-4.92V49Z"/><rect class="cls-5" x="85.7" y="48.97" width="16.32" height="16.32"/><rect class="cls-6" x="102.03" y="32.65" width="16.32" height="16.32"/><rect class="cls-6" x="102.03" width="16.32" height="16.32"/><rect class="cls-8" x="118.35" y="48.97" width="16.32" height="16.32"/><rect class="cls-3" x="85.7" y="16.32" width="16.32" height="16.32"/><rect class="cls-7" x="69.38" y="32.65" width="16.32" height="16.32"/></g></g></g></svg>