<svg xmlns="http://www.w3.org/2000/svg" viewBox="0 0 229.35 189.09"><defs><style>.cls-1{opacity:0.46;}.cls-2,.cls-3,.cls-4,.cls-5,.cls-6,.cls-7,.cls-8,.cls-9{fill:#002b38;}.cls-2{opacity:0.57;}.cls-3{opacity:0.6;}.cls-4{opacity:0.49;}.cls-6{opacity:0.41;}.cls-7{opacity:0.72;}.cls-8{opacity:0.31;}.cls-9{opacity:0.37;}</style></defs><title>brain</title><g id="Layer_2" data-name="Layer 2"><g id="Capa_2" data-name="Capa 2"><g class="cls-1"><path class="cls-2" d="M51.5,39.39c-10.7,0-19.41,7.13-19.41,15.9a12.89,12.89,0,0,0,.28,2.56c0,.08,0,.15,0,.22a.9.9,0,0,1,0,.16c0,3.17,1.38,6.32,4.09,9.35a1.93,1.93,0,0,1-1.44,3.22,1.91,1.91,0,0,1-1.44-.64A20.85,20.85,0,0,1,29.66,64a2.57,2.57,0,0,0-3.82-1.13C19.36,67.11,15.4,73.67,15.4,80.63v.22a2.59,2.59,0,0,0,3.24,2.42,28.61,28.61,0,0,1,6.62-.77,30.17,30.17,0,0,1,10.16,1.78,11.47,11.47,0,0,1,15.28-.74,1.93,1.93,0,0,1-2.39,3,7.57,7.57,0,0,0-2.64-1.44,7.67,7.67,0,0,0-9.77,8.26,7.57,7.57,0,0,0,2.77,5,2,2,0,0,1,.19.22,1.66,1.66,0,0,1,.21.16,11.22,11.22,0,0,1,2.86,7.68A11.52,11.52,0,0,1,36.87,116a1.93,1.93,0,0,1-2.22-3.16,7.44,7.44,0,0,0,3.22-4.42,7.92,7.92,0,0,0-1.66-7l-3.56-6.12a4.65,4.65,0,0,1-.63-1.9,11.47,11.47,0,0,1,1.07-5.82,26.49,26.49,0,0,0-7.83-1.19,25.66,25.66,0,0,0-15.63,5.4A27.6,27.6,0,0,0,0,113.18c0,10.53,4.89,19.16,13.77,24.42a18.88,18.88,0,0,0,8.4,2,1.94,1.94,0,0,1,0,3.87,23.17,23.17,0,0,1-5-.55,2.53,2.53,0,0,0-3.08,2,17.86,17.86,0,0,0-.25,3c0,8.09,5.12,15.41,13.34,19.52a4.61,4.61,0,0,0,5-.66l1.59-1.36a1.93,1.93,0,0,1,2.5,2.94l-4.1,3.51a12,12,0,0,0-.1,1.4c0,8.76,8.71,15.89,19.41,15.89S70.91,182,70.91,173.2v-8.54a7.16,7.16,0,0,0-1-3.64l-.56-1a11.69,11.69,0,0,1-.79-1.68,2.08,2.08,0,0,0-2.84-1.17c-.27.13-.54.25-.82.36a2,2,0,0,1-.71.13,1.93,1.93,0,0,1-1.44-.64,2,2,0,0,1,.84-3.13,12.13,12.13,0,0,0,5.34-4.24,1.34,1.34,0,0,1,.21-.2c.17-.33.34-.65.54-1a7.25,7.25,0,0,0,1.22-4v-34.8a7.5,7.5,0,0,0-2.19-5.3l-.34-.34-.07,0a9.39,9.39,0,0,0-6.69-2.77,9.72,9.72,0,0,0-1.87.18A1.93,1.93,0,0,1,59,97.65a13.56,13.56,0,0,1,2.63-.26h.59a3.6,3.6,0,0,0,3.62-2.69,9.34,9.34,0,0,1,1.29-2.8L69,89.14A10.89,10.89,0,0,0,70.91,83V55.29C70.91,46.52,62.2,39.39,51.5,39.39ZM24,122.08a1.92,1.92,0,0,1-2.42,1.27,9.18,9.18,0,0,1-4.08-14.91,1.93,1.93,0,1,1,2.86,2.6,5.3,5.3,0,0,0,2.37,8.62A1.94,1.94,0,0,1,24,122.08Zm36.23,51.76a9.18,9.18,0,0,1-7.56,4,9.06,9.06,0,0,1-5.17-1.61,1.94,1.94,0,0,1-.5-2.69,1.92,1.92,0,0,1,2.68-.49A5.3,5.3,0,0,0,57,171.65a1.93,1.93,0,1,1,3.19,2.19Zm1.39-46.2a1.93,1.93,0,0,1-1.82,3.41,8.12,8.12,0,0,0-11,10.74,2.17,2.17,0,0,1,.36.83,9.47,9.47,0,0,1-6.23,12.54,1.88,1.88,0,0,1-.53.07,1.93,1.93,0,0,1-.52-3.79,5.61,5.61,0,1,0-4.32-10.26,1.93,1.93,0,1,1-1.92-3.36,9.37,9.37,0,0,1,8.6-.39,11.84,11.84,0,0,1,17.43-9.79Zm.3-62.18A1.93,1.93,0,0,1,60,67a2.19,2.19,0,0,1-.36,0,1.93,1.93,0,0,1-1.53-2.26,5.3,5.3,0,0,0-4.21-6.21,5.24,5.24,0,0,0-4,.82,1.93,1.93,0,0,1-2.17-3.2,9.16,9.16,0,0,1,14.13,9.31Z"/><path class="cls-3" d="M100.45,165.45H76.82v6.26c0,9.6,9.06,17.38,20.24,17.38a23.51,23.51,0,0,0,3.39-.26Z"/><path class="cls-4" d="M100.45,165.45v23.38c9.56-1.39,16.84-8.52,16.84-17.12a14.82,14.82,0,0,0-.2-2.32,29.72,29.72,0,0,0,7-3.55v-.39Z"/><path class="cls-5" d="M124.09,165.84l.53-.39h-.53Z"/><path class="cls-4" d="M80.73,93.54a8.13,8.13,0,0,1,.55,1h19.17V70.91H76.82V83.79a12.73,12.73,0,0,0,2.11,7Z"/><rect class="cls-6" x="100.45" y="70.91" width="23.64" height="23.64"/><path class="cls-5" d="M124.09,94.54h17.37a29.75,29.75,0,0,0-9.1-7.56,21,21,0,0,0,.76-5.5,21.21,21.21,0,0,0-2.85-10.57h-6.18Z"/><path class="cls-6" d="M97.06,39.39a21.22,21.22,0,0,0-16.94,7.88h20.33V39.66A23.5,23.5,0,0,0,97.06,39.39Z"/><path class="cls-5" d="M100.45,39.66v7.61H114A20.68,20.68,0,0,0,100.45,39.66Z"/><rect class="cls-6" x="76.82" y="118.18" width="23.64" height="23.64"/><rect class="cls-5" x="100.45" y="118.18" width="23.64" height="23.64"/><rect class="cls-6" x="205.71" y="22.46" width="23.64" height="23.64"/><path class="cls-4" d="M133.92,141.82a23.67,23.67,0,0,0-.89-2.74,28.35,28.35,0,0,0,14.32-20.9H124.09v23.64Z"/><path class="cls-5" d="M100.45,141.82H76.82v1.94a9.08,9.08,0,0,0,1.45,4.94,9,9,0,0,1,.26,9.26l-.53.93a9.12,9.12,0,0,0-1.18,4.49v2.07h23.63Z"/><rect class="cls-6" x="100.45" y="141.82" width="23.64" height="23.64"/><path class="cls-5" d="M124.09,165.45h.53c6.1-4.43,10-11,10-18.44a20.75,20.75,0,0,0-.69-5.19h-9.83Z"/><path class="cls-4" d="M100.45,94.54H81.28a7.51,7.51,0,0,1-1.39,8.33l-.46.46a9.37,9.37,0,0,0-2.61,6.5v8.35h23.63Z"/><rect class="cls-6" x="100.45" y="94.54" width="23.64" height="23.64"/><path class="cls-7" d="M124.09,94.54v23.64h23.26a33.9,33.9,0,0,0,.38-5,29.54,29.54,0,0,0-6.27-18.67Z"/><path class="cls-8" d="M100.45,47.27H80.12a15.6,15.6,0,0,0-3.3,9.5V70.91h23.63Z"/><path class="cls-9" d="M117.29,56.77a15.6,15.6,0,0,0-3.3-9.5H100.45V70.91h23.64V63.78A28.8,28.8,0,0,0,117,59.64,15.1,15.1,0,0,0,117.29,56.77Z"/><path class="cls-5" d="M130.27,70.91a24.78,24.78,0,0,0-6.18-7.13v7.13Z"/><rect class="cls-5" x="124.09" y="70.91" width="23.64" height="23.64"/><rect class="cls-6" x="147.73" y="47.27" width="23.64" height="23.64"/><rect class="cls-6" x="147.73" width="23.64" height="23.64"/><rect class="cls-8" x="171.36" y="70.91" width="23.64" height="23.64"/><rect class="cls-3" x="124.09" y="23.64" width="23.64" height="23.64"/><rect class="cls-7" x="100.45" y="47.27" width="23.64" height="23.64"/></g></g></g></svg>