<svg xmlns="http://www.w3.org/2000/svg" viewBox="0 0 325.81 49.63"><defs><style>.cls-1{fill:#020101;}</style></defs><title>Asset 1</title><g id="Layer_2" data-name="Layer 2"><g id="Capa_2" data-name="Capa 2"><path class="cls-1" d="M83,40.46,68.11,7.92a.81.81,0,0,0-.82-.54h-.48a.86.86,0,0,0-.82.54L51,40.46a.85.85,0,0,0,.82,1.25H56a1.46,1.46,0,0,0,1.4-1l2.37-5.22H74.21l2.37,5.22a1.38,1.38,0,0,0,1.4,1h4.2A.85.85,0,0,0,83,40.46M62.12,30.15l4.74-10.63H67l4.84,10.63Z"/><path class="cls-1" d="M86.75,41.71H98.21a16.92,16.92,0,1,0,0-33.84H86.75a.9.9,0,0,0-.87.91v32a.9.9,0,0,0,.87.92m5.36-28h5.51a10.67,10.67,0,0,1,10.89,11A10.68,10.68,0,0,1,97.62,35.81H92.11Z"/><path class="cls-1" d="M118.92,41.71H138.6a.92.92,0,0,0,.92-.92v-4a.92.92,0,0,0-.92-.92H124.29V27.45h11.94a.92.92,0,0,0,.92-.92v-4a.94.94,0,0,0-.92-.92H124.29V13.67H138.6a.92.92,0,0,0,.92-.92v-4a.92.92,0,0,0-.92-.92H118.92a.92.92,0,0,0-.92.92v32a.92.92,0,0,0,.92.92"/><path class="cls-1" d="M142.92,41.71h4.4a.92.92,0,0,0,.92-.92V20h0L168.5,42.2h1.16a.91.91,0,0,0,.92-.87V8.79a1,1,0,0,0-.92-.92h-4.45a.92.92,0,0,0-.92.92v20h0L144.13,7.38h-1.21a.91.91,0,0,0-.92.87V40.79a.94.94,0,0,0,.92.92"/><path class="cls-1" d="M186.23,22.07h-2.66V7.79h2.66Z"/><path class="cls-1" d="M189.7,22.07V11.94h1.49a.61.61,0,0,1,.62.44l.17.8a5,5,0,0,1,.65-.57,3.75,3.75,0,0,1,.72-.44,3.54,3.54,0,0,1,.81-.29,4.07,4.07,0,0,1,1-.1,3.6,3.6,0,0,1,1.47.28,2.93,2.93,0,0,1,1.07.79,3.48,3.48,0,0,1,.65,1.22,5,5,0,0,1,.22,1.55v6.45h-2.43V15.62a2.16,2.16,0,0,0-.43-1.43,1.6,1.6,0,0,0-1.29-.51,2.57,2.57,0,0,0-1.19.28,4.16,4.16,0,0,0-1,.78v7.33Z"/><path class="cls-1" d="M204.64,22.22a2.64,2.64,0,0,1-2-.74,2.88,2.88,0,0,1-.71-2.06V13.77h-1a.47.47,0,0,1-.48-.52v-1L202,12l.51-2.77a.51.51,0,0,1,.18-.3.55.55,0,0,1,.36-.11h1.27V12H207v1.74h-2.66v5.48a1.09,1.09,0,0,0,.23.74.8.8,0,0,0,.63.27,1.42,1.42,0,0,0,.39-.05l.26-.12a1.2,1.2,0,0,0,.2-.11.31.31,0,0,1,.18-.05.27.27,0,0,1,.18.05,1.2,1.2,0,0,1,.15.16l.73,1.19a3.86,3.86,0,0,1-1.23.67A4.55,4.55,0,0,1,204.64,22.22Z"/><path class="cls-1" d="M213.54,11.78a4.83,4.83,0,0,1,1.76.31,3.81,3.81,0,0,1,1.39.89,4.05,4.05,0,0,1,.9,1.44,5.39,5.39,0,0,1,.33,2,2.86,2.86,0,0,1,0,.46.72.72,0,0,1-.08.29.44.44,0,0,1-.18.15,1,1,0,0,1-.27,0H211.1a3.47,3.47,0,0,0,.84,2.29,2.59,2.59,0,0,0,1.93.73,3.35,3.35,0,0,0,1-.14,3.77,3.77,0,0,0,.75-.31l.57-.3a.94.94,0,0,1,.46-.14.53.53,0,0,1,.26.06.61.61,0,0,1,.19.17l.71.89a4,4,0,0,1-.91.79,4.63,4.63,0,0,1-1,.51,6.23,6.23,0,0,1-1.11.28,8.48,8.48,0,0,1-1.11.07,5.29,5.29,0,0,1-2-.35,4.37,4.37,0,0,1-1.58-1,4.79,4.79,0,0,1-1.05-1.7,6.48,6.48,0,0,1-.39-2.34,5.66,5.66,0,0,1,.33-1.95,4.75,4.75,0,0,1,1-1.59,4.54,4.54,0,0,1,1.53-1.07A4.92,4.92,0,0,1,213.54,11.78Zm.05,1.75a2.25,2.25,0,0,0-1.67.6,3,3,0,0,0-.77,1.71h4.58a3.26,3.26,0,0,0-.13-.9,2.16,2.16,0,0,0-.4-.73,1.79,1.79,0,0,0-.67-.5A2.28,2.28,0,0,0,213.59,13.53Z"/><path class="cls-1" d="M220.3,22.07V11.94h1.43a.77.77,0,0,1,.52.14.76.76,0,0,1,.2.47l.15,1.22a4.89,4.89,0,0,1,1.27-1.48,2.69,2.69,0,0,1,1.64-.54,2.11,2.11,0,0,1,1.24.35l-.31,1.82a.34.34,0,0,1-.13.25.46.46,0,0,1-.27.08,1.46,1.46,0,0,1-.4-.07,2.53,2.53,0,0,0-.68-.07,2.1,2.1,0,0,0-1.31.42,3.14,3.14,0,0,0-.91,1.23v6.31Z"/><path class="cls-1" d="M228.76,22.07V11.94h1.49a.61.61,0,0,1,.62.44l.17.8a5.68,5.68,0,0,1,.64-.57,4.48,4.48,0,0,1,.72-.44,3.8,3.8,0,0,1,.82-.29,4,4,0,0,1,.95-.1,3.6,3.6,0,0,1,1.47.28,3,3,0,0,1,1.07.79,3.65,3.65,0,0,1,.65,1.22,5,5,0,0,1,.22,1.55v6.45h-2.44V15.62a2.11,2.11,0,0,0-.43-1.43,1.57,1.57,0,0,0-1.28-.51,2.54,2.54,0,0,0-1.19.28,4,4,0,0,0-1,.78v7.33Z"/><path class="cls-1" d="M248.31,22.07h-1.1a1.15,1.15,0,0,1-.54-.11.65.65,0,0,1-.29-.42l-.22-.72a7.81,7.81,0,0,1-.76.61,4.16,4.16,0,0,1-.76.44,3.75,3.75,0,0,1-.84.27,5.09,5.09,0,0,1-1,.08,3.74,3.74,0,0,1-1.18-.17,2.49,2.49,0,0,1-.93-.52,2.32,2.32,0,0,1-.61-.86,3,3,0,0,1-.22-1.2,2.36,2.36,0,0,1,.3-1.13,2.83,2.83,0,0,1,1-1,6.48,6.48,0,0,1,1.87-.75,11.82,11.82,0,0,1,2.89-.3v-.59a2.24,2.24,0,0,0-.43-1.52,1.55,1.55,0,0,0-1.25-.49,3.06,3.06,0,0,0-1,.13,4,4,0,0,0-.69.32l-.54.31a1.08,1.08,0,0,1-.54.13.72.72,0,0,1-.42-.12,1,1,0,0,1-.29-.32l-.45-.78a6,6,0,0,1,4.22-1.6,4.12,4.12,0,0,1,1.58.29,3.36,3.36,0,0,1,1.92,2.05,4.72,4.72,0,0,1,.25,1.58Zm-4.74-1.52a3.66,3.66,0,0,0,.69-.07,2.51,2.51,0,0,0,.6-.21,3,3,0,0,0,.54-.33,4.47,4.47,0,0,0,.53-.47v-1.7a9.8,9.8,0,0,0-1.78.14,4.68,4.68,0,0,0-1.15.34,1.52,1.52,0,0,0-.62.49,1.23,1.23,0,0,0,.2,1.53A1.66,1.66,0,0,0,243.57,20.55Z"/><path class="cls-1" d="M254.43,22.22a2.64,2.64,0,0,1-2-.74,2.84,2.84,0,0,1-.71-2.06V13.77h-1a.51.51,0,0,1-.34-.13.49.49,0,0,1-.14-.39v-1l1.63-.26.51-2.77a.47.47,0,0,1,.18-.3.55.55,0,0,1,.36-.11h1.26V12h2.67v1.74h-2.67v5.48a1,1,0,0,0,.24.74.8.8,0,0,0,.63.27,1.35,1.35,0,0,0,.38-.05l.27-.12.2-.11a.31.31,0,0,1,.18-.05.27.27,0,0,1,.18.05l.15.16.73,1.19a3.86,3.86,0,0,1-1.23.67A4.59,4.59,0,0,1,254.43,22.22Z"/><path class="cls-1" d="M262.1,9a1.31,1.31,0,0,1-.13.59,1.5,1.5,0,0,1-.34.48,1.64,1.64,0,0,1-.5.34,1.59,1.59,0,0,1-1.21,0,1.67,1.67,0,0,1-.48-.34,1.47,1.47,0,0,1-.33-.48A1.31,1.31,0,0,1,259,9a1.39,1.39,0,0,1,.13-.61,1.56,1.56,0,0,1,.33-.5,1.47,1.47,0,0,1,.48-.33,1.59,1.59,0,0,1,1.21,0,1.45,1.45,0,0,1,.5.33,1.58,1.58,0,0,1,.34.5A1.39,1.39,0,0,1,262.1,9Zm-.36,2.95V22.07H259.3V11.94Z"/><path class="cls-1" d="M269.21,11.78a5.47,5.47,0,0,1,2.06.37,4.47,4.47,0,0,1,1.57,1,4.63,4.63,0,0,1,1,1.64A6.44,6.44,0,0,1,274.2,17a6.37,6.37,0,0,1-.35,2.17,4.59,4.59,0,0,1-1,1.65,4.26,4.26,0,0,1-1.57,1.05,5.68,5.68,0,0,1-2.06.36,5.6,5.6,0,0,1-2.06-.36,4.33,4.33,0,0,1-1.59-1.05,4.61,4.61,0,0,1-1-1.65,6.13,6.13,0,0,1-.36-2.17,6.2,6.2,0,0,1,.36-2.16,4.65,4.65,0,0,1,1-1.64,4.55,4.55,0,0,1,1.59-1A5.4,5.4,0,0,1,269.21,11.78Zm0,8.56a2.14,2.14,0,0,0,1.87-.85,4.29,4.29,0,0,0,.61-2.49,4.31,4.31,0,0,0-.61-2.49,2.13,2.13,0,0,0-1.87-.86,2.16,2.16,0,0,0-1.9.86A4.28,4.28,0,0,0,266.7,17a4.24,4.24,0,0,0,.61,2.49A2.2,2.2,0,0,0,269.21,20.34Z"/><path class="cls-1" d="M276.5,22.07V11.94H278a.59.59,0,0,1,.62.44l.17.8a5.77,5.77,0,0,1,.65-.57,4.48,4.48,0,0,1,.72-.44,3.54,3.54,0,0,1,.81-.29,4.07,4.07,0,0,1,1-.1,3.6,3.6,0,0,1,1.47.28,2.85,2.85,0,0,1,1.07.79,3.33,3.33,0,0,1,.65,1.22,5,5,0,0,1,.23,1.55v6.45h-2.44V15.62a2.11,2.11,0,0,0-.43-1.43,1.6,1.6,0,0,0-1.29-.51A2.53,2.53,0,0,0,280,14a4.21,4.21,0,0,0-1.05.78v7.33Z"/><path class="cls-1" d="M296.06,22.07H295a1.15,1.15,0,0,1-.54-.11.7.7,0,0,1-.3-.42l-.22-.72a6.7,6.7,0,0,1-.75.61,4.24,4.24,0,0,1-.77.44,3.84,3.84,0,0,1-.83.27,5.09,5.09,0,0,1-1,.08,3.7,3.7,0,0,1-1.18-.17,2.39,2.39,0,0,1-1.55-1.38,3.14,3.14,0,0,1-.21-1.2,2.36,2.36,0,0,1,.3-1.13,2.75,2.75,0,0,1,1-1,6.48,6.48,0,0,1,1.87-.75,11.76,11.76,0,0,1,2.89-.3v-.59a2.3,2.3,0,0,0-.43-1.52,1.56,1.56,0,0,0-1.25-.49,3.13,3.13,0,0,0-1,.13,3.93,3.93,0,0,0-.68.32l-.54.31a1.13,1.13,0,0,1-.54.13.75.75,0,0,1-.43-.12,1.11,1.11,0,0,1-.29-.32l-.44-.78a6,6,0,0,1,4.22-1.6,4.12,4.12,0,0,1,1.58.29,3.54,3.54,0,0,1,1.18.81,3.42,3.42,0,0,1,.73,1.24,4.72,4.72,0,0,1,.26,1.58Zm-4.74-1.52a3.66,3.66,0,0,0,.69-.07,2.51,2.51,0,0,0,.6-.21,3.92,3.92,0,0,0,.54-.33,5.43,5.43,0,0,0,.53-.47v-1.7a9.72,9.72,0,0,0-1.78.14,4.68,4.68,0,0,0-1.15.34,1.45,1.45,0,0,0-.62.49,1.08,1.08,0,0,0-.18.6,1.06,1.06,0,0,0,.38.93A1.66,1.66,0,0,0,291.32,20.55Z"/><path class="cls-1" d="M301.45,7.4V22.07H299V7.4Z"/><path class="cls-1" d="M183.24,42.15V27.88h4.93a9.2,9.2,0,0,1,2.39.27,4.4,4.4,0,0,1,1.63.76,2.89,2.89,0,0,1,.93,1.19,4,4,0,0,1,.3,1.58,3,3,0,0,1-.15,1,2.65,2.65,0,0,1-.46.86,3.28,3.28,0,0,1-.79.73,5,5,0,0,1-1.14.55q2.94.66,2.94,3.18a4.1,4.1,0,0,1-.34,1.68,3.7,3.7,0,0,1-1,1.32,4.63,4.63,0,0,1-1.63.88,7.11,7.11,0,0,1-2.21.31Zm2.66-8.09H188a3.53,3.53,0,0,0,2-.49,1.79,1.79,0,0,0,.7-1.57,1.85,1.85,0,0,0-.63-1.59,3.26,3.26,0,0,0-2-.48H185.9Zm0,1.84v4.18h2.69a3.65,3.65,0,0,0,1.24-.18,2.15,2.15,0,0,0,.8-.47,1.81,1.81,0,0,0,.44-.69,2.89,2.89,0,0,0,.13-.84,2.16,2.16,0,0,0-.15-.83,1.61,1.61,0,0,0-.46-.64,2.36,2.36,0,0,0-.81-.4,4.63,4.63,0,0,0-1.2-.13Z"/><path class="cls-1" d="M198.59,32v6.43A2.15,2.15,0,0,0,199,39.9a1.6,1.6,0,0,0,1.29.51,2.51,2.51,0,0,0,1.18-.29,3.93,3.93,0,0,0,1-.77V32H205V42.15h-1.49a.58.58,0,0,1-.62-.44l-.17-.81c-.21.21-.43.4-.65.58a4.08,4.08,0,0,1-.72.44,4.18,4.18,0,0,1-.82.29,4,4,0,0,1-.94.1A3.6,3.6,0,0,1,198.1,42a3,3,0,0,1-1.07-.79,3.41,3.41,0,0,1-.65-1.22,5.11,5.11,0,0,1-.23-1.56V32Z"/><path class="cls-1" d="M214,34a.56.56,0,0,1-.21.22.45.45,0,0,1-.27.07.94.94,0,0,1-.38-.1l-.47-.22a3.9,3.9,0,0,0-.61-.23,3.18,3.18,0,0,0-.8-.1,1.93,1.93,0,0,0-1.14.31.93.93,0,0,0-.41.8.77.77,0,0,0,.21.55,1.85,1.85,0,0,0,.56.39,5.61,5.61,0,0,0,.8.3l.9.29c.31.11.62.23.91.36a3.64,3.64,0,0,1,.8.51,2.46,2.46,0,0,1,.56.75,2.4,2.4,0,0,1,.21,1.05,3.48,3.48,0,0,1-.26,1.34,3,3,0,0,1-.78,1.07,3.79,3.79,0,0,1-1.27.7,5.45,5.45,0,0,1-1.74.25,5.77,5.77,0,0,1-1-.09,7.53,7.53,0,0,1-1-.26,6.52,6.52,0,0,1-.84-.4,4,4,0,0,1-.69-.49l.56-.93a.92.92,0,0,1,.26-.26.7.7,0,0,1,.37-.08.8.8,0,0,1,.43.12l.47.28a3.72,3.72,0,0,0,.63.27,2.62,2.62,0,0,0,.91.13,2.39,2.39,0,0,0,.75-.1,1.53,1.53,0,0,0,.51-.27,1,1,0,0,0,.3-.39,1.22,1.22,0,0,0,.09-.46.81.81,0,0,0-.21-.58,2.06,2.06,0,0,0-.56-.4,6.11,6.11,0,0,0-.8-.3c-.3-.09-.61-.18-.92-.29s-.62-.23-.92-.37a3,3,0,0,1-.8-.54,2.45,2.45,0,0,1-.56-.8,2.76,2.76,0,0,1-.21-1.14,3,3,0,0,1,.24-1.19,2.89,2.89,0,0,1,.73-1,3.69,3.69,0,0,1,1.19-.67,5,5,0,0,1,1.66-.25,5.06,5.06,0,0,1,1.9.34,4.39,4.39,0,0,1,1.43.91Z"/><path class="cls-1" d="M220,29.07a1.38,1.38,0,0,1-.13.6,1.45,1.45,0,0,1-.34.48,1.51,1.51,0,0,1-.49.33,1.63,1.63,0,0,1-.62.12,1.45,1.45,0,0,1-.59-.12,1.51,1.51,0,0,1-.49-.33,1.58,1.58,0,0,1-.33-.48,1.38,1.38,0,0,1-.13-.6,1.42,1.42,0,0,1,.13-.61,1.54,1.54,0,0,1,.82-.82,1.45,1.45,0,0,1,.59-.13,1.64,1.64,0,0,1,.62.13,1.51,1.51,0,0,1,.49.33,1.39,1.39,0,0,1,.34.49A1.42,1.42,0,0,1,220,29.07Zm-.36,3V42.15h-2.44V32Z"/><path class="cls-1" d="M222.75,42.15V32h1.49a.59.59,0,0,1,.62.44l.17.8a5.68,5.68,0,0,1,.64-.57,5.41,5.41,0,0,1,.72-.45,3.78,3.78,0,0,1,.82-.28,4,4,0,0,1,.94-.1,3.62,3.62,0,0,1,1.48.28,3,3,0,0,1,1.07.79,3.6,3.6,0,0,1,.65,1.21,5.11,5.11,0,0,1,.22,1.56v6.44h-2.44V35.71a2.15,2.15,0,0,0-.43-1.44,1.57,1.57,0,0,0-1.29-.51,2.54,2.54,0,0,0-1.18.29,4.21,4.21,0,0,0-1,.78v7.32Z"/><path class="cls-1" d="M238.55,31.87a5,5,0,0,1,1.76.3,4,4,0,0,1,1.39.9,4.07,4.07,0,0,1,.91,1.44,5.61,5.61,0,0,1,.32,2c0,.18,0,.34,0,.46a.84.84,0,0,1-.09.28.35.35,0,0,1-.17.15.78.78,0,0,1-.28,0h-6.26a3.49,3.49,0,0,0,.84,2.29,2.65,2.65,0,0,0,1.94.73,3.44,3.44,0,0,0,1-.14,5.3,5.3,0,0,0,.75-.31l.56-.3a.88.88,0,0,1,.47-.14.55.55,0,0,1,.26.06.55.55,0,0,1,.18.16l.71.89a4.24,4.24,0,0,1-.9.8,5.44,5.44,0,0,1-1.06.51,5.29,5.29,0,0,1-1.11.27,7,7,0,0,1-1.1.08,5.51,5.51,0,0,1-2-.35,4.5,4.5,0,0,1-1.58-1,4.94,4.94,0,0,1-1.05-1.7,6.54,6.54,0,0,1-.39-2.35,5.48,5.48,0,0,1,.34-1.95,4.49,4.49,0,0,1,2.49-2.66A5.08,5.08,0,0,1,238.55,31.87Zm0,1.74a2.27,2.27,0,0,0-1.67.61,3,3,0,0,0-.77,1.71h4.58a2.92,2.92,0,0,0-.13-.9,1.91,1.91,0,0,0-.39-.73,1.87,1.87,0,0,0-.67-.5A2.33,2.33,0,0,0,238.6,33.61Z"/><path class="cls-1" d="M251.32,34a.5.5,0,0,1-.21.22.45.45,0,0,1-.27.07.94.94,0,0,1-.38-.1L250,34a3.9,3.9,0,0,0-.61-.23,3.06,3.06,0,0,0-.8-.1,1.93,1.93,0,0,0-1.14.31,1,1,0,0,0-.41.8.77.77,0,0,0,.21.55,1.85,1.85,0,0,0,.56.39,6.11,6.11,0,0,0,.8.3l.91.29c.3.11.61.23.9.36a3.42,3.42,0,0,1,.8.51,2.46,2.46,0,0,1,.56.75A2.4,2.4,0,0,1,252,39a3.48,3.48,0,0,1-.26,1.34,3,3,0,0,1-.78,1.07,3.79,3.79,0,0,1-1.27.7,5.43,5.43,0,0,1-1.73.25,5.89,5.89,0,0,1-1-.09A7,7,0,0,1,246,42a6.08,6.08,0,0,1-.85-.4,4,4,0,0,1-.69-.49l.56-.93a.92.92,0,0,1,.26-.26.74.74,0,0,1,.38-.08.85.85,0,0,1,.43.12c.13.09.29.18.46.28a3.72,3.72,0,0,0,.63.27,2.68,2.68,0,0,0,.92.13,2.37,2.37,0,0,0,.74-.1,1.53,1.53,0,0,0,.51-.27.94.94,0,0,0,.3-.39,1.22,1.22,0,0,0,.09-.46.81.81,0,0,0-.21-.58,2.06,2.06,0,0,0-.56-.4,6.11,6.11,0,0,0-.8-.3c-.3-.09-.61-.18-.92-.29s-.62-.23-.92-.37a3.13,3.13,0,0,1-.8-.54,2.45,2.45,0,0,1-.56-.8,2.76,2.76,0,0,1-.21-1.14,3,3,0,0,1,.24-1.19,2.89,2.89,0,0,1,.73-1,3.69,3.69,0,0,1,1.19-.67,5,5,0,0,1,1.66-.25,5,5,0,0,1,1.9.34,4.43,4.43,0,0,1,1.44.91Z"/><path class="cls-1" d="M260.34,34a.54.54,0,0,1-.2.22.51.51,0,0,1-.28.07,1,1,0,0,1-.38-.1L259,34a3.9,3.9,0,0,0-.61-.23,3.06,3.06,0,0,0-.8-.1,1.87,1.87,0,0,0-1.13.31.94.94,0,0,0-.42.8.77.77,0,0,0,.21.55,1.79,1.79,0,0,0,.57.39,5.46,5.46,0,0,0,.79.3l.91.29c.31.11.61.23.91.36a3.57,3.57,0,0,1,.79.51,2.46,2.46,0,0,1,.56.75A2.39,2.39,0,0,1,261,39a3.31,3.31,0,0,1-.27,1.34,3,3,0,0,1-.78,1.07,3.7,3.7,0,0,1-1.27.7,5.39,5.39,0,0,1-1.73.25,5.69,5.69,0,0,1-1-.09,7.11,7.11,0,0,1-1-.26,6.08,6.08,0,0,1-.85-.4,4,4,0,0,1-.69-.49l.57-.93a.78.78,0,0,1,.25-.26.74.74,0,0,1,.38-.08.85.85,0,0,1,.43.12c.13.09.29.18.47.28a3.29,3.29,0,0,0,.62.27,2.68,2.68,0,0,0,.92.13,2.28,2.28,0,0,0,.74-.1,1.7,1.7,0,0,0,.52-.27,1,1,0,0,0,.29-.39,1.05,1.05,0,0,0,.09-.46.81.81,0,0,0-.21-.58,2.06,2.06,0,0,0-.56-.4,5.61,5.61,0,0,0-.8-.3l-.92-.29c-.31-.11-.62-.23-.92-.37a3.07,3.07,0,0,1-.79-.54,2.33,2.33,0,0,1-.57-.8,2.76,2.76,0,0,1-.21-1.14,2.86,2.86,0,0,1,.25-1.19,2.74,2.74,0,0,1,.72-1,3.64,3.64,0,0,1,1.2-.67,4.89,4.89,0,0,1,1.65-.25,5.11,5.11,0,0,1,1.91.34,4.49,4.49,0,0,1,1.43.91Z"/><path class="cls-1" d="M275.35,30.48a.86.86,0,0,1-.25.3.65.65,0,0,1-.35.09.89.89,0,0,1-.44-.15l-.58-.34a4.47,4.47,0,0,0-.79-.34,3.07,3.07,0,0,0-1.06-.16,3,3,0,0,0-1,.14,2.07,2.07,0,0,0-.69.37,1.39,1.39,0,0,0-.42.57,1.89,1.89,0,0,0-.14.72,1.29,1.29,0,0,0,.28.84,2.47,2.47,0,0,0,.75.57,7.39,7.39,0,0,0,1.05.43c.4.12.8.26,1.21.4a9.87,9.87,0,0,1,1.21.49,4.37,4.37,0,0,1,1.06.71,3.17,3.17,0,0,1,.74,1.05,3.63,3.63,0,0,1,.29,1.51,4.7,4.7,0,0,1-.34,1.81A4.08,4.08,0,0,1,275,41a4.62,4.62,0,0,1-1.56,1,5.71,5.71,0,0,1-2.1.36,6.69,6.69,0,0,1-1.34-.13,7.47,7.47,0,0,1-1.27-.38,7.21,7.21,0,0,1-1.14-.59,5.94,5.94,0,0,1-.94-.77l.77-1.28a1,1,0,0,1,.26-.23.69.69,0,0,1,.34-.09.91.91,0,0,1,.54.2l.67.45a6.07,6.07,0,0,0,.92.45,3.68,3.68,0,0,0,1.27.2,2.61,2.61,0,0,0,1.76-.54,1.94,1.94,0,0,0,.62-1.54,1.48,1.48,0,0,0-.28-.92,2.26,2.26,0,0,0-.75-.6,5.6,5.6,0,0,0-1.05-.41l-1.21-.36a8.83,8.83,0,0,1-1.2-.48,3.68,3.68,0,0,1-1.06-.72,3,3,0,0,1-.74-1.11,4.15,4.15,0,0,1-.29-1.64,3.84,3.84,0,0,1,.32-1.52,3.75,3.75,0,0,1,.9-1.31,4.38,4.38,0,0,1,1.47-.92,5.34,5.34,0,0,1,2-.35,6.48,6.48,0,0,1,2.33.4,5.28,5.28,0,0,1,1.82,1.1Z"/><path class="cls-1" d="M285.66,34.17a1,1,0,0,1-.21.21.45.45,0,0,1-.3.08.59.59,0,0,1-.36-.11l-.43-.26a3,3,0,0,0-.59-.25,2.87,2.87,0,0,0-2,.12,2,2,0,0,0-.8.66,3,3,0,0,0-.48,1.05,5.92,5.92,0,0,0-.16,1.4,5.25,5.25,0,0,0,.18,1.44,3.06,3.06,0,0,0,.49,1.06,2,2,0,0,0,.79.65,2.38,2.38,0,0,0,1.05.23,2.46,2.46,0,0,0,.94-.15,3.15,3.15,0,0,0,.61-.31c.16-.12.31-.22.43-.32a.68.68,0,0,1,.41-.14.5.5,0,0,1,.44.22l.7.89a4.64,4.64,0,0,1-.87.8,5.16,5.16,0,0,1-1,.51,4.77,4.77,0,0,1-1.05.27,6.51,6.51,0,0,1-1.07.08,4.54,4.54,0,0,1-1.77-.35,4,4,0,0,1-1.45-1,5,5,0,0,1-1-1.64,6.15,6.15,0,0,1-.37-2.22,6.33,6.33,0,0,1,.33-2.07,4.64,4.64,0,0,1,.94-1.65,4.43,4.43,0,0,1,1.54-1.09,5.37,5.37,0,0,1,2.11-.39,5.09,5.09,0,0,1,2,.36,5,5,0,0,1,1.53,1.05Z"/><path class="cls-1" d="M288.36,42.15V27.49h2.44v5.63a5.08,5.08,0,0,1,1.3-.91,3.77,3.77,0,0,1,1.67-.34,3.6,3.6,0,0,1,1.47.28,3,3,0,0,1,1.07.79,3.43,3.43,0,0,1,.65,1.21,5.11,5.11,0,0,1,.22,1.56v6.44h-2.44V35.71a2.21,2.21,0,0,0-.42-1.44,1.6,1.6,0,0,0-1.29-.51,2.58,2.58,0,0,0-1.19.29,4,4,0,0,0-1,.78v7.32Z"/><path class="cls-1" d="M304.3,31.87a5.64,5.64,0,0,1,2.06.36,4.49,4.49,0,0,1,1.57,1,4.54,4.54,0,0,1,1,1.64,6.87,6.87,0,0,1,0,4.33,4.59,4.59,0,0,1-1,1.65,4.51,4.51,0,0,1-1.57,1,6.07,6.07,0,0,1-4.12,0,4.6,4.6,0,0,1-1.59-1,4.45,4.45,0,0,1-1-1.65,6.52,6.52,0,0,1,0-4.33,4.41,4.41,0,0,1,1-1.64,4.57,4.57,0,0,1,1.59-1A5.6,5.6,0,0,1,304.3,31.87Zm0,8.56a2.16,2.16,0,0,0,1.87-.85,4.31,4.31,0,0,0,.61-2.49,4.35,4.35,0,0,0-.61-2.5,2.14,2.14,0,0,0-1.87-.86,2.16,2.16,0,0,0-1.9.87,4.31,4.31,0,0,0-.61,2.49,4.28,4.28,0,0,0,.61,2.48A2.18,2.18,0,0,0,304.3,40.43Z"/><path class="cls-1" d="M315.92,31.87a5.68,5.68,0,0,1,2.06.36,4.49,4.49,0,0,1,1.57,1,4.68,4.68,0,0,1,1,1.64,6.87,6.87,0,0,1,0,4.33,4.73,4.73,0,0,1-1,1.65,4.51,4.51,0,0,1-1.57,1,6.1,6.1,0,0,1-4.13,0,4.49,4.49,0,0,1-2.6-2.7,6.69,6.69,0,0,1,0-4.33,4.56,4.56,0,0,1,1-1.64,4.63,4.63,0,0,1,1.58-1A5.69,5.69,0,0,1,315.92,31.87Zm0,8.56a2.17,2.17,0,0,0,1.87-.85,4.32,4.32,0,0,0,.6-2.49,4.35,4.35,0,0,0-.6-2.5,2.49,2.49,0,0,0-3.77,0,4.24,4.24,0,0,0-.61,2.49,4.2,4.2,0,0,0,.61,2.48A2.18,2.18,0,0,0,315.92,40.43Z"/><path class="cls-1" d="M325.81,27.49V42.15h-2.44V27.49Z"/><path class="cls-1" d="M22.73,49.63h0l-.18,0h0C10.24,47,1.07,34.94.06,20.11a.49.49,0,0,1,0-.12c0-.28-.07-1.56-.07-1.56V7.57a1.15,1.15,0,0,1,.57-.9l.09,0A12.66,12.66,0,0,0,6.06.72l0,0s0-.07,0-.07a1.1,1.1,0,0,1,1-.6H38.34a1.09,1.09,0,0,1,1,.6l0,.06a0,0,0,0,0,0,0,12.74,12.74,0,0,0,5.47,6,.36.36,0,0,1,.12.08,1.15,1.15,0,0,1,.53.79V18.4a.7.7,0,0,1,0,.25c-.49,15.42-10,28.42-22.59,31ZM1.39,20c1,14.27,9.73,25.87,21.33,28.27,12-2.49,21-15,21.4-29.91a.87.87,0,0,1,.05-.22V7.79a14,14,0,0,1-6-6.46h-31A14,14,0,0,1,1.33,7.77V18.4c0,.8.07,1.3.06,1.62Z"/><path class="cls-1" d="M32.52,21.28l0,0a0,0,0,0,0,0,0,.48.48,0,0,0-.2,0l-1.89.13-2,.16h-.05a.08.08,0,0,0-.06.09l.09.68a.08.08,0,0,0,.08.07l1.26-.09a1.26,1.26,0,0,0,0,.28,1.35,1.35,0,0,0,.46.71,1.52,1.52,0,0,0,.59.19h0a1.23,1.23,0,0,0,1.33-1.09l0-.25.17,0a.39.39,0,0,0,.21-.08.07.07,0,0,0,0-.07l-.07-.59A.08.08,0,0,0,32.52,21.28Z"/><path class="cls-1" d="M28.43,26.15a.08.08,0,0,0-.09,0,.09.09,0,0,0-.06,0,2.64,2.64,0,0,0-1,1.21A6.15,6.15,0,0,0,27,29.67a6,6,0,0,1-.25,2.13,1.63,1.63,0,0,1-1.34.89h-.16a1.71,1.71,0,0,1-.91-.34h0l-.05,0-.07-.06a.1.1,0,0,0-.09,0l-.49.59a.07.07,0,0,0,0,0,.05.05,0,0,0,0,.05,2.77,2.77,0,0,0,1.44.59l.38,0A2.1,2.1,0,0,0,26.92,33a3.57,3.57,0,0,0,.9-2.91,8.11,8.11,0,0,1,.06-1.2,2.87,2.87,0,0,1,.95-2.09.08.08,0,0,0,0-.1Z"/><path class="cls-1" d="M28.3,9.1A4.12,4.12,0,0,0,26.52,8a2.24,2.24,0,0,0-1.75.35,16.39,16.39,0,0,0-4.18-2.66,9.06,9.06,0,0,0-1.88-.59,8,8,0,0,0-1.2-.16l-.79,0a9.32,9.32,0,0,0-4.66,1.27A13.64,13.64,0,0,0,5.32,17.09V18a9.87,9.87,0,0,0,5.26,8.51c.24.12.48.22.69.31a3.8,3.8,0,0,1,1.94,1.38,4.65,4.65,0,0,1,.55,3,.07.07,0,0,0,0,.06l3.72,3.67,1.2,1.15L20.58,38l2.6,2.51a.67.67,0,0,0,.4.16.56.56,0,0,0,.35-.14l2.59-2.59,1.33-1.3a2.41,2.41,0,0,0,1.41.48,2.73,2.73,0,0,0,1-.21.93.93,0,0,0,.25-.1l.05,0a3,3,0,0,0,1.45.31,3.4,3.4,0,0,0,3-1.68,4.07,4.07,0,0,0-.71-4.59l.58-.71a.49.49,0,0,0,0-.11s0,0,0,0L34.22,29l.6-.48,0,0a.32.32,0,0,0,0-.27l-.42-1.51,2.2-.44h0a.25.25,0,0,0,.13-.14.49.49,0,0,0-.08-.36c-.36-.63-.78-1.31-1.24-2.08S34.43,22,34,21.22a4.92,4.92,0,0,1,.07-.68c0-.25.08-.6.15-1.15L36.65,19h0a.35.35,0,0,0,.21-.23.41.41,0,0,0-.13-.34Zm7.22,16.57-2.73.46a.21.21,0,0,0-.11,0,.08.08,0,0,0,0,.09l.19.67a.08.08,0,0,0,0,0H33l.7-.14c0,.14.42,1.08.46,1.24a1.91,1.91,0,0,1-.49.37,2.6,2.6,0,0,0-2.45,1.13s0,.07,0,.09l.57.33a.07.07,0,0,0,.06,0,.1.1,0,0,0,.05,0,2,2,0,0,1,1.64-.78,9.05,9.05,0,0,0,.61.79c-.07.24-.72.76-.77.92a.08.08,0,0,0,0,.09,3.42,3.42,0,0,1,1,3.61,2.65,2.65,0,0,1-2.26,1.62,2.42,2.42,0,0,1-.85-.11c1-1.4.25-3.14-.54-4.51a6.11,6.11,0,0,1-.43-.92,3,3,0,0,1,0-1.66,2.82,2.82,0,0,1,1.05-1.16.08.08,0,0,0,0-.1L31,27.17a.08.08,0,0,0-.1,0,3.74,3.74,0,0,0-.63.46,4.27,4.27,0,0,0-.8,1.39c-.4,1.25,0,2.07.67,3.29l.14.32a3.32,3.32,0,0,1,.43,2.74,1.26,1.26,0,0,1-.44.54,1.53,1.53,0,0,1-1.67.15,2.06,2.06,0,0,1-.8-1.63v0s0,0,0,0a.08.08,0,0,0-.06,0l-.69,0a.07.07,0,0,0-.08.07,2.54,2.54,0,0,0,.4,1.52l-.84.79-2.94,2.88-3-2.88-1.88-1.85L14.79,31l1.07-1a2.78,2.78,0,0,0,.12.78,2.53,2.53,0,0,0,2.32,1.85,2.43,2.43,0,0,0,2.6-3.11,4,4,0,0,0-1.31-1.85,1,1,0,0,1-.23-.31,1.43,1.43,0,0,1-.21-.55,3.61,3.61,0,0,0,.5-.61,3.72,3.72,0,0,0,1.71,1.11,8.94,8.94,0,0,0,1.69.32h0a.09.09,0,0,0,.06-.07l.08-.69a.08.08,0,0,0,0-.08l-.05,0-.53-.09h0a3.64,3.64,0,0,1-2-.7A2.68,2.68,0,0,1,20,25.1a1.49,1.49,0,0,1,.61-2,2,2,0,0,1,.9-.1,2.29,2.29,0,0,1,.6.22,2.52,2.52,0,0,0,.33.14h.05l.06,0,.39-.48a.06.06,0,0,0,0-.08.61.61,0,0,0-.19-.2,17.41,17.41,0,0,0,1.65-3.1l1.06.18a5,5,0,0,0-1.16,2.81v.1a3.64,3.64,0,0,1-.27,2.2.88.88,0,0,1-.69.33,1.8,1.8,0,0,1-1-.41.08.08,0,0,0-.1,0l-.51.52s0,0,0,.05a.06.06,0,0,0,0,.06,2.68,2.68,0,0,0,1.62.62,1.76,1.76,0,0,0,.88-.24,2.32,2.32,0,0,0,.89-2.39c0-.18,0-.36,0-.55a4.38,4.38,0,0,1,1.15-3l.28,0h.74l-.1.12a10.4,10.4,0,0,0-.65.82,4.32,4.32,0,0,0-.45,2.54,3.76,3.76,0,0,1-.71,2.53c-1,1.23-1,1.84-.9,3.31v.21a1,1,0,0,1-.27.78,1.07,1.07,0,0,1-.79.32A1.66,1.66,0,0,1,22.32,30a.08.08,0,0,0-.1,0l-.42.46a.07.07,0,0,0,0,.1l.07.06a2.39,2.39,0,0,0,1.54.64,2,2,0,0,0,1.68-.94,3.15,3.15,0,0,0,.18-1.92v-.06c0-.14,0-.27,0-.39a2.37,2.37,0,0,1,.56-1.37,5,5,0,0,0,1-2.73c0-.25,0-.48,0-.69v-.1a3.43,3.43,0,0,1,1.65-3.21l4.86-.35-.08.79c0,.37-.06.59-.07.73v0l.11.59s0,0,0,0C34.16,23.21,34.92,24.57,35.52,25.67ZM18.75,29.83a1.51,1.51,0,0,0-.78-1,1.25,1.25,0,0,0-.66-.09l.28-.27c.07-.08.66-.63.81-.77a2.19,2.19,0,0,0,.51.75,4.27,4.27,0,0,1,.71.59,2,2,0,0,1,.26,1.85,1.72,1.72,0,0,1-2,.85,1.66,1.66,0,0,1-.94-.85,1.15,1.15,0,0,1-.13-.77.46.46,0,0,1,.46-.34c.23,0,.41.19.49.49,0,0,0,0,.05.05h.06l.8-.37,0,0A.05.05,0,0,0,18.75,29.83Zm11.52-11a23.55,23.55,0,0,1-3.76,0c-.73,0-1.49-.11-2.23-.22h-.05a.38.38,0,0,0-.44.15l-.07.15a23.12,23.12,0,0,1-1.84,3.27,3.16,3.16,0,0,0-1.3,0,2,2,0,0,0-1.34,1,2.88,2.88,0,0,0-.08,2.34,3.66,3.66,0,0,0-.45.49L17.5,27.2a34.26,34.26,0,0,1-2.63,2.43,5.31,5.31,0,0,0-.73-2.33,4,4,0,0,1-.51-3.36,10.45,10.45,0,0,1,3.06-3.55l.18-.15a19.61,19.61,0,0,0,1.56-1.64c1.4-1.7,3.44-5,1.32-8a.07.07,0,0,0-.06,0h0l-.67.33s0,0,0,0A.13.13,0,0,0,19,11v0c1.46,2,.67,4-.41,5.94a10.16,10.16,0,0,1-2.24,2.59C13.25,21.73,12,24,12.59,26.34,8.32,24.43,6.51,22,6.35,17.87A12.17,12.17,0,0,1,12.42,7a9.22,9.22,0,0,1,4.46-1.2c.21,0,.42,0,.62,0h0c.38,0,.78.1,1.17.18a9.8,9.8,0,0,1,1.87.63A13.71,13.71,0,0,1,24.11,9,2.52,2.52,0,0,0,24,11.23a3.73,3.73,0,0,0,2.55,1.94l.06,0,.1,0a.07.07,0,0,0,.09-.05l.19-.66a0,0,0,0,0,0,0,.1.1,0,0,0-.05,0l-.38-.12a2.85,2.85,0,0,1-1.87-1.9,1.53,1.53,0,0,1,1.1-1.51,1.63,1.63,0,0,1,.35,0,1,1,0,0,1,.42.09,3.3,3.3,0,0,1,1.28,1l0,0c.07.07.13.14.21.21l.55.55,6.63,7.56A49.67,49.67,0,0,1,30.27,18.81Z"/></g></g></svg>