<svg xmlns="http://www.w3.org/2000/svg" viewBox="0 0 32.06 34.98"><defs><style>.cls-1{fill:#fff;}</style></defs><title>logo-responsive</title><g id="Layer_2" data-name="Layer 2"><g id="Capa_2" data-name="Capa 2"><path class="cls-1" d="M16,35h0l-.13,0h0C7.22,33.14.75,24.62,0,14.17a.19.19,0,0,1,0-.08c0-.2,0-1.1,0-1.1V5.33A.81.81,0,0,1,.4,4.7l.06,0A8.86,8.86,0,0,0,4.27.51s0,0,0,0l0,0A.79.79,0,0,1,5,0H27a.78.78,0,0,1,.7.42.43.43,0,0,1,0,0h0a9.08,9.08,0,0,0,3.86,4.2l.08.05a.79.79,0,0,1,.37.56V13a.48.48,0,0,1,0,.18C31.68,24,25,33.17,16.11,35ZM1,14.11C1.66,24.16,7.84,32.34,16,34,24.49,32.27,30.82,23.42,31.09,13a.4.4,0,0,1,0-.15V5.49A9.84,9.84,0,0,1,26.92.94H5.1A9.82,9.82,0,0,1,.94,5.47V13c0,.57,0,.92,0,1.15Z"/><path class="cls-1" d="M22.92,15h0a.25.25,0,0,0-.15,0L21.41,15,20,15.14h0s0,0,0,.06l.06.49a.07.07,0,0,0,.05,0l.9-.06a1.23,1.23,0,0,0,0,.2,1,1,0,0,0,.33.5,1,1,0,0,0,.41.13h0a.87.87,0,0,0,.94-.77l0-.18.11,0a.25.25,0,0,0,.15,0,.05.05,0,0,0,0-.05L22.93,15A0,0,0,0,0,22.92,15Z"/><path class="cls-1" d="M20,18.42l-.06,0,0,0a2,2,0,0,0-.7.86,4.35,4.35,0,0,0-.2,1.63,4.15,4.15,0,0,1-.18,1.5,1.14,1.14,0,0,1-1,.62h-.11a1.31,1.31,0,0,1-.64-.24h0a.1.1,0,0,0-.05,0s-.05,0-.06,0l-.34.41a.08.08,0,0,0,0,0s0,0,0,0a2.06,2.06,0,0,0,1,.41h.27a1.51,1.51,0,0,0,1-.38,2.49,2.49,0,0,0,.63-2.05,6.06,6.06,0,0,1,0-.85,2,2,0,0,1,.66-1.47,0,0,0,0,0,0-.07Z"/><path class="cls-1" d="M19.94,6.41a2.89,2.89,0,0,0-1.26-.79,1.54,1.54,0,0,0-1.22.25,11.77,11.77,0,0,0-3-1.88,6.64,6.64,0,0,0-1.32-.41,5.67,5.67,0,0,0-.85-.11l-.56,0a6.54,6.54,0,0,0-3.28.9A9.62,9.62,0,0,0,3.75,12v.63a7,7,0,0,0,3.71,6l.48.22a2.62,2.62,0,0,1,1.37,1A3.21,3.21,0,0,1,9.69,22a.08.08,0,0,0,0,0l2.62,2.59.85.81,1.32,1.33,1.84,1.77a.45.45,0,0,0,.28.11.36.36,0,0,0,.24-.1l1.82-1.82.95-.91a1.76,1.76,0,0,0,1,.33,1.9,1.9,0,0,0,.71-.14l.18-.07,0,0a2.14,2.14,0,0,0,1,.21,2.41,2.41,0,0,0,2.09-1.18,2.87,2.87,0,0,0-.5-3.23l.4-.5a.25.25,0,0,0,0-.08v0l-.44-.66c.1-.08.35-.27.42-.34h0a.2.2,0,0,0,0-.19l-.3-1.06,1.55-.31h0a.18.18,0,0,0,.09-.1.35.35,0,0,0-.05-.25c-.26-.45-.55-.93-.88-1.47s-.73-1.21-1-1.75a4.55,4.55,0,0,1,.05-.48c0-.17.06-.42.11-.8l1.7-.28h0a.22.22,0,0,0,.05-.4ZM25,18.09l-1.92.32a.19.19,0,0,0-.08,0,0,0,0,0,0,0,.06l.13.47s0,0,0,0h0l.49-.1c0,.1.3.76.32.88a1.4,1.4,0,0,1-.34.26,1.86,1.86,0,0,0-1.73.79s0,.06,0,.07l.4.23h0l0,0a1.36,1.36,0,0,1,1.16-.55,5.11,5.11,0,0,0,.42.56c-.05.16-.5.53-.54.64a.06.06,0,0,0,0,.07,2.39,2.39,0,0,1,.69,2.54,1.86,1.86,0,0,1-1.59,1.14,1.66,1.66,0,0,1-.6-.07c.72-1,.18-2.22-.38-3.18a5.45,5.45,0,0,1-.31-.66,2.06,2.06,0,0,1,0-1.16,2,2,0,0,1,.74-.82.06.06,0,0,0,0-.07l-.25-.42a.07.07,0,0,0-.07,0,2.73,2.73,0,0,0-.45.33,3,3,0,0,0-.56,1,2.64,2.64,0,0,0,.47,2.31l.1.23a2.41,2.41,0,0,1,.31,1.93.87.87,0,0,1-.31.38,1.06,1.06,0,0,1-.67.24,1.14,1.14,0,0,1-.52-.13,1.49,1.49,0,0,1-.56-1.15v0a.05.05,0,0,0,0,0H19s-.05,0-.05,0a1.78,1.78,0,0,0,.28,1.07l-.59.56-2.07,2-2.1-2-1.32-1.3-2.77-2.67.75-.68a2.68,2.68,0,0,0,.09.55,1.86,1.86,0,0,0,3,.85,1.81,1.81,0,0,0,.46-1.74,2.76,2.76,0,0,0-.92-1.3,1,1,0,0,1-.16-.22,1.09,1.09,0,0,1-.15-.39,2.73,2.73,0,0,0,.36-.42,2.71,2.71,0,0,0,1.2.78,6.54,6.54,0,0,0,1.19.22h0a.05.05,0,0,0,0-.05l.06-.49a.05.05,0,0,0,0,0h0a2.38,2.38,0,0,0-.37-.06h0a2.46,2.46,0,0,1-1.39-.49,1.88,1.88,0,0,1-.44-.66,1,1,0,0,1,.43-1.4,1.27,1.27,0,0,1,.64-.07,1.42,1.42,0,0,1,.42.15l.23.1h.08l.28-.34a.06.06,0,0,0,0-.06.43.43,0,0,0-.13-.14,11.51,11.51,0,0,0,1.16-2.18l.75.12a3.55,3.55,0,0,0-.82,2v.08a2.53,2.53,0,0,1-.19,1.55.64.64,0,0,1-.49.23,1.3,1.3,0,0,1-.71-.29,0,0,0,0,0-.07,0l-.36.36a.08.08,0,0,0,0,0s0,0,0,0a1.9,1.9,0,0,0,1.14.44,1.2,1.2,0,0,0,.62-.17,1.62,1.62,0,0,0,.63-1.68c0-.13,0-.26,0-.4a3.11,3.11,0,0,1,.81-2.12l.2,0h.52l-.07.09a4.79,4.79,0,0,0-.46.57,3,3,0,0,0-.32,1.79,2.69,2.69,0,0,1-.49,1.79,2.56,2.56,0,0,0-.64,2.33v.15a.74.74,0,0,1-.19.55.79.79,0,0,1-.56.22,1.14,1.14,0,0,1-.76-.31.06.06,0,0,0-.07,0l-.3.32a0,0,0,0,0,0,.07s0,0,.05,0a1.7,1.7,0,0,0,1.08.45,1.45,1.45,0,0,0,1.19-.67A2.16,2.16,0,0,0,17.8,20v0q0-.15,0-.27a1.66,1.66,0,0,1,.39-1,3.1,3.1,0,0,0,.52-1,3,3,0,0,0,.16-.89c0-.18,0-.34,0-.49v-.07A2.4,2.4,0,0,1,20,14l3.43-.25-.06.56c0,.25,0,.41,0,.51v0l.08.41v0C24.07,16.36,24.6,17.31,25,18.09ZM13.22,21a1.12,1.12,0,0,0-.56-.72.84.84,0,0,0-.46-.06l.19-.19L13,19.5a1.28,1.28,0,0,0,.36.53,3.75,3.75,0,0,1,.5.42,1.44,1.44,0,0,1,.18,1.3,1.2,1.2,0,0,1-1.38.6,1.16,1.16,0,0,1-.67-.6.76.76,0,0,1-.08-.54A.32.32,0,0,1,12.2,21c.16,0,.29.14.34.34,0,0,0,0,0,0h0l.57-.26h0A0,0,0,0,0,13.22,21Zm8.11-7.77a16.71,16.71,0,0,1-2.65,0c-.52,0-1.05-.08-1.57-.15h0a.25.25,0,0,0-.3.11l-.06.1a15.19,15.19,0,0,1-1.3,2.3,2.32,2.32,0,0,0-.91,0,1.49,1.49,0,0,0-.94.71A2,2,0,0,0,13.5,18a2.22,2.22,0,0,0-.31.34c-.26.25-.55.55-.86.86a23,23,0,0,1-1.85,1.71A3.75,3.75,0,0,0,10,19.24a2.75,2.75,0,0,1-.36-2.37,7.36,7.36,0,0,1,2.15-2.5l.12-.11A11.65,11.65,0,0,0,13,13.11c1-1.2,2.42-3.53.93-5.62l-.05,0h0l-.47.23,0,0a.09.09,0,0,0,0,0h0c1,1.4.47,2.84-.29,4.19A7.07,7.07,0,0,1,11.5,13.8c-2.17,1.51-3.05,3.12-2.63,4.76-3-1.35-4.28-3.08-4.4-6A8.6,8.6,0,0,1,8.75,4.91a6.47,6.47,0,0,1,3.15-.84l.43,0h0c.27,0,.55.07.82.12a6.85,6.85,0,0,1,1.32.45A9.67,9.67,0,0,1,17,6.32a1.79,1.79,0,0,0-.11,1.59,2.64,2.64,0,0,0,1.8,1.37h0l.07,0a.06.06,0,0,0,.07,0L19,8.82s0,0,0,0,0,0,0,0a1.72,1.72,0,0,1-.28-.08,2,2,0,0,1-1.31-1.35,1.07,1.07,0,0,1,.78-1.06l.24,0a.68.68,0,0,1,.29.06,2.35,2.35,0,0,1,.91.7l0,0,.14.15.39.38,4.67,5.33A34,34,0,0,1,21.33,13.25Z"/></g></g></svg>