<svg xmlns="http://www.w3.org/2000/svg" viewBox="0 0 27.67 27.67"><defs><style>.cls-1{fill:#d2d2d2;}</style></defs><title>question</title><g id="Layer_2" data-name="Layer 2"><g id="Capa_2" data-name="Capa 2"><path class="cls-1" d="M14.76,27.67H12.67a2.3,2.3,0,0,0-.35-.1A13.52,13.52,0,0,1,.79,18.38,25.06,25.06,0,0,1,0,14.88V12.67c0-.16.08-.31.11-.47A13.49,13.49,0,0,1,9.06.89,25.65,25.65,0,0,1,12.79,0h2.09l.9.13A13.84,13.84,0,0,1,27.17,10.28c.23.9.34,1.84.5,2.76v1.84c0,.3-.08.6-.13.9a13.67,13.67,0,0,1-8.93,11A27.27,27.27,0,0,1,14.76,27.67Zm-3.15-17a11.44,11.44,0,0,1,.57-1.6,1.82,1.82,0,0,1,2-.84,1.61,1.61,0,0,1,1.55,1.26,2.21,2.21,0,0,1-1,2.49c-.63.46-1.25.93-1.87,1.4-1.05.8-1,1.94-1,3.1h3.25a2.33,2.33,0,0,1,1.28-2.25,15.13,15.13,0,0,0,1.91-1.54,4.2,4.2,0,0,0-.62-6.17,6.86,6.86,0,0,0-6-.83,4.7,4.7,0,0,0-3.19,5Zm4,9.54a2,2,0,0,0-2.05-2,2,2,0,0,0-2,2.07,2,2,0,0,0,2,2A1.92,1.92,0,0,0,15.63,20.24Z"/></g></g></svg>