<svg xmlns="http://www.w3.org/2000/svg" viewBox="0 0 97.64 80.5"><defs><style>.cls-1{fill:#d2d2d2;opacity:0.57;}.cls-14,.cls-15,.cls-2,.cls-21{fill:#e34640;}.cls-2,.cls-20{opacity:0.6;}.cls-18,.cls-3,.cls-9{fill:#009f49;}.cls-12,.cls-15,.cls-3,.cls-5{opacity:0.49;}.cls-19,.cls-4{fill:#1b2027;}.cls-11,.cls-5,.cls-8{fill:#f7b713;}.cls-12,.cls-6{fill:#bdcf31;}.cls-11,.cls-14,.cls-16,.cls-6,.cls-7,.cls-9{opacity:0.41;}.cls-10,.cls-17,.cls-20,.cls-7{fill:#94378d;}.cls-13,.cls-16{fill:#0085c6;}.cls-17,.cls-21{opacity:0.72;}.cls-18{opacity:0.31;}.cls-19{opacity:0.37;}</style></defs><title>brain-color</title><g id="Layer_2" data-name="Layer 2"><g id="Capa_2" data-name="Capa 2"><path class="cls-1" d="M21.92,16.77c-4.55,0-8.26,3-8.26,6.77a5.58,5.58,0,0,0,.12,1.09.27.27,0,0,1,0,.09s0,.05,0,.07a6,6,0,0,0,1.73,4,.81.81,0,0,1-.06,1.16.82.82,0,0,1-1.16-.06,9,9,0,0,1-1.68-2.64A1.09,1.09,0,0,0,11,26.75a9.23,9.23,0,0,0-4.44,7.58v.09a1.1,1.1,0,0,0,1.37,1,12.08,12.08,0,0,1,2.82-.32,13,13,0,0,1,4.33.75,4.89,4.89,0,0,1,6.51-.31.82.82,0,0,1-1,1.29,3.13,3.13,0,0,0-1.13-.62,3.27,3.27,0,0,0-4.16,3.52,3.21,3.21,0,0,0,1.18,2.14.35.35,0,0,1,.08.1s.07,0,.09.06a4.77,4.77,0,0,1,1.22,3.27,4.89,4.89,0,0,1-2.15,4.06.79.79,0,0,1-.46.15.83.83,0,0,1-.49-1.49,3.18,3.18,0,0,0,1.37-1.88,3.35,3.35,0,0,0-.7-3L13.9,40.56a1.9,1.9,0,0,1-.27-.8,4.77,4.77,0,0,1,.46-2.48,11.36,11.36,0,0,0-3.34-.51,11,11,0,0,0-6.65,2.3A11.77,11.77,0,0,0,0,48.19,11.62,11.62,0,0,0,5.86,58.58a8.14,8.14,0,0,0,3.58.83.83.83,0,0,1,0,1.65,10,10,0,0,1-2.13-.23A1.08,1.08,0,0,0,6,61.67,7.8,7.8,0,0,0,5.89,63c0,3.44,2.18,6.56,5.68,8.31A2,2,0,0,0,13.71,71l.68-.57a.8.8,0,0,1,1.15.09.82.82,0,0,1-.09,1.16L13.7,73.14c0,.21,0,.41,0,.6,0,3.73,3.71,6.76,8.26,6.76s8.27-3,8.27-6.76V70.1a3.13,3.13,0,0,0-.42-1.55l-.24-.41a5.12,5.12,0,0,1-.34-.71.89.89,0,0,0-1.21-.5,3.68,3.68,0,0,1-.35.15.8.8,0,0,1-.3.06.84.84,0,0,1-.61-.27.86.86,0,0,1,.36-1.34,5.14,5.14,0,0,0,2.27-1.8s.06-.06.09-.09a4.1,4.1,0,0,1,.23-.4,3.15,3.15,0,0,0,.52-1.71V46.71a3.25,3.25,0,0,0-.93-2.26l-.15-.14,0,0a4,4,0,0,0-2.85-1.18,4.23,4.23,0,0,0-.79.08.83.83,0,0,1-.33-1.62,6.07,6.07,0,0,1,1.12-.11h.26A1.54,1.54,0,0,0,28,40.32a3.67,3.67,0,0,1,.55-1.19l.8-1.18a4.61,4.61,0,0,0,.81-2.62V23.54C30.19,19.81,26.48,16.77,21.92,16.77ZM10.2,52a.82.82,0,0,1-.79.58l-.24,0A3.93,3.93,0,0,1,6.43,49a3.87,3.87,0,0,1,1-2.81.81.81,0,0,1,1.16-.06.82.82,0,0,1,.06,1.16,2.26,2.26,0,0,0,1,3.67A.83.83,0,0,1,10.2,52ZM25.62,74a3.91,3.91,0,0,1-5.42,1A.83.83,0,0,1,20,73.87a.82.82,0,0,1,1.14-.21,2.26,2.26,0,0,0,3.13-.58.82.82,0,0,1,1.36.93Zm.59-19.67a.83.83,0,0,1,.34,1.12.81.81,0,0,1-1.11.33,3.46,3.46,0,0,0-4.71,4.57,1,1,0,0,1,.16.36,4,4,0,0,1-.2,3.36,4,4,0,0,1-2.45,2l-.23,0a.82.82,0,0,1-.79-.6.83.83,0,0,1,.57-1,2.35,2.35,0,0,0,1.45-1.17,2.38,2.38,0,0,0-1-3.23,2.35,2.35,0,0,0-2.31,0,.82.82,0,0,1-.82-1.43,4,4,0,0,1,3.66-.17,5,5,0,0,1,.58-2.09A5.06,5.06,0,0,1,26.21,54.34Zm.13-26.47a.83.83,0,0,1-.81.67l-.15,0a.81.81,0,0,1-.65-1,2.29,2.29,0,0,0-.35-1.69,2.25,2.25,0,0,0-3.13-.6.82.82,0,0,1-.93-1.36,3.89,3.89,0,0,1,5.42,1A4,4,0,0,1,26.34,27.87Z"/><path class="cls-2" d="M42.77,70.44H32.7V73.1c0,4.09,3.86,7.4,8.62,7.4a9.9,9.9,0,0,0,1.45-.11Z"/><path class="cls-3" d="M42.77,70.44v10c4.07-.59,7.17-3.62,7.17-7.29a6.62,6.62,0,0,0-.09-1,12.65,12.65,0,0,0,3-1.51v-.16Z"/><path class="cls-4" d="M52.83,70.6l.22-.16h-.22Z"/><path class="cls-5" d="M34.37,39.82a2.55,2.55,0,0,1,.23.43h8.17V30.19H32.7v5.48a5.47,5.47,0,0,0,.9,3Z"/><rect class="cls-6" x="42.77" y="30.19" width="10.06" height="10.06"/><path class="cls-4" d="M52.83,40.25h7.39A12.67,12.67,0,0,0,56.35,37a8.65,8.65,0,0,0,.33-2.34,9,9,0,0,0-1.22-4.5H52.83Z"/><path class="cls-7" d="M41.32,16.77a9,9,0,0,0-7.21,3.36h8.66V16.88A11.5,11.5,0,0,0,41.32,16.77Z"/><path class="cls-8" d="M42.77,16.88v3.25h5.76A8.8,8.8,0,0,0,42.77,16.88Z"/><rect class="cls-9" x="32.7" y="50.31" width="10.06" height="10.06"/><rect class="cls-10" x="42.77" y="50.31" width="10.06" height="10.06"/><rect class="cls-11" x="87.58" y="9.56" width="10.06" height="10.06"/><path class="cls-12" d="M57,60.38a9.36,9.36,0,0,0-.37-1.17,12.09,12.09,0,0,0,6.09-8.9h-9.9V60.38Z"/><path class="cls-13" d="M42.77,60.38H32.7v.82a3.94,3.94,0,0,0,.62,2.11,3.8,3.8,0,0,1,.11,3.94l-.22.4a3.87,3.87,0,0,0-.51,1.91v.88H42.77Z"/><rect class="cls-14" x="42.77" y="60.38" width="10.06" height="10.06"/><path class="cls-13" d="M52.83,70.44h.22a9.75,9.75,0,0,0,4.26-7.85,8.54,8.54,0,0,0-.3-2.21H52.83Z"/><path class="cls-15" d="M42.77,40.25H34.6A3.18,3.18,0,0,1,34,43.79l-.19.2a4,4,0,0,0-1.12,2.77v3.55H42.77Z"/><rect class="cls-16" x="42.77" y="40.25" width="10.06" height="10.06"/><path class="cls-17" d="M52.83,40.25V50.31h9.9a14.65,14.65,0,0,0,.16-2.11,12.53,12.53,0,0,0-2.67-8Z"/><path class="cls-18" d="M42.77,20.13H34.11a6.61,6.61,0,0,0-1.41,4v6H42.77Z"/><path class="cls-19" d="M49.94,24.17a6.61,6.61,0,0,0-1.41-4H42.77V30.19H52.83v-3a12.2,12.2,0,0,0-3-1.76A6.16,6.16,0,0,0,49.94,24.17Z"/><path class="cls-10" d="M55.46,30.19a10.56,10.56,0,0,0-2.63-3v3Z"/><rect class="cls-13" x="52.83" y="30.19" width="10.06" height="10.06"/><rect class="cls-6" x="62.89" y="20.13" width="10.06" height="10.06"/><rect class="cls-14" x="62.89" width="10.06" height="10.06"/><rect class="cls-18" x="72.96" y="30.19" width="10.06" height="10.06"/><rect class="cls-20" x="52.83" y="10.06" width="10.06" height="10.06"/><rect class="cls-21" x="42.77" y="20.13" width="10.06" height="10.06"/></g></g></svg>