<svg xmlns="http://www.w3.org/2000/svg" viewBox="0 0 73.94 108.56"><defs><style>.cls-1{fill:#fff;}</style></defs><title>logo-white</title><g id="Layer_2" data-name="Layer 2"><g id="Capa_2" data-name="Capa 2"><path class="cls-1" d="M7.87,98.06H6.49v-7.4H7.87Z"/><path class="cls-1" d="M9.66,98.06V92.81h.78a.3.3,0,0,1,.32.23l.09.41a3.08,3.08,0,0,1,.33-.3l.38-.23a2.35,2.35,0,0,1,.91-.2,1.81,1.81,0,0,1,.76.15,1.46,1.46,0,0,1,.56.41,1.82,1.82,0,0,1,.34.63,2.88,2.88,0,0,1,.11.81v3.34H13V94.72a1.18,1.18,0,0,0-.22-.75.83.83,0,0,0-.67-.26,1.32,1.32,0,0,0-.62.15,2,2,0,0,0-.54.4v3.8Z"/><path class="cls-1" d="M17.42,98.14a1.36,1.36,0,0,1-1.05-.39A1.44,1.44,0,0,1,16,96.69V93.75h-.53a.28.28,0,0,1-.18-.06.26.26,0,0,1-.08-.2V93l.85-.13.27-1.44a.26.26,0,0,1,.09-.16.36.36,0,0,1,.19,0h.65v1.65h1.38v.9H17.26V96.6a.52.52,0,0,0,.13.38.39.39,0,0,0,.32.14.56.56,0,0,0,.2,0l.14-.06.1,0a.17.17,0,0,1,.1,0,.16.16,0,0,1,.09,0,.19.19,0,0,1,.07.08l.38.61a1.77,1.77,0,0,1-.63.35A2.34,2.34,0,0,1,17.42,98.14Z"/><path class="cls-1" d="M22,92.72a2.67,2.67,0,0,1,.91.16,2,2,0,0,1,.72.47,2.08,2.08,0,0,1,.47.74,2.71,2.71,0,0,1,.17,1,1.63,1.63,0,0,1,0,.24.44.44,0,0,1-.05.15.18.18,0,0,1-.09.08l-.14,0H20.76a1.84,1.84,0,0,0,.44,1.19,1.37,1.37,0,0,0,1,.38,2,2,0,0,0,.53-.07,2.42,2.42,0,0,0,.39-.16l.29-.16a.5.5,0,0,1,.25-.07.28.28,0,0,1,.13,0,.39.39,0,0,1,.1.08l.37.46a1.91,1.91,0,0,1-.48.42,2.24,2.24,0,0,1-.54.26,2.34,2.34,0,0,1-.58.14,3.88,3.88,0,0,1-.57,0,2.85,2.85,0,0,1-1-.19,2.37,2.37,0,0,1-.82-.53,2.69,2.69,0,0,1-.55-.88,3.51,3.51,0,0,1-.19-1.22,2.78,2.78,0,0,1,.17-1,2.33,2.33,0,0,1,.5-.83,2.38,2.38,0,0,1,.79-.55A2.57,2.57,0,0,1,22,92.72Zm0,.91a1.16,1.16,0,0,0-.86.31,1.57,1.57,0,0,0-.4.89h2.38a1.78,1.78,0,0,0-.07-.47,1.09,1.09,0,0,0-.21-.38,1,1,0,0,0-.34-.26A1.28,1.28,0,0,0,22.05,93.63Z"/><path class="cls-1" d="M25.54,98.06V92.81h.74a.38.38,0,0,1,.27.07.45.45,0,0,1,.1.24l.08.64a2.53,2.53,0,0,1,.66-.77,1.36,1.36,0,0,1,.85-.28,1.08,1.08,0,0,1,.64.18l-.16.94a.19.19,0,0,1-.07.14.25.25,0,0,1-.13,0l-.22,0a1.08,1.08,0,0,0-.35,0,1,1,0,0,0-.67.22,1.63,1.63,0,0,0-.48.64v3.27Z"/><path class="cls-1" d="M29.92,98.06V92.81h.78A.3.3,0,0,1,31,93l.09.41a2.35,2.35,0,0,1,.33-.3c.12-.08.24-.16.37-.23a2.16,2.16,0,0,1,.43-.14,1.88,1.88,0,0,1,.49-.06,1.81,1.81,0,0,1,.76.15,1.54,1.54,0,0,1,.56.41,1.8,1.8,0,0,1,.33.63,2.55,2.55,0,0,1,.12.81v3.34H33.23V94.72A1.12,1.12,0,0,0,33,94a.81.81,0,0,0-.67-.26,1.31,1.31,0,0,0-.61.15,2,2,0,0,0-.54.4v3.8Z"/><path class="cls-1" d="M40.06,98.06H39.5a.6.6,0,0,1-.29-.06.32.32,0,0,1-.15-.21L39,97.41a5,5,0,0,1-.39.32,3.18,3.18,0,0,1-.4.23,2,2,0,0,1-.44.13,2.59,2.59,0,0,1-.51,0,2,2,0,0,1-.61-.09,1.37,1.37,0,0,1-.49-.27,1.21,1.21,0,0,1-.31-.45,1.46,1.46,0,0,1-.11-.62,1.29,1.29,0,0,1,.15-.59,1.61,1.61,0,0,1,.52-.52,3.55,3.55,0,0,1,1-.39,6.31,6.31,0,0,1,1.5-.15v-.31a1.17,1.17,0,0,0-.22-.79.82.82,0,0,0-.65-.25,1.53,1.53,0,0,0-.51.07,2,2,0,0,0-.36.16l-.28.16a.53.53,0,0,1-.28.07.4.4,0,0,1-.22-.06.61.61,0,0,1-.15-.17l-.23-.4a3.12,3.12,0,0,1,2.19-.83,2.1,2.1,0,0,1,.82.15,1.73,1.73,0,0,1,1,1.06,2.39,2.39,0,0,1,.13.82Zm-2.45-.79a1.37,1.37,0,0,0,.36,0,1.24,1.24,0,0,0,.31-.1,2.2,2.2,0,0,0,.28-.18,1.94,1.94,0,0,0,.27-.24v-.88a4.71,4.71,0,0,0-.92.07,2.71,2.71,0,0,0-.6.18.78.78,0,0,0-.32.25.59.59,0,0,0-.09.32.57.57,0,0,0,.19.48A.91.91,0,0,0,37.61,97.27Z"/><path class="cls-1" d="M43.24,98.14a1.36,1.36,0,0,1-1.05-.39,1.44,1.44,0,0,1-.37-1.06V93.75h-.53a.28.28,0,0,1-.18-.06.26.26,0,0,1-.07-.2V93l.84-.13.27-1.44a.26.26,0,0,1,.09-.16.36.36,0,0,1,.19,0h.65v1.65h1.39v.9H43.08V96.6a.56.56,0,0,0,.13.38.39.39,0,0,0,.32.14.56.56,0,0,0,.2,0l.14-.06L44,97a.16.16,0,0,1,.09,0,.12.12,0,0,1,.09,0,.29.29,0,0,1,.08.08l.38.61A1.9,1.9,0,0,1,44,98,2.34,2.34,0,0,1,43.24,98.14Z"/><path class="cls-1" d="M47.22,91.28a.78.78,0,0,1-.07.3.64.64,0,0,1-.18.25.78.78,0,0,1-.26.17.72.72,0,0,1-.62,0,.9.9,0,0,1-.26-.17.92.92,0,0,1-.17-.25.77.77,0,0,1-.06-.3.83.83,0,0,1,.06-.32,1,1,0,0,1,.17-.26.9.9,0,0,1,.26-.17.82.82,0,0,1,.88.17.68.68,0,0,1,.18.26A.83.83,0,0,1,47.22,91.28ZM47,92.81v5.25H45.76V92.81Z"/><path class="cls-1" d="M50.9,92.72a3,3,0,0,1,1.07.19,2.27,2.27,0,0,1,1.34,1.39,3.61,3.61,0,0,1,0,2.25,2.43,2.43,0,0,1-.52.85A2.32,2.32,0,0,1,52,98a3.11,3.11,0,0,1-2.14,0A2.32,2.32,0,0,1,49,97.4a2.45,2.45,0,0,1-.53-.85,3.61,3.61,0,0,1,0-2.25,2.32,2.32,0,0,1,1.35-1.39A3,3,0,0,1,50.9,92.72Zm0,4.44a1.09,1.09,0,0,0,1-.44,2.76,2.76,0,0,0,0-2.58,1.1,1.1,0,0,0-1-.45,1.12,1.12,0,0,0-1,.45,2.76,2.76,0,0,0,0,2.58A1.14,1.14,0,0,0,50.9,97.16Z"/><path class="cls-1" d="M54.69,98.06V92.81h.77a.3.3,0,0,1,.32.23l.09.41a3.08,3.08,0,0,1,.33-.3l.38-.23a2.35,2.35,0,0,1,.91-.2,1.81,1.81,0,0,1,.76.15,1.46,1.46,0,0,1,.56.41,1.82,1.82,0,0,1,.34.63,2.88,2.88,0,0,1,.11.81v3.34H58V94.72a1.12,1.12,0,0,0-.23-.75.79.79,0,0,0-.66-.26,1.32,1.32,0,0,0-.62.15,2,2,0,0,0-.54.4v3.8Z"/><path class="cls-1" d="M64.83,98.06h-.57A.55.55,0,0,1,64,98a.33.33,0,0,1-.16-.21l-.11-.38a3.66,3.66,0,0,1-.39.32,3.18,3.18,0,0,1-.4.23,2,2,0,0,1-.43.13,2.76,2.76,0,0,1-.51,0,2,2,0,0,1-.62-.09,1.25,1.25,0,0,1-.48-.27,1.23,1.23,0,0,1-.32-.45,1.64,1.64,0,0,1-.11-.62,1.19,1.19,0,0,1,.16-.59,1.43,1.43,0,0,1,.52-.52,3.35,3.35,0,0,1,1-.39,6.43,6.43,0,0,1,1.5-.15v-.31a1.17,1.17,0,0,0-.22-.79.81.81,0,0,0-.65-.25,1.53,1.53,0,0,0-.51.07,1.92,1.92,0,0,0-.35.16l-.28.16a.57.57,0,0,1-.29.07.43.43,0,0,1-.22-.06.46.46,0,0,1-.14-.17l-.23-.4a3.08,3.08,0,0,1,2.18-.83,2.1,2.1,0,0,1,.82.15,1.79,1.79,0,0,1,.62.42,1.94,1.94,0,0,1,.38.64,2.66,2.66,0,0,1,.13.82Zm-2.46-.79a1.37,1.37,0,0,0,.36,0,1.12,1.12,0,0,0,.31-.1,2.2,2.2,0,0,0,.28-.18,1.94,1.94,0,0,0,.27-.24v-.88a4.78,4.78,0,0,0-.92.07,2.71,2.71,0,0,0-.6.18.85.85,0,0,0-.32.25.59.59,0,0,0-.09.32.54.54,0,0,0,.2.48A.88.88,0,0,0,62.37,97.27Z"/><path class="cls-1" d="M67.62,90.45v7.61H66.36V90.45Z"/><path class="cls-1" d="M0,108.48v-7.41H2.55a5,5,0,0,1,1.25.14,2.35,2.35,0,0,1,.84.4,1.45,1.45,0,0,1,.48.62,1.92,1.92,0,0,1,.16.81,1.64,1.64,0,0,1-.08.5A1.4,1.4,0,0,1,5,104a1.68,1.68,0,0,1-.41.38,2.49,2.49,0,0,1-.59.28q1.53.34,1.53,1.65a2.12,2.12,0,0,1-.18.87,1.86,1.86,0,0,1-.52.69,2.54,2.54,0,0,1-.85.45,3.6,3.6,0,0,1-1.14.17Zm1.38-4.2h1.1A1.84,1.84,0,0,0,3.54,104a.93.93,0,0,0,.37-.81,1,1,0,0,0-.33-.83,1.76,1.76,0,0,0-1-.24H1.38Zm0,1v2.17H2.77a2,2,0,0,0,.65-.09,1,1,0,0,0,.41-.25.86.86,0,0,0,.23-.36,1.49,1.49,0,0,0,.07-.43,1.18,1.18,0,0,0-.08-.43.78.78,0,0,0-.24-.33,1.18,1.18,0,0,0-.42-.21,2.25,2.25,0,0,0-.62-.07Z"/><path class="cls-1" d="M8,103.22v3.34a1.14,1.14,0,0,0,.22.75.84.84,0,0,0,.67.26,1.35,1.35,0,0,0,.62-.15A2,2,0,0,0,10,107v-3.8h1.26v5.26H10.5a.31.31,0,0,1-.32-.23l-.09-.42a3.17,3.17,0,0,1-.34.3,2.3,2.3,0,0,1-.37.23,1.88,1.88,0,0,1-.42.14,2,2,0,0,1-.49.06,1.81,1.81,0,0,1-.76-.15,1.54,1.54,0,0,1-.56-.41,1.91,1.91,0,0,1-.34-.63,2.6,2.6,0,0,1-.11-.81v-3.34Z"/><path class="cls-1" d="M16,104.25a.38.38,0,0,1-.11.11.33.33,0,0,1-.14,0,.39.39,0,0,1-.2-.06l-.24-.11-.32-.12a1.73,1.73,0,0,0-.42,0,1,1,0,0,0-.59.16.51.51,0,0,0-.21.42.41.41,0,0,0,.11.28.93.93,0,0,0,.29.2,3.19,3.19,0,0,0,.41.16l.47.15a4,4,0,0,1,.48.19,1.91,1.91,0,0,1,.41.26,1.24,1.24,0,0,1,.29.39,1.27,1.27,0,0,1,.11.54,1.75,1.75,0,0,1-.14.7,1.56,1.56,0,0,1-.4.55,1.92,1.92,0,0,1-.66.37,3,3,0,0,1-1.43.08,2.85,2.85,0,0,1-.5-.14,2.48,2.48,0,0,1-.44-.2,1.87,1.87,0,0,1-.35-.26l.29-.48a.4.4,0,0,1,.13-.13.39.39,0,0,1,.2,0,.36.36,0,0,1,.22.07l.24.14.33.15a1.53,1.53,0,0,0,.47.06,1.48,1.48,0,0,0,.39,0,.86.86,0,0,0,.27-.14.7.7,0,0,0,.15-.2.69.69,0,0,0,0-.24.41.41,0,0,0-.11-.3,1.08,1.08,0,0,0-.29-.21,3.36,3.36,0,0,0-.42-.16l-.48-.15a2.72,2.72,0,0,1-.47-.19,1.34,1.34,0,0,1-.42-.28,1.22,1.22,0,0,1-.29-.41,1.53,1.53,0,0,1-.11-.6,1.47,1.47,0,0,1,.51-1.12,1.94,1.94,0,0,1,.62-.35,2.71,2.71,0,0,1,.85-.13,2.64,2.64,0,0,1,1,.18,2.19,2.19,0,0,1,.74.47Z"/><path class="cls-1" d="M19,101.69A.81.81,0,0,1,19,102a.94.94,0,0,1-.18.25.78.78,0,0,1-.26.17.68.68,0,0,1-.32.07.63.63,0,0,1-.3-.07.78.78,0,0,1-.26-.17.74.74,0,0,1-.17-.25.81.81,0,0,1-.06-.31.82.82,0,0,1,.79-.81.83.83,0,0,1,.32.07.78.78,0,0,1,.26.17,1,1,0,0,1,.18.26A.78.78,0,0,1,19,101.69Zm-.19,1.53v5.26H17.59v-5.26Z"/><path class="cls-1" d="M20.49,108.48v-5.26h.77a.31.31,0,0,1,.32.23l.09.42a3.17,3.17,0,0,1,.34-.3,2.3,2.3,0,0,1,.37-.23,2.6,2.6,0,0,1,.42-.15,2.54,2.54,0,0,1,.49,0,1.89,1.89,0,0,1,.77.15,1.4,1.4,0,0,1,.55.41,1.73,1.73,0,0,1,.34.63,2.54,2.54,0,0,1,.11.8v3.35H23.8v-3.35a1.09,1.09,0,0,0-.22-.74.82.82,0,0,0-.67-.27,1.35,1.35,0,0,0-.62.15,2.27,2.27,0,0,0-.54.41v3.8Z"/><path class="cls-1" d="M28.68,103.14a2.47,2.47,0,0,1,.92.16,2.07,2.07,0,0,1,.72.46,2.22,2.22,0,0,1,.47.75,2.89,2.89,0,0,1,.17,1,1.44,1.44,0,0,1,0,.24.33.33,0,0,1,0,.15.24.24,0,0,1-.09.08l-.14,0H27.42a1.86,1.86,0,0,0,.43,1.19,1.39,1.39,0,0,0,1,.38,1.69,1.69,0,0,0,.53-.08,1.76,1.76,0,0,0,.39-.16l.29-.15a.46.46,0,0,1,.24-.08.23.23,0,0,1,.14,0,.32.32,0,0,1,.09.08l.37.46a2.32,2.32,0,0,1-.47.42,3,3,0,0,1-1.12.4,3.82,3.82,0,0,1-.57,0,2.8,2.8,0,0,1-1-.18,2.17,2.17,0,0,1-.82-.54,2.44,2.44,0,0,1-.55-.88,3.45,3.45,0,0,1-.2-1.21,3,3,0,0,1,.17-1,2.67,2.67,0,0,1,.5-.83,2.28,2.28,0,0,1,.8-.55A2.52,2.52,0,0,1,28.68,103.14Zm0,.91a1.17,1.17,0,0,0-.87.31,1.6,1.6,0,0,0-.4.89h2.38a1.45,1.45,0,0,0-.07-.47,1.07,1.07,0,0,0-.2-.38,1,1,0,0,0-.35-.26A1.22,1.22,0,0,0,28.71,104.05Z"/><path class="cls-1" d="M35.31,104.25a.38.38,0,0,1-.11.11.29.29,0,0,1-.14,0,.41.41,0,0,1-.2-.06l-.24-.11-.32-.12a1.64,1.64,0,0,0-.41,0,1,1,0,0,0-.59.16.5.5,0,0,0-.22.42.41.41,0,0,0,.11.28.93.93,0,0,0,.29.2,2.85,2.85,0,0,0,.42.16l.47.15a4.62,4.62,0,0,1,.47.19,1.91,1.91,0,0,1,.41.26,1.24,1.24,0,0,1,.29.39,1.27,1.27,0,0,1,.11.54,1.59,1.59,0,0,1-.14.7,1.45,1.45,0,0,1-.4.55,1.92,1.92,0,0,1-.66.37,3,3,0,0,1-1.43.08,2.53,2.53,0,0,1-.49-.14,2,2,0,0,1-.44-.2,1.66,1.66,0,0,1-.36-.26l.29-.48a.4.4,0,0,1,.13-.13.42.42,0,0,1,.2,0,.36.36,0,0,1,.22.07l.25.14.32.15a1.53,1.53,0,0,0,.47.06,1.48,1.48,0,0,0,.39,0,.86.86,0,0,0,.27-.14.55.55,0,0,0,.15-.2.69.69,0,0,0,0-.24.41.41,0,0,0-.11-.3.94.94,0,0,0-.29-.21,2.85,2.85,0,0,0-.42-.16l-.47-.15a2.82,2.82,0,0,1-.48-.19,1.3,1.3,0,0,1-.41-.28,1.24,1.24,0,0,1-.3-.41,1.53,1.53,0,0,1-.11-.6,1.59,1.59,0,0,1,.13-.61,1.55,1.55,0,0,1,.38-.51,1.94,1.94,0,0,1,.62-.35,2.71,2.71,0,0,1,.85-.13,2.57,2.57,0,0,1,1,.18,2.34,2.34,0,0,1,.75.47Z"/><path class="cls-1" d="M40,104.25a.38.38,0,0,1-.11.11.33.33,0,0,1-.14,0,.41.41,0,0,1-.2-.06l-.24-.11-.32-.12a1.73,1.73,0,0,0-.42,0,1,1,0,0,0-.58.16.5.5,0,0,0-.22.42.41.41,0,0,0,.11.28.93.93,0,0,0,.29.2,3.19,3.19,0,0,0,.41.16l.48.15a4.62,4.62,0,0,1,.47.19,1.91,1.91,0,0,1,.41.26,1.24,1.24,0,0,1,.29.39,1.27,1.27,0,0,1,.11.54,1.75,1.75,0,0,1-.14.7,1.45,1.45,0,0,1-.4.55,1.92,1.92,0,0,1-.66.37,3,3,0,0,1-1.43.08,2.85,2.85,0,0,1-.5-.14,2.48,2.48,0,0,1-.44-.2,1.87,1.87,0,0,1-.35-.26l.29-.48a.4.4,0,0,1,.13-.13.42.42,0,0,1,.2,0,.36.36,0,0,1,.22.07l.24.14.33.15a1.53,1.53,0,0,0,.47.06,1.48,1.48,0,0,0,.39,0,.86.86,0,0,0,.27-.14.55.55,0,0,0,.15-.2.69.69,0,0,0,0-.24.41.41,0,0,0-.11-.3,1.08,1.08,0,0,0-.29-.21,3.36,3.36,0,0,0-.42-.16l-.47-.15a2.53,2.53,0,0,1-.48-.19,1.47,1.47,0,0,1-.42-.28,1.38,1.38,0,0,1-.29-.41,1.53,1.53,0,0,1-.11-.6,1.59,1.59,0,0,1,.13-.61,1.55,1.55,0,0,1,.38-.51,1.94,1.94,0,0,1,.62-.35,2.71,2.71,0,0,1,.85-.13,2.61,2.61,0,0,1,1,.18,2.19,2.19,0,0,1,.74.47Z"/><path class="cls-1" d="M47.77,102.42a.36.36,0,0,1-.13.16.34.34,0,0,1-.18,0,.46.46,0,0,1-.23-.07,2,2,0,0,0-.3-.18,2.65,2.65,0,0,0-.41-.18,1.77,1.77,0,0,0-.55-.08,1.83,1.83,0,0,0-.5.07,1.23,1.23,0,0,0-.36.19.78.78,0,0,0-.21.3.9.9,0,0,0-.07.37.65.65,0,0,0,.14.44,1.35,1.35,0,0,0,.39.3,4.19,4.19,0,0,0,.55.22l.62.2a5.93,5.93,0,0,1,.63.26,2.31,2.31,0,0,1,.55.37,1.6,1.6,0,0,1,.38.54,1.89,1.89,0,0,1,.15.79,2.7,2.7,0,0,1-.17.94,2.28,2.28,0,0,1-.5.76,2.24,2.24,0,0,1-.81.51,2.86,2.86,0,0,1-1.09.19,3.26,3.26,0,0,1-.7-.07,3.75,3.75,0,0,1-.65-.2,3,3,0,0,1-.59-.31,2.4,2.4,0,0,1-.49-.39l.4-.67.13-.12a.39.39,0,0,1,.18,0,.5.5,0,0,1,.28.1c.1.07.21.15.35.23a2.29,2.29,0,0,0,.47.24,1.87,1.87,0,0,0,.66.1,1.32,1.32,0,0,0,.91-.28,1,1,0,0,0,.32-.8.71.71,0,0,0-.14-.47,1.1,1.1,0,0,0-.39-.31,2.52,2.52,0,0,0-.55-.22c-.2,0-.41-.12-.62-.19a4.67,4.67,0,0,1-.62-.24,1.93,1.93,0,0,1-.55-.38,1.69,1.69,0,0,1-.39-.57,2.15,2.15,0,0,1-.15-.85,2,2,0,0,1,.17-.79,1.77,1.77,0,0,1,.47-.68,2.25,2.25,0,0,1,.76-.48,2.74,2.74,0,0,1,1-.18,3.32,3.32,0,0,1,1.2.21,2.59,2.59,0,0,1,1,.57Z"/><path class="cls-1" d="M53.12,104.33l-.11.12a.34.34,0,0,1-.16,0,.35.35,0,0,1-.19-.06l-.22-.13a1.29,1.29,0,0,0-.74-.2,1.31,1.31,0,0,0-.58.12,1.1,1.1,0,0,0-.42.35,1.64,1.64,0,0,0-.25.55,3.11,3.11,0,0,0-.08.72,2.86,2.86,0,0,0,.09.75,1.65,1.65,0,0,0,.26.55,1.12,1.12,0,0,0,.41.34,1.33,1.33,0,0,0,.54.11,1.37,1.37,0,0,0,.49-.07,1.49,1.49,0,0,0,.31-.17l.23-.16a.32.32,0,0,1,.21-.08.26.26,0,0,1,.23.12l.36.46a2.52,2.52,0,0,1-.45.42,3.07,3.07,0,0,1-.51.26,2.61,2.61,0,0,1-.55.14,3.52,3.52,0,0,1-.56,0,2.31,2.31,0,0,1-.91-.18,2.09,2.09,0,0,1-.75-.53,2.47,2.47,0,0,1-.51-.85,3.42,3.42,0,0,1-.19-1.15,3.33,3.33,0,0,1,.17-1.07,2.36,2.36,0,0,1,.49-.86,2.1,2.1,0,0,1,.8-.56,2.68,2.68,0,0,1,1.09-.21,2.76,2.76,0,0,1,1,.19,2.64,2.64,0,0,1,.79.54Z"/><path class="cls-1" d="M54.52,108.48v-7.61h1.26v2.92a2.85,2.85,0,0,1,.68-.47,1.91,1.91,0,0,1,.86-.18,1.81,1.81,0,0,1,.76.15,1.36,1.36,0,0,1,.56.41,1.73,1.73,0,0,1,.34.63,2.86,2.86,0,0,1,.11.8v3.35H57.83v-3.35a1.15,1.15,0,0,0-.22-.74.83.83,0,0,0-.67-.27,1.32,1.32,0,0,0-.62.15,2.27,2.27,0,0,0-.54.41v3.8Z"/><path class="cls-1" d="M62.78,103.14a3,3,0,0,1,1.07.19,2.44,2.44,0,0,1,.82.54,2.34,2.34,0,0,1,.52.85,3.29,3.29,0,0,1,.18,1.12,3.35,3.35,0,0,1-.18,1.13,2.43,2.43,0,0,1-.52.85,2.17,2.17,0,0,1-.82.54,2.8,2.8,0,0,1-1.07.19,2.87,2.87,0,0,1-1.07-.19,2.17,2.17,0,0,1-.82-.54,2.43,2.43,0,0,1-.52-.85,3.12,3.12,0,0,1-.19-1.13,3.06,3.06,0,0,1,.19-1.12,2.34,2.34,0,0,1,.52-.85,2.44,2.44,0,0,1,.82-.54A3.08,3.08,0,0,1,62.78,103.14Zm0,4.44a1.12,1.12,0,0,0,1-.44,2.19,2.19,0,0,0,.32-1.29,2.25,2.25,0,0,0-.32-1.3,1.29,1.29,0,0,0-2,0,2.76,2.76,0,0,0,0,2.58A1.14,1.14,0,0,0,62.78,107.58Z"/><path class="cls-1" d="M68.81,103.14a3,3,0,0,1,1.07.19,2.3,2.3,0,0,1,.81.54,2.36,2.36,0,0,1,.53.85,3.29,3.29,0,0,1,.18,1.12,3.35,3.35,0,0,1-.18,1.13,2.45,2.45,0,0,1-.53.85,2.06,2.06,0,0,1-.81.54,3.11,3.11,0,0,1-2.14,0,2.17,2.17,0,0,1-.82-.54,2.45,2.45,0,0,1-.53-.85,3.35,3.35,0,0,1-.19-1.13,3.29,3.29,0,0,1,.19-1.12,2.36,2.36,0,0,1,.53-.85,2.44,2.44,0,0,1,.82-.54A3,3,0,0,1,68.81,103.14Zm0,4.44a1.12,1.12,0,0,0,1-.44,2.19,2.19,0,0,0,.32-1.29,2.25,2.25,0,0,0-.32-1.3,1.29,1.29,0,0,0-2,0,2.76,2.76,0,0,0,0,2.58A1.14,1.14,0,0,0,68.81,107.58Z"/><path class="cls-1" d="M73.94,100.87v7.61H72.67v-7.61Z"/><path class="cls-1" d="M1.13,82.14,10.2,62.51a.53.53,0,0,1,.5-.32H11a.5.5,0,0,1,.5.32l9,19.63a.51.51,0,0,1-.49.76H17.44a.84.84,0,0,1-.85-.58l-1.43-3.15H6.44L5,82.32a.88.88,0,0,1-.85.58H1.62A.51.51,0,0,1,1.13,82.14Zm12.6-6.21-2.92-6.42h-.08L7.87,75.93Z"/><path class="cls-1" d="M22.4,63a.54.54,0,0,1,.52-.55h6.92a10.21,10.21,0,1,1,0,20.42H22.92a.54.54,0,0,1-.52-.55Zm7.09,16.31a6.67,6.67,0,0,0,0-13.33H26.16V79.34Z"/><path class="cls-1" d="M41.51,63a.55.55,0,0,1,.55-.55H53.94a.55.55,0,0,1,.55.55v2.4a.55.55,0,0,1-.55.55H45.3v4.79h7.21a.57.57,0,0,1,.55.55v2.42a.56.56,0,0,1-.55.56H45.3v5.1h8.64a.56.56,0,0,1,.55.56v2.39a.55.55,0,0,1-.55.55H42.06a.55.55,0,0,1-.55-.55Z"/><path class="cls-1" d="M55.84,62.71a.54.54,0,0,1,.55-.52h.73L69.26,75.08h0V63a.55.55,0,0,1,.55-.55h2.69a.57.57,0,0,1,.55.55V82.67a.55.55,0,0,1-.55.53h-.7L59.63,69.8h0V82.35a.55.55,0,0,1-.55.55H56.39a.57.57,0,0,1-.55-.55Z"/><path class="cls-1" d="M37.13,53.19h0a.65.65,0,0,1-.2,0h0c-13.15-2.75-23-15.7-24.06-31.59v-.13c0-.31-.07-1.68-.07-1.68V8.27a.86.86,0,0,1,0-.16,1.22,1.22,0,0,1,.6-1l.1-.06A13.51,13.51,0,0,0,19.26.77s0,0,0-.05a.26.26,0,0,0,0-.07A1.21,1.21,0,0,1,20.38,0H53.85a1.16,1.16,0,0,1,1.07.65.39.39,0,0,0,0,.06l0,0a13.66,13.66,0,0,0,5.86,6.39A.57.57,0,0,1,61,7.2a1.21,1.21,0,0,1,.56.85V19.72a.86.86,0,0,1-.05.27C61,36.51,50.8,50.45,37.27,53.18ZM14.25,21.46c1,15.28,10.43,27.72,22.86,30.3C50,49.08,59.65,35.63,60.05,19.7a.59.59,0,0,1,.05-.23V8.35a14.92,14.92,0,0,1-6.39-6.92H20.52a14.9,14.9,0,0,1-6.34,6.89v11.4c0,.86.07,1.4.06,1.74Z"/><path class="cls-1" d="M47.62,22.8l0,0,0,0a.52.52,0,0,0-.21,0l-2,.13L43.18,23h0a.08.08,0,0,0-.07.09l.1.74a.08.08,0,0,0,.08.07l1.35-.09a1.35,1.35,0,0,0,0,.29,1.5,1.5,0,0,0,.49.77,1.55,1.55,0,0,0,.63.2h0A1.32,1.32,0,0,0,47.24,24l0-.28.18,0a.53.53,0,0,0,.22-.08.09.09,0,0,0,0-.07l-.07-.64S47.63,22.82,47.62,22.8Z"/><path class="cls-1" d="M43.23,28a.08.08,0,0,0-.09,0l-.07,0A3,3,0,0,0,42,29.32a6.62,6.62,0,0,0-.31,2.48,6.38,6.38,0,0,1-.27,2.28A1.74,1.74,0,0,1,40,35h-.17a1.85,1.85,0,0,1-1-.36h0a.06.06,0,0,1,0,0l-.08-.06a.08.08,0,0,0-.1,0l-.52.62a.14.14,0,0,0,0,.06l0,0a2.93,2.93,0,0,0,1.55.63l.41,0a2.23,2.23,0,0,0,1.57-.6,3.8,3.8,0,0,0,1-3.11A9.14,9.14,0,0,1,42.64,31a3.1,3.1,0,0,1,1-2.25.08.08,0,0,0,0-.11Z"/><path class="cls-1" d="M43.09,9.75a4.41,4.41,0,0,0-1.91-1.2,2.38,2.38,0,0,0-1.87.38,17.69,17.69,0,0,0-4.48-2.86,10.36,10.36,0,0,0-2-.63,11.35,11.35,0,0,0-1.3-.17l-.84,0a10,10,0,0,0-5,1.36,14.62,14.62,0,0,0-7.22,11.71v1a10.54,10.54,0,0,0,5.63,9.12l.74.34a4,4,0,0,1,2.08,1.47,5,5,0,0,1,.59,3.21.08.08,0,0,0,0,.07l4,3.94,1.29,1.23,2,2,2.79,2.69a.66.66,0,0,0,.43.17.59.59,0,0,0,.37-.15l2.77-2.77,1.43-1.39a2.63,2.63,0,0,0,1.51.51,2.86,2.86,0,0,0,1.08-.22,1.69,1.69,0,0,0,.27-.11l.06,0a3.15,3.15,0,0,0,1.55.33,3.64,3.64,0,0,0,3.18-1.8A4.33,4.33,0,0,0,49.5,33l.62-.76a.62.62,0,0,0,0-.12,0,0,0,0,0,0,0l-.68-1a7.54,7.54,0,0,0,.64-.51h0a.36.36,0,0,0,0-.3l-.46-1.62,2.36-.46h0A.28.28,0,0,0,52.2,28a.48.48,0,0,0-.08-.38c-.39-.67-.84-1.41-1.33-2.23s-1.12-1.85-1.58-2.66a5.6,5.6,0,0,1,.07-.73c0-.26.1-.64.17-1.23L52,20.36h0a.39.39,0,0,0,.23-.24.43.43,0,0,0-.15-.36Zm7.74,17.76L47.91,28a.33.33,0,0,0-.12.05.08.08,0,0,0,0,.09l.2.72a.12.12,0,0,0,0,.05h.07l.76-.14c0,.15.44,1.15.49,1.33a2,2,0,0,1-.52.39,2.82,2.82,0,0,0-2.64,1.21.08.08,0,0,0,0,.1l.61.35a.08.08,0,0,0,.07,0s0,0,.05,0a2.07,2.07,0,0,1,1.76-.84,9,9,0,0,0,.65.85c-.08.26-.77.81-.83,1a.08.08,0,0,0,0,.09,3.66,3.66,0,0,1,1,3.87,2.8,2.8,0,0,1-2.42,1.73,2.28,2.28,0,0,1-.9-.11c1.09-1.5.26-3.37-.58-4.83a7.26,7.26,0,0,1-.47-1,3.1,3.1,0,0,1,0-1.77,2.94,2.94,0,0,1,1.12-1.24.07.07,0,0,0,0-.11L46,29.11a.11.11,0,0,0-.11,0,4.38,4.38,0,0,0-.68.5,4.65,4.65,0,0,0-.86,1.48c-.42,1.35,0,2.22.72,3.53l.15.34a3.62,3.62,0,0,1,.47,3,1.41,1.41,0,0,1-.47.57,1.67,1.67,0,0,1-1,.36,1.7,1.7,0,0,1-.78-.19,2.23,2.23,0,0,1-.85-1.76v0a.1.1,0,0,0,0,0s0-.05-.07-.05l-.74,0a.07.07,0,0,0-.08.07,2.71,2.71,0,0,0,.43,1.63l-.91.85L38,42.37l-3.2-3.08-2-2-4.21-4.06,1.15-1a3,3,0,0,0,.13.83,2.71,2.71,0,0,0,2.48,2,2.61,2.61,0,0,0,2.79-3.33,4.16,4.16,0,0,0-1.41-2,1.34,1.34,0,0,1-.24-.33,1.86,1.86,0,0,1-.23-.59,3.89,3.89,0,0,0,.54-.65,4.21,4.21,0,0,0,1.84,1.19,10.69,10.69,0,0,0,1.81.34h0a.09.09,0,0,0,.06-.07l.09-.74a.11.11,0,0,0,0-.09l-.06,0L37,28.66h0a3.9,3.9,0,0,1-2.12-.76,2.7,2.7,0,0,1-.66-1,1.58,1.58,0,0,1,.65-2.13,2.1,2.1,0,0,1,1-.11,2.22,2.22,0,0,1,.65.24l.35.15h0a.09.09,0,0,0,.07,0l.42-.51a.09.09,0,0,0,0-.09.8.8,0,0,0-.2-.21,18.24,18.24,0,0,0,1.76-3.33l1.14.2a5.36,5.36,0,0,0-1.25,3v.11a3.93,3.93,0,0,1-.29,2.36,1,1,0,0,1-.75.35,1.92,1.92,0,0,1-1.07-.44.09.09,0,0,0-.11,0l-.55.56s0,0,0,.06a.09.09,0,0,0,0,.06,2.91,2.91,0,0,0,1.74.66,1.74,1.74,0,0,0,.93-.26,2.46,2.46,0,0,0,1-2.55c0-.2,0-.4,0-.6a4.76,4.76,0,0,1,1.23-3.24l.31,0H42l-.11.13c-.28.33-.52.62-.7.87A4.68,4.68,0,0,0,40.69,25a4,4,0,0,1-.76,2.72c-1.1,1.31-1.06,2-1,3.53v.24a1.13,1.13,0,0,1-.29.83,1.15,1.15,0,0,1-.85.34,1.75,1.75,0,0,1-1.15-.47.08.08,0,0,0-.11,0l-.45.49a.08.08,0,0,0,0,.11.46.46,0,0,0,.07.07,2.59,2.59,0,0,0,1.65.68,2.16,2.16,0,0,0,1.8-1,3.26,3.26,0,0,0,.19-2.05v-.07l0-.41a2.51,2.51,0,0,1,.59-1.47,5.66,5.66,0,0,0,.79-1.58,5.12,5.12,0,0,0,.24-1.35c0-.26,0-.51,0-.74v-.11a3.64,3.64,0,0,1,1.76-3.44l5.21-.38-.08.86c0,.39-.07.62-.08.78v0l.12.63s0,0,0,0C49.37,24.88,50.18,26.33,50.83,27.51ZM32.86,32a1.65,1.65,0,0,0-.83-1.1,1.46,1.46,0,0,0-.71-.09,3.94,3.94,0,0,0,.29-.29c.08-.09.71-.68.88-.82a2.21,2.21,0,0,0,.54.8,4.76,4.76,0,0,1,.76.63,2.18,2.18,0,0,1,.28,2A1.86,1.86,0,0,1,32,34a1.78,1.78,0,0,1-1-.92,1.12,1.12,0,0,1-.13-.82.47.47,0,0,1,.48-.36c.25,0,.45.2.53.51,0,0,0,.05.06.06H32l.86-.4h0A.07.07,0,0,0,32.86,32ZM45.2,20.15a24.47,24.47,0,0,1-4,0c-.79,0-1.6-.11-2.4-.22h-.05a.4.4,0,0,0-.47.16l-.08.15a22.74,22.74,0,0,1-2,3.5,4.05,4.05,0,0,0-1.39,0,2.28,2.28,0,0,0-1.44,1.08,3.12,3.12,0,0,0-.08,2.51,3,3,0,0,0-.48.52l-1.3,1.3a35.65,35.65,0,0,1-2.82,2.61,5.64,5.64,0,0,0-.78-2.5,4.25,4.25,0,0,1-.55-3.6,11.09,11.09,0,0,1,3.28-3.8l.19-.17a21.2,21.2,0,0,0,1.67-1.76c1.51-1.82,3.69-5.36,1.42-8.54a.08.08,0,0,0-.07,0h0l-.72.35a.08.08,0,0,0,0,0,.15.15,0,0,0,0,.07v0c1.57,2.13.72,4.32-.44,6.37A10.55,10.55,0,0,1,30.25,21c-3.29,2.3-4.64,4.74-4,7.24-4.57-2.05-6.51-4.69-6.68-9.08a13.06,13.06,0,0,1,6.5-11.68,9.89,9.89,0,0,1,4.79-1.28l.66,0h0c.41,0,.84.1,1.25.19a11.29,11.29,0,0,1,2,.67A15.07,15.07,0,0,1,38.6,9.61,2.73,2.73,0,0,0,38.44,12a4,4,0,0,0,2.73,2.08l.07,0,.11,0a.1.1,0,0,0,.1-.06l.2-.7a0,0,0,0,0,0-.06.1.1,0,0,0,0,0l-.41-.12a3.08,3.08,0,0,1-2-2,1.66,1.66,0,0,1,1.18-1.62l.37,0a1.1,1.1,0,0,1,.45.09,3.43,3.43,0,0,1,1.37,1.07l0,0,.22.22.59.59,7.1,8.1A51,51,0,0,1,45.2,20.15Z"/></g></g></svg>