<svg xmlns="http://www.w3.org/2000/svg" viewBox="0 0 29.2 34.54"><defs><style>.cls-1{fill:#d2d2d2;}</style></defs><title>timer</title><g id="Layer_2" data-name="Layer 2"><g id="Capa_2" data-name="Capa 2"><path class="cls-1" d="M17.61,0c.95.39,1,1.2,1,2.07S18.52,3.69,17.5,4c-.12,0-.2.37-.22.58s0,.67,0,1c.66.19,1.26.35,1.84.55s1.11.41,1.71.64c.49-.64,1-1.27,1.48-1.9a1.29,1.29,0,0,1,2-.25c.46.33.91.69,1.35,1a1.33,1.33,0,0,1,.26,2.14c-.39.52-.81,1-1.27,1.57a14.55,14.55,0,0,1,4.48,12A14.27,14.27,0,0,1,26,29.14,14.62,14.62,0,1,1,12,5.54c0-.28,0-.59,0-.89s0-.7-.5-.79a1.23,1.23,0,0,1-.63-.53A2.83,2.83,0,0,1,11.52,0ZM5.88,14.1a2.1,2.1,0,0,0-.43.41,10.11,10.11,0,0,0-1.32,7.25,10.55,10.55,0,0,0,12.35,8.65A10.64,10.64,0,1,0,12.36,9.54a9.71,9.71,0,0,0-6.45,4.35Z"/><path class="cls-1" d="M5.91,13.89A1.61,1.61,0,0,1,7.52,14q2.79,1.53,5.64,3a3.12,3.12,0,0,0,1.31.32,2.71,2.71,0,0,1,2.79,2.4,2.65,2.65,0,0,1-2.14,2.82,2.59,2.59,0,0,1-3-1.83,1.89,1.89,0,0,0-.51-.74c-1.69-1.41-3.41-2.8-5.11-4.21-.52-.42-1-.86-.6-1.63Z"/></g></g></svg>